<?xml version="1.0" encoding="utf-8"?>
<!-- Generator: Adobe Illustrator 21.1.0, SVG Export Plug-In . SVG Version: 6.00 Build 0)  -->
<svg version="1.1" id="Capa_1" xmlns="http://www.w3.org/2000/svg" xmlns:xlink="http://www.w3.org/1999/xlink" x="0px" y="0px"
	 viewBox="0 0 113.4 113.4" style="enable-background:new 0 0 113.4 113.4;" xml:space="preserve">
<style type="text/css">
	.st0{fill:#FFC7AC;}
	.st1{fill:#261818;}
	.st2{fill:#FFA688;}
	.st3{fill:#FF9276;}
	.st4{fill:#FF7389;}
	.st5{fill:#7D3444;}
	.st6{fill:#FFFFFF;}
	.st7{fill:#FF9573;}
	.st8{fill:#201717;}
</style>
<g id="Agus_G_1_">
	<path class="st0" d="M32.6,32.9c-1.4,0-2.6,1.2-2.6,2.6l-5.6,32.1l5.6,6.4v10.9c0,0.6,0.2,1.2,0.4,1.6l0,0c0.5,1,8.6,15,15.7,22.8
		c0.8,0.8,1.9,1.4,3.2,1.4h16.6c1.2,0,2.4-0.5,3.2-1.4c7-7.8,15.2-21.8,15.7-22.8l0,0c0.3-0.5,0.4-1,0.4-1.6l0-10.9l5.8-6.4
		l-5.8-32.1c0-1.4-1.2-2.6-2.6-2.6H32.6z"/>
	<path class="st1" d="M26.4,72.4c-1.1,0-2.1,0.4-3,1c2.1,1.2,3.6,3.4,3.6,6c0,1-0.2,2-0.7,2.9c0,0,0,0,0,0c2.7,0,5-2.2,5-5
		C31.3,74.6,29.1,72.4,26.4,72.4z M91.8,73.4c-0.8-0.6-1.8-1-3-1c-2.7,0-5,2.2-5,5c0,2.7,2.2,5,5,5c0,0,0,0,0,0
		c-0.4-0.9-0.7-1.9-0.7-2.9C88.2,76.8,89.7,74.5,91.8,73.4z"/>
	<g id="Oreja_izq_12_">
		<polygon class="st2" points="28.8,74.2 24.2,74.2 24.2,61.4 27.6,61.4 27.6,73.3 		"/>
		<path class="st0" d="M22.6,71c0,0.2,0,1.9,0.8,3.3c0.7,1.1,3.2,4.5,4.8,5.5c0,0,0.3,0.2,0.8,0.2c0.5,0,0.9-0.2,1.1-0.6V69.2
			c-0.3-0.1-0.6-0.2-0.9-0.2c-0.2,0-0.4,0-0.6,0.1c0,0,0,0,0,0c-0.2,0.1-0.5,0.1-0.7,0.3v-9.5l-2.4-3.2c-0.1-0.1-0.1-0.2-0.2-0.3
			c-0.3-0.3-0.7-0.5-1.1-0.5c-0.9,0-1.6,0.7-1.6,1.5C22.6,57.5,22.6,70.9,22.6,71z M24.5,61.8l3,2.7v5.1c-0.6,0.4-1,1.1-1,1.9
			c0,1.4,0.7,2.1,1.5,2.4c-0.3,0.1-1,0.3-1.9-0.2c-1.2-0.6-1.5-1.9-1.5-3.1C24.5,69.4,24.5,61.8,24.5,61.8z"/>
		<path class="st3" d="M27.1,63.1c-0.4-0.5-2-2.5-2.1-2.6c-0.2-0.3-0.6-0.3-0.9-0.1c-0.3,0.2-0.3,0.6-0.1,0.8c0,0,1.8,2.1,2.1,2.5
			c0.2,0.3,0.4,0.7,0.4,1.9v5.3c0,0.1,0,0.1,0,0.2c0.1-0.7,0.6-1.3,1.2-1.7v-3.8C27.7,64.3,27.5,63.6,27.1,63.1z"/>
	</g>
	<g id="Oreja_der_18_">
		<polygon class="st2" points="86.4,74.2 91,74.2 91,61.4 87.6,61.4 87.6,73.3 		"/>
		<path class="st0" d="M92.7,57.5c0-0.8-0.7-1.5-1.6-1.5c-0.4,0-0.8,0.2-1.1,0.5c-0.1,0.1-0.1,0.2-0.2,0.3l-2.4,3.2v9.5
			c-0.2-0.1-0.5-0.2-0.7-0.3c0,0,0,0,0,0c-0.2,0-0.4-0.1-0.6-0.1c-0.3,0-0.6,0.1-0.9,0.2v10.3c0.3,0.3,0.7,0.6,1.1,0.6
			c0.5,0,0.8-0.2,0.8-0.2c1.6-0.9,4.1-4.4,4.8-5.5c0.8-1.3,0.8-3.1,0.8-3.3C92.7,70.9,92.7,57.5,92.7,57.5z M90.7,70.6
			c0,1.2-0.3,2.5-1.5,3.1c-1,0.5-1.6,0.3-1.9,0.2c0.8-0.3,1.5-0.9,1.5-2.4c0-0.8-0.4-1.5-1-1.9v-5.1l3-2.7
			C90.7,61.8,90.8,69.4,90.7,70.6z"/>
		<path class="st3" d="M88.2,63.1c0.4-0.5,2-2.5,2.1-2.6c0.2-0.3,0.6-0.3,0.9-0.1c0.3,0.2,0.3,0.6,0.1,0.8c0,0-1.8,2.1-2.1,2.5
			c-0.2,0.3-0.4,0.7-0.4,1.9v5.3c0,0.1,0,0.1,0,0.2c-0.1-0.7-0.6-1.3-1.2-1.7v-3.8C87.6,64.3,87.7,63.6,88.2,63.1z"/>
	</g>
	<g id="boca_6_">
		<path class="st4" d="M69.8,85.8c-0.5,0-3.9,0-5,0c-1.1,0-3.6-0.9-4.3-1.1c-0.7-0.2-0.8-0.2-1.1,0C59,84.8,58.7,85,57.6,85
			c-1.1,0-1.4-0.3-1.8-0.4c-0.4-0.2-0.5-0.2-1.1,0c-0.7,0.2-3.2,1.1-4.3,1.1c-1.1,0-4.5,0-5,0c-0.5,0-0.7,0.9-0.6,1.5
			c0.1,0.6,1.2,2.8,4.5,4.8c2.7,1.7,5.4,2,8.3,2c2.9,0,5.6-0.3,8.3-2c3.3-2.1,4.5-4.2,4.5-4.8C70.5,86.6,70.3,85.8,69.8,85.8z"/>
		<path class="st5" d="M57.6,91.3c4.7,0,6.6-1.2,8.3-1.8c1.7-0.6,2.5-1.2,3.3-1.6c0.7-0.3,0.5-0.4,0.5-0.4H45.5c0,0-0.3,0.1,0.5,0.4
			c0.8,0.4,1.6,1,3.3,1.6C51,90.1,52.9,91.3,57.6,91.3z"/>
		<path class="st6" d="M48.3,87.5c0.4,0.5,0.9,1.8,1.6,2.2c1.8,1,4.6,1.7,7.8,1.7c3.2,0,6-0.7,7.8-1.7c0.7-0.4,1.2-1.7,1.6-2.2H48.3
			z"/>
		<path class="st3" d="M48.8,75.4l-6,5.5C42.8,80.8,45.5,81.7,48.8,75.4z M66.4,75.4c3.3,6.4,6,5.5,6,5.5L66.4,75.4z"/>
	</g>
	<g id="Ojos_12_">
		<path class="st7" d="M80.9,58.8c-0.2-0.4-1.6-3.1-1.6-3.1C75.8,51.6,60.8,56,60.8,56l-1,18.3h1c0-0.3,1-8,1.4-9.5
			c0.4-1.5,1.7-2.6,4-1.4c1.1,0.5,10.3-0.2,10.6-0.2s2-1.6,2.7-2.4C80.2,60,81.2,59.2,80.9,58.8z M35.9,55.7c0,0-1.4,2.7-1.6,3.1
			c-0.2,0.4,0.8,1.2,1.4,2c0.7,0.8,2.4,2.3,2.7,2.4c0.3,0,9.5,0.7,10.6,0.2c2.2-1.1,3.6,0,4,1.4c0.4,1.5,1.4,9.2,1.4,9.5h1l-1-18.3
			C54.4,56,39.4,51.6,35.9,55.7z"/>
		<path class="st1" d="M76.7,60.3c-0.8-1.1-1.6-1.7-4-2.1c-1.9-0.3-5.5-0.4-7.9,0.5c-0.6,0.2-1.3,0.7-1.1,1.2
			c0.1,0.4,0.4,0.5,1.3,0.2c0.4-0.1,0.9-0.2,1.6-0.2c0,0.1,0,0.3,0,0.4c0,1.4,1,1.9,2.4,1.9l2,0c1.4,0,2.3-0.4,2.3-1.8
			c0-0.1,0-0.2,0-0.3c0.7,0,1.1,0.1,1.4,0.3c0.7,0.3,1.1,1,1.3,1.4l1.4,0.4C77.4,62,77.5,61.5,76.7,60.3z M50.5,58.7
			c-2.4-0.8-6-0.7-7.9-0.5c-2.5,0.3-3.3,0.9-4,2.1c-0.8,1.1-0.7,1.7-0.7,1.7l1.4-0.4c0.2-0.4,0.7-1.1,1.3-1.4
			c0.4-0.2,0.7-0.2,1.4-0.3c0,0.1,0,0.2,0,0.3c0,1.4,0.9,1.8,2.3,1.8l2,0c1.4,0,2.5-0.5,2.4-1.9c0-0.1,0-0.3,0-0.4
			c0.7,0,1.2,0.1,1.6,0.2c1,0.3,1.2,0.2,1.3-0.2C51.7,59.5,51.1,59,50.5,58.7z"/>
	</g>
	<g id="Nariz_16_">
		<path class="st2" d="M63.9,75c-1-0.4-1.2-0.7-1.9-1.5c-0.7-0.8-2.5-1.9-4.4-1.9c-2,0-3.7,1.1-4.4,1.9c-0.7,0.8-0.9,1.1-1.9,1.5
			c-1,0.4-1.7,1-1.7,2.2c0,1.2,0.8,1.9,2,2.2c1,0.3,1.5,0.2,1.9,0.2c0.4,0,1-0.1,1.9,0.1c0.8,0.2,1.3,0.5,2.3,0.5s1.5-0.3,2.3-0.5
			c0.9-0.2,1.5-0.2,1.9-0.1c0.4,0,0.9,0.1,1.9-0.2c1.2-0.3,2-1,2-2.2C65.6,76,64.9,75.4,63.9,75z"/>
		<polygon class="st2" points="54.4,56 55.4,74.3 59.9,74.3 60.8,56 		"/>
		<ellipse class="st0" cx="57.6" cy="76.7" rx="3.2" ry="1.6"/>
		<path class="st8" d="M63.6,78.7c-0.1-0.3-0.7-0.4-1.3-0.3c-0.6,0.2-1.1,0.6-1,0.9c0.1,0.3,0.7,0.4,1.3,0.3
			C63.3,79.4,63.7,79,63.6,78.7z M52.9,78.4c-0.6-0.2-1.2-0.1-1.3,0.3c-0.1,0.3,0.4,0.7,1,0.9c0.6,0.2,1.2,0.1,1.3-0.3
			C54,79,53.6,78.6,52.9,78.4z"/>
	</g>
	<path class="st1" d="M95,36.7c-0.8-11.4-4.3-16.8-10.6-21.6c-4.7-3.6-11.6-7.7-13.2-8.7c-1.6-1-4.2-0.7-6.5,1.1
		c0,0-5.9-3.3-7.3-3.3h-7.9c-1.8,0-5.6,2.5-9.4,4.7c-3.8,2.3-3.9,2.2-9.6,5.9c-7.9,5.1-10.8,13-11.2,21.9c0,0,0,3.6,0.2,4.7
		c2.1,10.7,2.4,23.6,2.4,23.6s1,0.7,2.4-0.7c1.2,1.3,2.6,2.3,4.3,2.8c0.5,0.1,0.9,0.2,1.4,0.3v17.3c0,0.6,0.2,1.2,0.4,1.6l0,0
		c0.5,1,8.6,15,15.7,22.8c0.8,0.8,1.9,1.4,3.2,1.4h16.6c1.2,0,2.4-0.5,3.2-1.4c7-7.8,15.2-21.8,15.7-22.8l0,0c0.3-0.5,0.4-1,0.4-1.6
		l0-17.3c0.5-0.1,1-0.2,1.4-0.3c1.7-0.5,3.2-1.5,4.3-2.8c1.4,1.4,2.4,0.7,2.4,0.7s0-7.6,0.5-15.4C94.1,44.9,95.2,40,95,36.7z
		 M83,82.3c0,2.7,0,2.7-2,5.4l-7.1,9.5v-4.2l-2.3,0.8c-0.1,0-0.1,0.1-0.1,0.2c-0.1,0.3-0.2,1.3-0.3,1.7c-0.1,0.5-0.4,0.9-0.8,1.1
		l0,0c0,0,0,0,0,0c0,0,0,0,0,0c-0.6,0.3-6.1,3.1-7,3.6c-0.1,0-0.1,0.1-0.1,0.2c-0.1,1.3-1.2,2.4-2.5,2.4h-6.1
		c-1.4,0-2.5-1.1-2.5-2.4c0-0.1,0-0.2-0.1-0.2c-0.9-0.4-6.5-3.2-7-3.6c0,0,0,0,0,0c0,0,0,0,0,0l0,0c-0.4-0.2-0.7-0.6-0.8-1.1
		c-0.1-0.4-0.2-1.4-0.3-1.7c0-0.1-0.1-0.1-0.1-0.2l-2.3-0.8v4.2l-7.1-9.5c-2-2.5-2-3.7-2-5.4V55.8c0-1.9,0.9-3.5,2.4-4.5v-5.7
		c0.6,0,1.3,0,1.9,0c10,0,19.2-3.5,26.3-9.4c4.4,1.6,8.1,4.9,10.1,9.1v-7.8c2,3.5,4.6,6.6,7.7,9.2v5c1.4,1,2.4,2.5,2.4,4.1V82.3z
		 M59.5,94.6h-3.8c-0.7,0-1.3,0.4-1.3,0.9v2.7c0,0.5,0.6,0.9,1.3,0.9h3.8c0.7,0,1.3-0.4,1.3-0.9v-2.7C60.8,95,60.2,94.6,59.5,94.6z
		 M71.7,82.2h-7.2l-3.7-1.3c-0.2-0.1-0.6-0.1-0.6-0.1c-1.1,0.1-1.4,0.5-2.5,0.5c-1.2,0-1.5-0.4-2.6-0.5c0,0-0.4,0-0.6,0.1l-3.7,1.3
		h-7.2c-0.9,0-1.7,0.8-1.7,1.7v3.4c0,0.7,0.6,1.4,1.4,1.4s1.4-0.6,1.4-1.4c0-0.1,0-1.7,0-1.7H51c0.2,0,0.4,0,0.6-0.1l3.2-1.1
		c0.3-0.1,0.7,0,1,0.1c0.5,0.3,1.1,0.5,1.8,0.5c0.7,0,1.3-0.2,1.8-0.5c0.3-0.2,0.6-0.3,1-0.1l3.3,1.1c0.2,0.1,0.4,0.1,0.6,0.1h6.4
		c0,0,0,1.5,0,1.7c0,0.7,0.6,1.4,1.4,1.4c0.7,0,1.4-0.6,1.4-1.4v-3.4C73.3,82.9,72.6,82.2,71.7,82.2z M78,52.5c-0.5-0.4-1-0.3-1-0.3
		s-14.8,0.4-15.5,0.5c-0.7,0.1-0.9,0.7-1.1,1.1c-0.2,0.5-0.2,1.5,0.5,2.2l16-0.4c1.4,0,1.4,0.3,2,0.9c0.6,0.6,2.1,2.3,2.1,2.3
		C80.5,55.8,78.5,52.9,78,52.5z M54.9,53.7c-0.2-0.4-0.4-1-1.1-1.1c-0.7-0.1-15.5-0.5-15.5-0.5s-0.5-0.1-1,0.3
		c-0.5,0.4-2.6,3.3-3,6.3c0,0,1.5-1.7,2.1-2.3c0.6-0.6,0.6-0.9,2-0.9l16,0.4C55,55.3,55.1,54.2,54.9,53.7z"/>
</g>
</svg>
