<?xml version="1.0" encoding="utf-8"?>
<!-- Generator: Adobe Illustrator 21.1.0, SVG Export Plug-In . SVG Version: 6.00 Build 0)  -->
<svg version="1.1" id="Capa_1" xmlns="http://www.w3.org/2000/svg" xmlns:xlink="http://www.w3.org/1999/xlink" x="0px" y="0px"
	 viewBox="0 0 113.4 113.4" style="enable-background:new 0 0 113.4 113.4;" xml:space="preserve">
<style type="text/css">
	.st0{fill:#FFC7AC;}
	.st1{fill:#FFA688;}
	.st2{fill:#FF9276;}
	.st3{fill:#FF7389;}
	.st4{fill:#7D3444;}
	.st5{fill:#FFFFFF;}
	.st6{fill:#261818;}
	.st7{fill:#201717;}
	.st8{fill:#352727;}
</style>
<g id="Ariel">
	<path class="st0" d="M86.4,28.9c-0.2-2.2-2-3.9-4.2-3.9H32.5c-2.2,0-4,1.7-4.2,3.9l-2.6,32.7l2.9,14.5c0,0,2.8,9.7,4.5,14.2
		c1.7,4.4,15.2,16,15.4,16.1c0.8,0.8,2,1.4,3.3,1.4H63c1.3,0,2.4-0.5,3.3-1.4c0.1-0.1,13.7-11.7,15.4-16.1
		c1.7-4.4,4.5-14.2,4.5-14.2L89,61.6L86.4,28.9z"/>
	<g id="Oreja_der_16_">
		<polygon class="st1" points="28.6,71.1 23.1,71.4 22.4,58.1 26.5,57.9 27.1,70.2 		"/>
		<path class="st0" d="M28.7,65.7c-0.2,0-0.5,0-0.7,0.1c0,0,0,0,0,0c-1.4,0.3-2.5,1.4-2.4,2.6c0.1,1.5,0.9,2.1,1.9,2.3
			c-0.3,0.1-1.1,0.4-2.3-0.1c-1.5-0.6-1.9-1.9-2-3.1c-0.1-1.2-0.4-9.1-0.4-9.1l3.9,3l-0.3-5.5l-2.8-2.8c-0.1-0.1-0.2-0.2-0.3-0.3
			c-0.4-0.3-0.8-0.4-1.4-0.4c-1,0.1-1.8,0.8-1.8,1.7c0,0,0.7,13.9,0.7,14c0,0.2,0.1,2,1.1,3.3c0.8,1.1,4,4.5,6,5.3
			c0,0,0.4,0.2,1,0.2c0.5,0,1-0.3,1.3-0.6l-0.5-10.6C29.5,65.7,29.1,65.6,28.7,65.7z"/>
		<path class="st2" d="M25.9,59.6c-0.4-0.4-2.6-2.4-2.7-2.5c-0.3-0.2-0.7-0.3-1,0c-0.3,0.2-0.3,0.6-0.1,0.9c0,0,2.2,2,2.6,2.5
			c0.3,0.3,0.5,0.7,0.5,1.9l0.3,5.5c0,0.1,0,0.1,0.1,0.2c0.1-0.7,0.6-1.4,1.3-1.8l-0.2-4C26.7,60.9,26.5,60.2,25.9,59.6z"/>
	</g>
	<g id="Oreja_der_14_">
		<polygon class="st1" points="86.1,71.1 91.6,71.4 92.2,58.1 88.1,57.9 87.5,70.2 		"/>
		<path class="st0" d="M85.9,65.7c0.2,0,0.5,0,0.7,0.1c0,0,0,0,0,0c1.4,0.3,2.5,1.4,2.4,2.6c-0.1,1.5-0.9,2.1-1.9,2.3
			c0.3,0.1,1.1,0.4,2.3-0.1c1.5-0.6,1.9-1.9,2-3.1c0.1-1.2,0.4-9.1,0.4-9.1l-3.9,3l0.3-5.5l2.8-2.8c0.1-0.1,0.2-0.2,0.3-0.3
			c0.4-0.3,0.8-0.4,1.4-0.4c1,0.1,1.8,0.8,1.8,1.7c0,0-0.7,13.9-0.7,14c0,0.2-0.1,2-1.1,3.3c-0.8,1.1-4,4.5-6,5.3c0,0-0.4,0.2-1,0.2
			c-0.5,0-1-0.3-1.3-0.6l0.5-10.6C85.2,65.7,85.5,65.6,85.9,65.7z"/>
		<path class="st2" d="M88.7,59.6c0.4-0.4,2.6-2.4,2.7-2.5c0.3-0.2,0.7-0.3,1,0c0.3,0.2,0.3,0.6,0.1,0.9c0,0-2.2,2-2.6,2.5
			c-0.3,0.3-0.5,0.7-0.5,1.9l-0.3,5.5c0,0.1,0,0.1-0.1,0.2c-0.1-0.7-0.6-1.4-1.3-1.8l0.2-4C87.9,60.9,88.2,60.2,88.7,59.6z"/>
	</g>
	<g id="Boca_7_">
		<path class="st3" d="M68.8,85.4c-0.5,0-3.7,0-4.7,0c-1,0-3.4-1-4.1-1.3c-0.7-0.3-0.7-0.2-1.1,0c-0.4,0.2-0.7,0.5-1.7,0.5
			c-1,0-1.3-0.3-1.7-0.5c-0.4-0.2-0.4-0.3-1.1,0c-0.7,0.3-3.1,1.3-4.1,1.3c-1,0-4.2,0-4.7,0c-0.5,0-0.7,0.6-0.6,1.3
			c0.1,0.7,1.2,3.2,4.3,5.6c2.5,1.9,5.1,2.3,7.8,2.3c2.7,0,5.3-0.3,7.8-2.3c3.1-2.4,4.2-4.9,4.3-5.6C69.5,86,69.3,85.4,68.8,85.4z"
			/>
		<path class="st4" d="M68.7,87H45.8c0,0-0.3,0.2,0.4,0.5c0.7,0.2,1.5,0.6,3.1,1.3c1.6,0.7,2.5,1.7,7.9,1.7l0,0h0l0,0
			c5.4,0,6.2-1,7.9-1.7c1.7-0.7,2.4-1.1,3.1-1.3C69,87.2,68.7,87,68.7,87z"/>
		<path class="st5" d="M48.4,87c1.3,2,4.8,3.5,8.9,3.5s7.6-1.5,8.9-3.5H48.4z"/>
		<path class="st1" d="M72.7,85.6c-0.7-1.4-2.3-2.2-3.9-1.9l3.2,6.3C73.1,88.8,73.4,87.1,72.7,85.6z M42,85.6
			c-0.7,1.4-0.4,3.2,0.8,4.3l3.2-6.3C44.3,83.5,42.7,84.2,42,85.6z M57.3,95.7c-2,0-3.7,1.3-4.3,3.1h8.6C61,97,59.3,95.7,57.3,95.7z
			"/>
	</g>
	<g id="Ojos_10_">
		<path class="st2" d="M81.6,55c-6.9-7.1-21.4-2-21.4-2v19.8h0.6c-0.2-4.5,1.7-10.2,2.2-11.3c0.5-1.3,2.1,0,5.2,0.3
			c2.2,0.2,4.5,0.2,7,0.1c1.2-0.1,3.7-0.4,4.2-0.8c0.8-0.7,2.3-1.9,3-3.2C82.7,57.3,81.6,55,81.6,55z M33,55c0,0-1.1,2.3-0.8,3
			c0.8,1.3,2.2,2.5,3,3.2c0.5,0.4,3,0.7,4.2,0.8c2.5,0.1,4.8,0.1,7-0.1c3.1-0.3,4.7-1.6,5.2-0.3c0.4,1.1,2.4,6.8,2.2,11.3h0.6V52.9
			C54.4,52.9,39.9,47.9,33,55z"/>
		<path class="st6" d="M77.8,57.8c-0.8-1.1-1.6-1.7-4.2-2.1c-2-0.3-5.8-0.5-8.3,0.3c-0.6,0.2-1.3,0.7-1.2,1.1
			c0.1,0.4,0.4,0.5,1.4,0.2c0.4-0.1,1.2-0.2,1.7-0.2c0,0-0.1,0.2-0.1,0.4c-0.1,1.4,1,1.8,2.5,1.9l2.1,0.1c1.5,0.1,2.4-0.3,2.5-1.7
			c0-0.1,0-0.3,0-0.3c0.7,0.1,1.1,0.1,1.5,0.3c0.7,0.3,1.2,1,1.4,1.3l1.4,0.4C78.5,59.5,78.6,58.9,77.8,57.8z M49.3,56
			c-2.5-0.8-6.3-0.6-8.3-0.3c-2.6,0.4-3.4,1-4.2,2.1c-0.8,1.1-0.7,1.6-0.7,1.6l1.4-0.4c0.2-0.3,0.7-1,1.4-1.3
			c0.4-0.2,0.7-0.2,1.5-0.3c0,0,0,0.2,0,0.3c0.1,1.4,1,1.7,2.5,1.7l2.1-0.1c1.5,0,2.6-0.5,2.5-1.9c0-0.1-0.1-0.4-0.1-0.4
			c0.5,0,1.2,0.1,1.7,0.2c1,0.3,1.3,0.2,1.4-0.2C50.6,56.7,49.9,56.2,49.3,56z"/>
	</g>
	<g id="Nariz_13_">
		<path class="st1" d="M65.5,75.2c-1.3-0.5-1.5-0.8-2.4-1.7c-0.9-0.9-3.2-2.2-5.7-2.2c-2.6,0-4.8,1.2-5.7,2.2
			c-0.9,0.9-1.1,1.2-2.4,1.7s-2.2,1.1-2.2,2.5c0,1.4,1.1,2.1,2.6,2.5c1.3,0.3,1.9,0.2,2.4,0.2c0.5,0,1.3-0.1,2.4,0.1
			c1,0.2,1.7,0.5,2.9,0.5s1.9-0.3,2.9-0.5c1.1-0.2,1.9-0.2,2.4-0.1c0.5,0,1.1,0.1,2.4-0.2c1.5-0.4,2.6-1.1,2.6-2.5
			C67.6,76.3,66.8,75.6,65.5,75.2z"/>
		<rect x="54.4" y="52.9" class="st1" width="5.7" height="21.1"/>
		<ellipse class="st0" cx="57.3" cy="77.1" rx="3.6" ry="1.8"/>
		<path class="st7" d="M51.1,79.1c-0.7-0.2-1.4-0.1-1.5,0.3c-0.1,0.3,0.4,0.8,1.2,1c0.7,0.2,1.4,0.1,1.5-0.3
			C52.4,79.7,51.9,79.2,51.1,79.1z M65,79.3c-0.1-0.4-0.8-0.5-1.5-0.3c-0.7,0.2-1.3,0.6-1.2,1c0.1,0.3,0.8,0.5,1.5,0.3
			C64.6,80.1,65.1,79.7,65,79.3z"/>
	</g>
	<path class="st8" d="M66.3,106.3c-0.8,0.8-2,1.4-3.3,1.4H51.7c-1.3,0-2.4-0.5-3.3-1.4c-0.1-0.1-8.4-7.1-12.8-12.3h0
		c0,0,6.6,9.1,12.9,15c1.2,1.1,2.3,1.5,3.9,1.5h9.8c1.6,0,2.7-0.4,3.9-1.5c6.3-5.9,12.9-15,12.9-15h0
		C74.7,99.2,66.4,106.2,66.3,106.3z M40.9,52.5c0.9-0.1,10.2,0,13.5,0.5l-1.4-3c-0.1-0.1-0.2-0.2-0.3-0.2c-1.6-0.1-8.1-0.7-10.2-0.8
		c-2.1-0.1-5,0.5-5.7,0.9c-1,0.6-2.7,1.8-3.1,2.1c-0.6,0.5-1.2,3.9-1.2,3.9s1.6-1.5,3.8-2.4C38.4,52.6,40.1,52.6,40.9,52.5z
		 M77.7,49.9c-0.7-0.4-3.6-1-5.7-0.9c-2.1,0.1-8.6,0.6-10.2,0.8c-0.1,0-0.3,0.1-0.3,0.2l-1.4,3c3.3-0.5,12.6-0.6,13.5-0.5
		c0.9,0.1,2.5,0.1,4.5,1c2.2,0.9,3.8,2.4,3.8,2.4s-0.6-3.4-1.2-3.9C80.4,51.7,78.7,50.4,77.7,49.9z M92.8,47.4
		c-0.6-6.3-1.5-8-1.5-12.6c0-3.5,0.4-4.7,0.5-6.6c0.1-1.9-0.6-3.1-1.5-5c-0.7-1.5-6.3-8.3-6.5-8.5c-0.2-0.2-0.5-0.3-0.8-0.2
		c-0.2,0.1-0.8,0.2-1.4,0c-0.6-0.1-1-0.4-1.4-1c-0.4-0.6-0.6-1.3-1.3-1.9c-1.4-1-3.4-2.5-8.4-4.4c-5-1.9-11-3-11-3
		c-0.4-0.1-3.3-0.4-4.4-0.3c-1.1,0-4.2,0.2-4.7,0.3c-0.4,0.1-5,1.3-12.6,6.7c0,0-2.4,1.7-5.6,4.4c-0.9,0.7-6.5,5.7-7.4,6.6
		c-1.5,1.6-1.4,3.5-1.6,7c-0.2,3.1,0.2,3.8-1,9.1c-1,4.5-0.4,11.7-0.4,11.7c0.2,2.8,0.5,2.9,0.5,2.9s0.5,0,0.8,0.3
		c0.3,0.2,0.3,0.3,0.4,0.4l0.3,0.3l3.8,3.8v7.5h1.6v-8.1c0-3,0.9-5.7,2.5-8v-9.6c0,0,0-1.5,2.3-3.1c2.3-1.6,4.9-2.9,7.4-3.9
		c1.7-0.7,3.5-1,5.4-1c3.7,0,5.8,0.6,9.3,0.5c4.8-0.2,14.1-2,14.1-2c6.3,5.2,12.4,3.8,12.4,9.9v9.3c1.6,2.2,2.5,5,2.5,8v8.1h1.6
		v-7.5l4.2-4.2l0,0c0,0,0.1-0.1,0.1-0.1c0.4-0.3,0.8-0.4,1.4-0.4c0.1,0,0.2,0,0.3,0C93.3,50.7,93.1,48.8,92.8,47.4z"/>
</g>
</svg>
