<?xml version="1.0" encoding="utf-8"?>
<!-- Generator: Adobe Illustrator 21.1.0, SVG Export Plug-In . SVG Version: 6.00 Build 0)  -->
<svg version="1.1" id="Capa_1" xmlns="http://www.w3.org/2000/svg" xmlns:xlink="http://www.w3.org/1999/xlink" x="0px" y="0px"
	 viewBox="0 0 113.4 113.4" style="enable-background:new 0 0 113.4 113.4;" xml:space="preserve">
<style type="text/css">
	.st0{fill:#FFC7AC;}
	.st1{fill:#FF9276;}
	.st2{fill:#201717;}
	.st3{fill:#FFA688;}
	.st4{fill:#FF7389;}
	.st5{fill:#1D1D1B;}
	.st6{fill:#AC8B79;}
	.st7{fill:#221717;}
</style>
<g id="Doc">
	<path class="st0" d="M57.2,4.2c-20.2,0-36.6,14-36.6,31.3v30l3.7,6.6h0.1v2c0,0,0,7.8,5.8,13.9c5.1,5.4,12.1,11.9,17.5,14.8
		c0.4,0.2,0.8,0.3,1.2,0.3h16.6c0.4,0,0.9-0.1,1.2-0.3C72,100,79.1,93.4,84.2,88C90,81.9,90,74.1,90,74.1v-2h0.1l3.7-6.6v-30
		C93.8,18.3,77.4,4.2,57.2,4.2z"/>
	<g id="Ojos_5_">
		<path class="st1" d="M28.4,50.6c1.2,1.4,3.5,5,7.3,4.9s13.5,0,14.3,0s1.9,0.9,2.2,2.5c0.2,1.5,0.9,7.4,0.9,7.4h0.7V46.8l-22.1-1.5
			L28.4,50.6z M82.7,45.4l-22.1,1.5v18.5h0.7c0,0,0.6-5.9,0.9-7.4c0.2-1.5,1.3-2.5,2.2-2.5c0.8,0,10.5-0.1,14.3,0
			c3.8,0.1,6.1-3.5,7.3-4.9L82.7,45.4z"/>
		<path class="st2" d="M35.9,50.3c-0.5,0.1-2.8,0.8-3.4,4.4l1.4,0.2c0.4-2.4,1.7-3.2,2.3-3.3c0.1,0,0.6,0,1.4-0.1v2
			c0,0.3,0.2,0.5,0.5,0.5h7.8c0.3,0,0.5-0.2,0.5-0.5v-2.1c1.8,0,3.2,0,3.2,0l0-1.2C49.4,50.3,36.4,50.2,35.9,50.3z M78.5,50.3
			c-0.5-0.1-13.6,0-13.6,0l0,1.2c0,0,1.3,0,3.2,0v2.1c0,0.3,0.2,0.5,0.5,0.5h7.8c0.3,0,0.5-0.2,0.5-0.5v-2c0.8,0,1.3,0,1.4,0.1
			c0.5,0.1,1.9,0.9,2.3,3.3l1.4-0.2C81.2,51.1,79,50.4,78.5,50.3z"/>
	</g>
	<g id="Oreja_der_10_">
		<polygon class="st3" points="24.3,66.7 19.3,66.7 19.3,52.7 23,52.7 23,65.8 		"/>
		<path class="st0" d="M24.7,61c-0.2,0-0.4,0-0.6,0.1c0,0,0,0,0,0c-1.3,0.3-2.3,1.3-2.3,2.6c0,1.6,0.8,2.3,1.7,2.6
			c-0.3,0.1-1.1,0.3-2.1-0.2c-1.3-0.7-1.6-2.1-1.7-3.4c0-1.3,0-9.6,0-9.6l3.4,3.4v-5.8c0,0-2.5-3.3-2.6-3.4
			c-0.3-0.3-0.7-0.5-1.2-0.5c-0.9,0-1.7,0.7-1.7,1.7c0,0,0,14.7,0,14.8c0,0.3,0,2.1,0.8,3.6c0.7,1.2,3.5,4.9,5.2,6
			c0,0,0.3,0.3,0.9,0.3c0.5,0,0.9-0.2,1.2-0.6V61.2C25.4,61.1,25.1,61,24.7,61z"/>
		<path class="st1" d="M22.4,54.5c-0.4-0.5-2.2-2.7-2.3-2.8c-0.2-0.3-0.6-0.3-0.9-0.1c-0.3,0.2-0.3,0.6-0.1,0.9c0,0,1.9,2.3,2.3,2.7
			c0.3,0.3,0.4,0.8,0.4,2v5.8c0,0.1,0,0.1,0,0.2c0.1-0.8,0.6-1.4,1.3-1.8v-4.2C23.1,55.9,22.9,55.2,22.4,54.5z"/>
	</g>
	<g id="Oreja_izq_9_">
		<polygon class="st3" points="90,66.7 95.1,66.7 95.1,52.7 91.3,52.7 91.3,65.8 		"/>
		<path class="st0" d="M89.6,61c0.2,0,0.4,0,0.6,0.1c0,0,0,0,0,0c1.3,0.3,2.3,1.3,2.3,2.6c0,1.6-0.8,2.3-1.7,2.6
			c0.3,0.1,1.1,0.3,2.1-0.2c1.3-0.7,1.6-2.1,1.7-3.4s0-9.6,0-9.6l-3.4,3.4v-5.8c0,0,2.5-3.3,2.6-3.4c0.3-0.3,0.7-0.5,1.2-0.5
			c0.9,0,1.7,0.7,1.7,1.7c0,0,0,14.7,0,14.8c0,0.3,0,2.1-0.8,3.6c-0.7,1.2-3.5,4.9-5.2,6c0,0-0.3,0.3-0.9,0.3
			c-0.5,0-0.9-0.2-1.2-0.6V61.2C89,61.1,89.3,61,89.6,61z"/>
		<path class="st1" d="M92,54.5c0.4-0.5,2.2-2.7,2.3-2.8c0.2-0.3,0.6-0.3,0.9-0.1c0.3,0.2,0.3,0.6,0.1,0.9c0,0-1.9,2.3-2.3,2.7
			c-0.3,0.3-0.4,0.8-0.4,2v5.8c0,0.1,0,0.1,0,0.2c-0.1-0.8-0.6-1.4-1.3-1.8v-4.2C91.3,55.9,91.5,55.2,92,54.5z"/>
	</g>
	<g id="Boca_5_">
		<path class="st4" d="M48.9,86.7c0.8,0.8,2.1,1.7,3.3,1.7h10c1.2,0,2.5-0.9,3.3-1.7c0.6-0.6,1.7-2,2.3-2.7H46.6
			C47.2,84.7,48.3,86.1,48.9,86.7z M71.3,82.3c-0.4,0-5.2-0.4-6.7-0.8c-1.5-0.4-4.5-1.6-4.6-1.6c-0.1,0-0.2-0.1-0.5,0
			c-0.2,0.1-0.4,0.2-0.5,0.3c-0.7,0.5-1.5,0.5-1.8,0.5s-1.1,0-1.8-0.5c-0.2-0.1-0.3-0.3-0.5-0.3c-0.2-0.1-0.4,0-0.5,0
			c-0.1,0-3.1,1.2-4.6,1.6s-6.3,0.8-6.7,0.8c-0.6,0-0.8,1.3,0,1.6c0.1,0,28.2,0,28.3,0C72.1,83.7,71.9,82.4,71.3,82.3z"/>
		<path class="st5" d="M57.2,85c-2.5,0-3.5-1-3.9-1.4c-1,0.3-3.4,0.7-5.2,0.7c-2.8,0-5.2-0.4-5.2-0.4c-0.2,0-0.3-0.2-0.3-0.4
			c0-0.2,0.2-0.3,0.4-0.3c0,0,2.4,0.4,5.1,0.4c1.8,0,4.4-0.5,5.1-0.8c0.2-0.1,0.4,0.1,0.6,0.2c0.4,0.3,1.2,1.1,3.4,1.1
			c2.2,0,3-0.8,3.4-1.1c0.1-0.1,0.3-0.3,0.6-0.2c0.7,0.3,3.3,0.8,5.1,0.8c2.7,0,5.1-0.4,5.1-0.4c0.2,0,0.4,0.1,0.4,0.3
			c0,0.2-0.1,0.4-0.3,0.4c0,0-2.4,0.4-5.2,0.4c-1.8,0-4.2-0.4-5.2-0.7C60.7,84,59.7,85,57.2,85z"/>
	</g>
	<path class="st6" d="M77.8,9.7c5.6,4.2,9.3,11,9.3,18.6c0,2.7-0.5,5.3-1.3,7.7c-1,3.1-1.2,5.7-1.2,5.7c2.2,1.6,3.6,4.1,3.6,7.1
		v23.7c-2.1,5.3-7.5,10.6-12.9,12.2l0-6c0-1.3-1-2.1-2.3-2.3c-7.7-1-12.3-2.1-13.7-2.7H55c-1.4,0.6-6,1.7-13.7,2.7
		c-1.3,0.2-2.3,1-2.3,2.3l0,6c-5.4-1.7-10.8-6.9-12.9-12.2V48.7c0-2.9,1.4-5.5,3.6-7.1c0,0-0.1-2.6-1.2-5.7c-0.8-2.4-1.3-5-1.3-7.7
		c0-7.6,3.7-14.4,9.3-18.6c-9.6,5.6-16,15.1-16,25.9v11.9c0.3,0.4,2.8,3.6,3.8,4.9v21.7c0,0,0,7.8,5.8,13.9
		c5.1,5.4,12.1,11.9,17.5,14.8c0.4,0.2,0.8,0.3,1.2,0.3h16.6c0.4,0,0.9-0.1,1.2-0.3C72,100,79.1,93.4,84.2,88
		C90,81.9,90,74.1,90,74.1V52.4c1-1.3,3.5-4.6,3.8-4.9V35.6C93.8,24.8,87.4,15.3,77.8,9.7z M72.1,85.1c0,0.3-0.1,0.5-0.2,0.7
		c-0.7,0.8-2.2,2.7-2.7,3.2c-0.5,0.6-1.2,1.1-2,1.1H47.3c-0.9,0-1.6-0.5-2-1.1c-0.5-0.6-2-2.4-2.7-3.2c-0.2-0.2-0.2-0.4-0.2-0.7
		v-3.4c0-0.3,0.2-0.5,0.5-0.6l12.3-2.9c0.5,0.6,1.3,1,2.1,1c0.9,0,1.6-0.4,2.1-1l12.3,2.9c0.3,0.1,0.5,0.3,0.5,0.6V85.1z"/>
	<path class="st7" d="M52.1,43.3l-18.5-0.7c0,0-0.5-0.1-1.1,0.4s-3.6,4.4-4,7.7c0,0,2.3-2.8,3-3.5c0.7-0.7,0.6-1,2.2-1l20.2,0.7
		L52.1,43.3z M81.9,42.9c-0.6-0.5-1.1-0.4-1.1-0.4l-18.5,0.7l-1.7,3.6l20.2-0.7c1.5,0,1.5,0.3,2.2,1c0.7,0.7,3,3.5,3,3.5
		C85.5,47.3,82.5,43.4,81.9,42.9z M57.2,94.3c3,0,5.6-1.7,6.9-4.2H50.3C51.6,92.6,54.2,94.3,57.2,94.3z M65.5,103.2H48.9
		c-0.4,0-0.9-0.1-1.2-0.3c-3.7-2-8.1-5.7-12.2-9.6l0,0c-0.1,0.2,6.1,7,6.7,7.5s3.4,5,3.4,5l0,0c0.7,1.1,1.8,2,3.1,2.5l7.4,2.4
		c0.4,0.1,2,0.1,2.4,0l7.4-2.4c1.3-0.5,2.4-1.4,3.1-2.5l0,0c0,0,2.7-4.5,3.4-5c0.6-0.5,6.8-7.3,6.7-7.5c-4.1,3.9-8.6,7.6-12.2,9.6
		C66.4,103,65.9,103.2,65.5,103.2z"/>
	<g id="Nariz_9_">
		<path class="st3" d="M65.1,67.8c-1.3-0.5-1.4-0.8-2.4-1.8c-0.9-1-3.1-2.3-5.6-2.3c-2.5,0-4.7,1.3-5.6,2.3c-0.9,1-1.1,1.3-2.4,1.8
			c-1.3,0.5-2.1,1.2-2.1,2.7s1,2.3,2.5,2.7c1.2,0.3,1.8,0.2,2.3,0.2c0.5,0,1.3-0.1,2.4,0.1c1,0.2,1.7,0.6,2.9,0.6s1.9-0.4,2.9-0.6
			c1.1-0.2,1.9-0.2,2.4-0.1c0.5,0,1.1,0.2,2.3-0.2c1.5-0.4,2.5-1.2,2.5-2.7S66.4,68.3,65.1,67.8z"/>
		<rect x="53.8" y="46.8" class="st3" width="6.8" height="19.7"/>
		<ellipse class="st0" cx="57.2" cy="69.8" rx="3.8" ry="2"/>
		<path class="st2" d="M51.9,73c-0.1,0.4-0.8,0.5-1.6,0.3c-0.8-0.2-1.3-0.7-1.2-1.1c0.1-0.4,0.8-0.5,1.6-0.3
			C51.5,72.1,52,72.6,51.9,73z"/>
		<path class="st2" d="M62.5,73c0.1,0.4,0.8,0.5,1.6,0.3c0.8-0.2,1.3-0.7,1.2-1.1c-0.1-0.4-0.8-0.5-1.6-0.3
			C62.9,72.1,62.3,72.6,62.5,73z"/>
	</g>
</g>
</svg>
