<?xml version="1.0" encoding="utf-8"?>
<!-- Generator: Adobe Illustrator 21.1.0, SVG Export Plug-In . SVG Version: 6.00 Build 0)  -->
<svg version="1.1" id="Capa_1" xmlns="http://www.w3.org/2000/svg" xmlns:xlink="http://www.w3.org/1999/xlink" x="0px" y="0px"
	 viewBox="0 0 113.4 113.4" style="enable-background:new 0 0 113.4 113.4;" xml:space="preserve">
<style type="text/css">
	.st0{fill:#FFCCAF;}
	.st1{fill:#FF7389;}
	.st2{fill:#7D3444;}
	.st3{fill:#FFFFFF;}
	.st4{fill:#FF9276;}
	.st5{fill:#261818;}
	.st6{fill:#FFA688;}
	.st7{fill:#FFC7AC;}
	.st8{fill:#FF9573;}
	.st9{fill:#201717;}
</style>
<g id="Facu">
	<path class="st0" d="M83.4,81.3c0,3.9-1.9,7.5-3.7,9.7c-2,2.4-5.2,5.4-8.1,8.3c-1.9,1.9-4.4,3.5-6.7,4.5l0.1-2.8c0,0,0-0.2,0-0.2
		c0,0-0.1-0.1-0.3,0c-1.1,0.6-4.5,1-8.5,1v0c0,0,0,0,0,0c0,0,0,0,0,0v0c-4,0-7.5-0.4-8.5-1c-0.2-0.1-0.2,0-0.3,0
		c-0.1,0.1,0,0.2,0,0.2l0.1,2.3c-2-1-4.1-2.4-5.7-4c-2.9-2.9-6.2-5.9-8.1-8.3c-1.7-2.2-3.6-5.8-3.7-9.7V59.8c0-2.2,1.1-4.1,2.8-5.2
		v-6.7c5.2-0.1,9.8-2.2,13.3-5.5c-0.6,2.1-1.7,4-3.2,5.5c0.1,0,0.3,0,0.4,0c5,0,9.2-3.1,11-7.4c1.7,1,2.8,2.8,2.8,5
		c0,2.5-1.5,4.6-3.7,5.4c0.4,0,0.9,0.1,1.3,0.1c5.9,0,10.9-4,12.5-9.4c3.3,3.2,7.9,5.2,12.9,5.2c0.1,0,0.3,0,0.4,0v7.8
		c1.7,1.1,2.8,3,2.8,5.2V81.3z"/>
	<g id="boca">
		<path class="st1" d="M68,88c-0.5,0-3.8,0-4.8,0c-1,0-3.5-0.8-4.2-1c-0.7-0.2-0.7-0.1-1.1,0s-0.7,0.4-1.7,0.4
			c-1.1,0-1.4-0.2-1.7-0.4s-0.4-0.2-1.1,0c-0.7,0.2-3.1,1-4.2,1c-1,0-4.3,0-4.8,0c-0.5,0-0.7,0.4-0.6,1c0.1,0.6,1.2,2.4,4.4,4.3
			c2.6,1.5,5.2,1.7,8,1.7s5.4-0.3,8-1.7c3.2-1.8,4.3-3.7,4.4-4.3C68.7,88.5,68.5,88,68,88z"/>
		<path class="st2" d="M67.9,89.2H44.4c0,0-0.3,0.2,0.5,0.4c0.8,0.2,1.5,0.5,3.2,1c1.7,0.5,2.5,1.3,8.1,1.3l0,0h0l0,0
			c5.6,0,6.4-0.8,8.1-1.3c1.7-0.5,2.5-0.8,3.2-1S67.9,89.2,67.9,89.2z"/>
		<path class="st3" d="M47,89.2c1.3,1.5,4.9,2.7,9.1,2.7s7.8-1.1,9.1-2.7H47z"/>
		<path class="st4" d="M64.9,77.3c4.1,6.1,6.7,4.9,6.7,4.9L64.9,77.3z M47.2,77.3l-6.7,4.9C40.5,82.2,43.1,83.4,47.2,77.3z"/>
		<path class="st5" d="M52.9,83.1l-3.8,1.3h-7.4c-1,0-1.7,0.8-1.7,1.7v2.8c0,1,0.8,1.7,1.7,1.7s1.7-0.8,1.7-1.7v-1h5.9
			c0.2,0,0.4,0,0.6-0.1l4.1-1.4c0.9-0.3,1.4-1.3,1.1-2.2C54.8,83.2,53.8,82.7,52.9,83.1z M70.6,84.4h-7.4l-3.8-1.3
			c-0.9-0.3-1.9,0.2-2.2,1.1c-0.3,0.9,0.2,1.9,1.1,2.2l4.1,1.4c0.2,0.1,0.4,0.1,0.6,0.1h5.9v1c0,1,0.8,1.7,1.7,1.7
			c1,0,1.7-0.8,1.7-1.7v-2.8C72.3,85.2,71.6,84.4,70.6,84.4z"/>
		<path class="st5" d="M50.1,95.8c1.4,1.3,3.6,2.1,6.1,2.1c2.5,0,4.7-0.8,6.1-2.1H50.1z"/>
	</g>
	<g id="Oreja_der">
		<polygon class="st6" points="84.5,76.7 88.8,76.7 88.8,63.5 85.6,63.5 85.6,75.8 		"/>
		<path class="st7" d="M90.3,59.4c0-0.9-0.6-1.6-1.4-1.6c-0.4,0-0.8,0.2-1,0.5c-0.1,0.1-0.1,0.2-0.2,0.3l-2.2,3.3v9.8
			c-0.2-0.1-0.4-0.2-0.7-0.3c0,0,0,0,0,0c-0.2,0-0.3-0.1-0.5-0.1c-0.3,0-0.6,0.1-0.8,0.2V82c0.2,0.3,0.6,0.6,1,0.6
			c0.5,0,0.7-0.2,0.7-0.3c1.5-1,3.8-4.5,4.4-5.6c0.7-1.3,0.7-3.1,0.7-3.3C90.3,73.3,90.3,59.4,90.3,59.4z M88.5,72.9
			c0,1.2-0.3,2.5-1.4,3.2c-0.9,0.5-1.5,0.3-1.8,0.2c0.8-0.3,1.4-1,1.4-2.4c0-0.8-0.4-1.5-1-2v-5.2l2.8-2.8
			C88.5,63.9,88.6,71.7,88.5,72.9z"/>
		<path class="st4" d="M86.2,65.2c0.3-0.5,1.9-2.5,2-2.6c0.2-0.3,0.6-0.3,0.8-0.1c0.2,0.2,0.3,0.6,0.1,0.9c0,0-1.6,2.1-1.9,2.6
			c-0.2,0.3-0.3,0.7-0.3,1.9v5.4c0,0.1,0,0.1,0,0.2c-0.1-0.7-0.5-1.3-1.1-1.7v-3.9C85.6,66.5,85.7,65.8,86.2,65.2z"/>
	</g>
	<g id="Oreja_izq">
		<polygon class="st6" points="28.7,76.7 24.5,76.7 24.5,63.5 27.6,63.5 27.6,75.8 		"/>
		<path class="st7" d="M22.9,73.4c0,0.2,0,2,0.7,3.3c0.6,1.1,3,4.6,4.4,5.6c0,0,0.3,0.3,0.7,0.3c0.4,0,0.8-0.2,1-0.6V71.5
			c-0.3-0.1-0.5-0.2-0.8-0.2c-0.2,0-0.4,0-0.5,0.1c0,0,0,0,0,0c-0.2,0.1-0.4,0.2-0.7,0.3v-9.8l-2.2-3.3c-0.1-0.1-0.1-0.2-0.2-0.3
			c-0.3-0.3-0.6-0.5-1-0.5c-0.8,0-1.4,0.7-1.4,1.6C22.9,59.4,22.9,73.3,22.9,73.4z M24.7,63.9l2.8,2.8v5.2c-0.6,0.5-1,1.1-1,2
			c0,1.5,0.7,2.1,1.4,2.4c-0.3,0.1-0.9,0.3-1.8-0.2c-1.1-0.6-1.4-2-1.4-3.2C24.7,71.7,24.7,63.9,24.7,63.9z"/>
		<path class="st4" d="M27.1,65.2c-0.3-0.5-1.9-2.5-2-2.6c-0.2-0.3-0.6-0.3-0.8-0.1c-0.2,0.2-0.3,0.6-0.1,0.9c0,0,1.6,2.1,1.9,2.6
			c0.2,0.3,0.3,0.7,0.3,1.9v5.4c0,0.1,0,0.1,0,0.2c0.1-0.7,0.5-1.3,1.1-1.7v-3.9C27.7,66.5,27.5,65.8,27.1,65.2z"/>
	</g>
	<g id="Ojos_1_">
		<path class="st8" d="M34.3,61c0,0-1.1,1.2-1.4,1.6c-0.2,0.4,0.8,1.4,1.5,2.2c0.7,0.8,1.4,1.6,1.8,1.7s12.4,0,13.3,0s1.7,0.9,2,2.4
			s0.9,5.9,0.8,6.3h1.5l-1-15.3C52.9,59.8,37.8,56.8,34.3,61z M79.4,62.5c-0.2-0.4-1.4-1.6-1.4-1.6c-3.6-4.2-18.6-1.2-18.6-1.2
			l-1,15.3H60c0-0.3,0.4-4.7,0.8-6.3s1.2-2.4,2-2.4s12.9,0,13.3,0s1.1-0.9,1.8-1.7C78.7,63.9,79.7,62.9,79.4,62.5z"/>
		<path class="st5" d="M51.3,57.3c-0.3-0.3-0.6-0.7-0.9-0.7c-0.4,0-9.6-0.6-10.9-0.6c-1.2-0.1-1.6,0-1.9,0.3
			c-0.2,0.2-3.6,2.7-4.4,3.3c-0.1,0-0.1,0.1-0.2,0.1c0,0,0,0,0,0l0,0c-0.2,0.2-0.4,0.5-0.4,0.8c0,0.6,0.5,1.1,1.1,1.1
			c0.3,0,0.5-0.1,0.7-0.2l0,0c0,0,0.7-0.6,1.4-1c0.7-0.4,3.2-1,4.9-1c1.8,0,12,0.6,12,0.6s0-0.6-0.1-0.8
			C52.6,58.8,51.6,57.6,51.3,57.3z M48.7,61.7c-2.2-0.8-5.7-0.8-7.5-0.6c-2.3,0.3-3.1,0.8-3.9,1.9c-0.8,1.1-0.6,1.6-0.6,1.6l1.3-0.3
			c0.2-0.3,0.6-1,1.3-1.3c0.3-0.1,0.7-0.2,1.4-0.2c0,0.1,0,0.2,0,0.3c0,1.4,0.8,1.7,2.2,1.7h1.9c1.4,0,2.3-0.4,2.3-1.7
			c0-0.1,0-0.3,0-0.4c0.6,0,1.1,0.1,1.5,0.2c0.9,0.3,1.2,0.2,1.3-0.2C49.9,62.4,49.3,61.9,48.7,61.7z M79.2,59.6L79.2,59.6
			C79.2,59.6,79.2,59.6,79.2,59.6c-0.1,0-0.1-0.1-0.2-0.1c-0.8-0.6-4.1-3-4.4-3.3C74.4,56,74,55.9,72.8,56
			c-1.2,0.1-10.4,0.6-10.9,0.6c-0.2,0-0.6,0.4-0.9,0.7c-0.3,0.3-1.3,1.4-1.4,1.6c-0.1,0.2-0.1,0.8-0.1,0.8s10.2-0.6,12-0.6
			c1.8,0,4.2,0.6,4.9,1s1.4,1,1.4,1l0,0c0.2,0.1,0.4,0.2,0.7,0.2c0.6,0,1.1-0.5,1.1-1.1C79.6,60.1,79.4,59.8,79.2,59.6z M71.1,61.2
			c-1.9-0.2-5.3-0.3-7.5,0.6c-0.6,0.2-1.2,0.7-1.1,1.1c0.1,0.4,0.4,0.5,1.3,0.2c0.4-0.1,0.9-0.2,1.5-0.2c0,0.1,0,0.2,0,0.4
			c0,1.4,1,1.7,2.3,1.7h1.9c1.4,0,2.2-0.4,2.2-1.7c0-0.1,0-0.2,0-0.3c0.7,0,1,0.1,1.4,0.2c0.6,0.3,1.1,0.9,1.3,1.3l1.3,0.3
			c0,0,0.1-0.5-0.6-1.6C74.2,62,73.4,61.4,71.1,61.2z"/>
	</g>
	<g id="Nariz_4_">
		<path class="st6" d="M62.9,77.2c-1.1-0.4-1.2-0.7-2-1.5c-0.8-0.8-2.6-1.9-4.7-1.9c-2.1,0-4,1.1-4.7,1.9c-0.8,0.8-0.9,1.1-2,1.5
			s-1.8,1-1.8,2.2s0.9,1.9,2.1,2.2c1,0.3,1.6,0.2,2,0.2c0.4,0,1.1-0.1,2,0.1c0.8,0.2,1.4,0.5,2.4,0.5s1.6-0.3,2.4-0.5
			c0.9-0.2,1.6-0.2,2-0.1c0.4,0,0.9,0.1,2-0.2c1.3-0.3,2.1-1,2.1-2.2S63.9,77.6,62.9,77.2z"/>
		<polygon class="st6" points="52.9,59.8 53.9,76.4 58.5,76.4 59.5,59.8 		"/>
		<ellipse class="st7" cx="56.2" cy="78.9" rx="3.2" ry="1.6"/>
		<path class="st9" d="M63.1,80.9c-0.1-0.3-0.7-0.4-1.4-0.3c-0.7,0.2-1.1,0.6-1,0.9c0.1,0.3,0.7,0.4,1.4,0.3
			C62.7,81.6,63.2,81.2,63.1,80.9z M50.7,80.6c-0.7-0.2-1.3-0.1-1.4,0.3c-0.1,0.3,0.4,0.7,1,0.9c0.7,0.2,1.3,0.1,1.4-0.3
			C51.8,81.2,51.3,80.8,50.7,80.6z"/>
	</g>
	<path class="st5" d="M91.5,56c-0.3-0.6-0.6-1.3-0.7-1.9c-0.1-1.2,0.3-2.2,0.7-3.2c0-0.1,0.1-0.1,0.1-0.2c0.9-1.9,1.4-4,1.4-6.3
		c0-2.7-0.7-5.2-2-7.3c-0.1-0.2-0.2-0.3-0.3-0.5c-0.5-0.9-1.1-2-1-3.1c0.1-0.8,0.3-1.4,0.5-1.8c0.1-0.1,0.1-0.3,0.2-0.4
		c0.1-0.4,0.3-0.7,0.3-1.1c0,0,0-0.1,0-0.1c0-0.1,0-0.2,0-0.3c0-0.6-0.1-1.1-0.3-1.7c0,0,0,0,0-0.1c-0.4-1.2-1-2.1-1.6-3.3
		c0,0,0,0,0,0c0,0,0,0,0,0c0,0,0,0,0,0c-0.5-1-1.4-1.8-2.5-2.2c-0.2-0.1-1.2-0.3-1.3-0.4c-1.4-0.4-2.3-1.6-2.8-3
		c-0.8-1.9-1.2-2.5-3.1-4.5c-3.6-3.9-9.3-5.7-14.7-6.7c-5.4-0.9-4.9-4.5-4.9-4.5c-4.4,1-5.7,5.7-5.7,5.7s-9.9-2.5-12.1-2
		c0,0,0,0,0,0c-1.8,0.2-3.3,1.5-3.9,3.1c-0.3,0.8-0.6,1.7-0.7,2.8c-0.2,2.2-2.3,2.2-4.3,2.8c-0.1,0-0.2,0.1-0.3,0.1
		c-0.1,0-0.1,0-0.2,0.1c-0.1,0-0.2,0.1-0.3,0.1c0,0,0,0,0,0c0,0,0,0,0,0c-1.4,0.6-2.5,1.7-3.2,3.1c0,0,0,0,0,0
		c-0.6,1.1-0.8,2.5-1.2,3.8c-0.2,0.5-0.5,1.2-1.8,1.9c-0.1,0-0.1,0.1-0.2,0.1c-0.2,0.1-0.4,0.3-0.6,0.4c-0.1,0.1-0.2,0.1-0.2,0.2
		c-0.8,0.6-1.6,1.4-2.2,2.2c-0.1,0.1-0.1,0.2-0.2,0.2c-0.1,0.1-0.2,0.2-0.2,0.3c-0.7,1.1-1.3,2.3-1.5,3.3C20,32.8,20,34,20.1,35
		c0,0,0,0.1,0,0.1c0,0.2,0,0.3,0.1,0.5c0.1,0.7,0.3,1.4,0.5,2c0.2,0.7,0.5,1.3,0.6,1.9c0.3,1.2,0.5,2.2,0.2,3
		c-0.3,1.1-0.8,1.5-1.4,2.8c-0.1,0.3-0.3,0.5-0.4,0.8c0,0,0,0,0,0c0,0,0,0,0,0.1c-0.3,0.7-0.4,1.5-0.4,2.3c0,1.5,0.5,2.9,1.4,4.1
		c-0.1,0.6-0.2,1.2-0.2,1.8c0,4.8,3.1,9.1,7.3,11v16.5h0c0,4.2,1.6,7.9,4.1,10.8l0,0c0,0,4.4,4.9,6.6,7.3c2.6,2.8,6.5,6.2,6.5,6.2
		l0,0c1.6,1.4,3.7,2.3,6,2.3h11.1c2.3,0,4.4-0.9,6-2.3l0,0c0,0,3.9-3.4,6.5-6.2c2.2-2.4,6.6-7.3,6.6-7.3l0,0
		c2.5-2.9,4.1-6.7,4.1-10.8h0V65.6c0,0,3.2-0.6,5.4-2.8c0.1-0.1,0.1-0.1,0.2-0.2c0,0,0,0,0,0c0,0,0,0,0-0.1c0.9-0.9,1.4-2.2,1.4-3.5
		c0-1-0.3-1.9-0.8-2.7C91.6,56.2,91.5,56,91.5,56z M83.4,81.3c0,3.9-1.9,7.5-3.7,9.7c-2,2.4-5.2,5.4-8.1,8.3
		c-1.9,1.9-4.4,3.5-6.7,4.5l0.1-2.8c0,0,0-0.2,0-0.2c0,0-0.1-0.1-0.3,0c-1.1,0.6-4.5,1-8.5,1v0c0,0,0,0,0,0c0,0,0,0,0,0v0
		c-4,0-7.5-0.4-8.5-1c-0.2-0.1-0.2,0-0.3,0c-0.1,0.1,0,0.2,0,0.2l0.1,2.3c-2-1-4.1-2.4-5.7-4c-2.9-2.9-6.2-5.9-8.1-8.3
		c-1.7-2.2-3.6-5.8-3.7-9.7V59.8c0-2.2,1.1-4.1,2.8-5.2v-6.7c5.2-0.1,9.8-2.2,13.3-5.5c-0.6,2.1-1.7,4-3.2,5.5c0.1,0,0.3,0,0.4,0
		c5,0,9.2-3.1,11-7.4c1.7,1,2.8,2.8,2.8,5c0,2.5-1.5,4.6-3.7,5.4c0.4,0,0.9,0.1,1.3,0.1c5.9,0,10.9-4,12.5-9.4
		c3.3,3.2,7.9,5.2,12.9,5.2c0.1,0,0.3,0,0.4,0v7.8c1.7,1.1,2.8,3,2.8,5.2V81.3z"/>
</g>
</svg>
