<?xml version="1.0" encoding="utf-8"?>
<!-- Generator: Adobe Illustrator 21.1.0, SVG Export Plug-In . SVG Version: 6.00 Build 0)  -->
<svg version="1.1" id="Capa_1" xmlns="http://www.w3.org/2000/svg" xmlns:xlink="http://www.w3.org/1999/xlink" x="0px" y="0px"
	 viewBox="0 0 113.4 113.4" style="enable-background:new 0 0 113.4 113.4;" xml:space="preserve">
<style type="text/css">
	.st0{fill:#FFC7AC;}
	.st1{fill:#FF9276;}
	.st2{fill:#261818;}
	.st3{fill:#FFA688;}
	.st4{fill:#794638;}
	.st5{fill:#201717;}
	.st6{fill:#FF7389;}
	.st7{fill:#7D3444;}
	.st8{fill:#FFFFFF;}
</style>
<g id="Laski">
	<path class="st0" d="M30.1,29.2l0,22.5l-6.3-0.2l0,13.7l6.3,8.5c0,15.2,12.3,27.5,27.5,27.5c15.2,0,27.5-12.3,27.5-27.5l5.5-7.7
		l0-15.3L85,52.1l0-22.9L30.1,29.2z"/>
	<g id="Ojos_4_">
		<path class="st1" d="M34.3,54c0,0-0.6,1.7,0,2.7c0.6,1,1.7,2.5,3.3,3.3c1.1,0.5,4.9,1.7,7,1.6c4.4-0.2,5.4-2,6.7-1.2
			c1.6,1,3.3,5.3,3.1,9.9h0.5l0-17.7C54.9,52.6,36.2,47.9,34.3,54z M80.6,54c-7-7.3-20.6-1.4-20.6-1.4l0,17.7h0.5
			c-0.2-4.7,1.5-9,3.1-9.9c1.3-0.8,2.3,1,6.7,1.2c2.1,0.1,6-1.1,7-1.6c1.6-0.8,2.7-2.3,3.3-3.3C81.2,55.7,80.6,54,80.6,54z"/>
		<path class="st2" d="M50.3,54.7c-2.5-0.9-6.2-0.9-8.3-0.7c-2.6,0.3-3.4,0.8-4.3,2c-0.9,1.1-0.7,1.7-0.7,1.7l1.5-0.3
			c0.2-0.4,0.7-1.1,1.4-1.3c0.4-0.1,0.8-0.2,1.5-0.2c0,0.1,0,0.2,0,0.3c0,1.5,0.9,1.6,2.4,1.7l2.1,0c1.5,0,2.6-0.1,2.6-1.6
			c0-0.1,0-0.3,0-0.4c0.7,0,1.2,0.1,1.6,0.3c1,0.3,1.3,0.3,1.4-0.2C51.6,55.5,50.9,54.9,50.3,54.7z M77.2,55.9
			c-0.9-1.1-1.7-1.7-4.3-2c-2-0.2-5.8-0.2-8.3,0.7c-0.6,0.2-1.3,0.8-1.2,1.2c0.1,0.4,0.4,0.5,1.4,0.2c0.4-0.1,1-0.2,1.6-0.3
			c0,0.1,0,0.3,0,0.4c0,1.5,1.1,1.6,2.6,1.6l2.1,0c1.5,0,2.4-0.2,2.4-1.7c0-0.1,0-0.2,0-0.3c0.7,0,1.1,0.1,1.5,0.2
			c0.7,0.3,1.2,1,1.4,1.3l1.5,0.3C77.9,57.7,78,57.1,77.2,55.9z"/>
	</g>
	<g id="Oreja_der_7_">
		<polygon class="st3" points="28.9,67.2 24.8,67.2 24.8,53.7 27.8,53.7 27.8,66.3 		"/>
		<path class="st0" d="M29.2,61.7c-0.2,0-0.3,0-0.5,0.1c0,0,0,0,0,0c-1,0.3-1.9,1.3-1.9,2.5c0,1.5,0.6,2.2,1.4,2.5
			c-0.3,0.1-0.9,0.3-1.7-0.2c-1.1-0.6-1.3-2-1.4-3.2c0-1.2,0-9.2,0-9.2l2.8,3.2l0-5.6l-2-3c-0.1-0.1-0.1-0.2-0.2-0.3
			c-0.3-0.3-0.6-0.5-1-0.5c-0.8,0-1.4,0.7-1.4,1.6c0,0,0,14.2,0,14.3c0,0.3,0,2,0.7,3.4c0.6,1.2,2.8,4.7,4.3,5.7
			c0,0,0.3,0.3,0.7,0.3c0.4,0,0.8-0.2,1-0.6l0-10.8C29.7,61.8,29.5,61.7,29.2,61.7z"/>
		<path class="st1" d="M27.3,55.4c-0.3-0.5-1.8-2.6-1.9-2.7c-0.2-0.3-0.5-0.3-0.8-0.1c-0.2,0.2-0.3,0.6-0.1,0.9c0,0,1.6,2.2,1.9,2.6
			c0.2,0.3,0.3,0.7,0.3,2l0,5.6c0,0.1,0,0.1,0,0.2c0.1-0.7,0.5-1.3,1-1.7l0-4C27.9,56.8,27.7,56.1,27.3,55.4z"/>
	</g>
	<g id="Oreja_izq_5_">
		<polygon class="st3" points="86.1,67.2 90.2,67.2 90.2,53.7 87.2,53.7 87.2,66.3 		"/>
		<path class="st0" d="M85.8,61.7c0.2,0,0.3,0,0.5,0.1c0,0,0,0,0,0c1,0.3,1.9,1.3,1.9,2.5c0,1.5-0.6,2.2-1.4,2.5
			c0.3,0.1,0.9,0.3,1.7-0.2c1.1-0.6,1.3-2,1.4-3.2c0-1.2,0-9.2,0-9.2l-2.8,3.2v-5.6l2-3c0.1-0.1,0.1-0.2,0.2-0.3
			c0.3-0.3,0.6-0.5,1-0.5c0.8,0,1.4,0.7,1.4,1.6c0,0,0,14.2,0,14.3c0,0.3,0,2-0.7,3.4c-0.6,1.2-2.8,4.7-4.3,5.7c0,0-0.3,0.3-0.7,0.3
			c-0.4,0-0.8-0.2-1-0.6V61.9C85.2,61.8,85.5,61.7,85.8,61.7z"/>
		<path class="st1" d="M87.7,55.4c0.3-0.5,1.8-2.6,1.9-2.7c0.2-0.3,0.5-0.3,0.8-0.1c0.2,0.2,0.3,0.6,0.1,0.9c0,0-1.6,2.2-1.9,2.6
			c-0.2,0.3-0.3,0.7-0.3,2v5.6c0,0.1,0,0.1,0,0.2c-0.1-0.7-0.5-1.3-1-1.7l0-4C87.1,56.8,87.3,56.1,87.7,55.4z"/>
	</g>
	<path id="pelo" class="st4" d="M88.8,16.6c-1.7-2.3-4.4-3.7-7.5-3.7c-0.8,0-1.4,0.1-2,0.1c-0.4,0.1-0.9,0.1-1.3,0.1
		c-0.8-0.2-1.2-0.7-1.5-1.4c-1.4-2.9-4.8-5.5-9.2-6.1c0,0-34-5.7-47.8,20l0,0c-1.7,2.9-2.7,6.2-2.7,9.8c0,2.4,0.5,4.7,1.3,6.8
		c1.7,1.9,3.9,3.6,5.2,8.8c0,0,3.3,3.8,5.5,4.1l0,17.6c0,0.8,0,1.1,0,1.9c0.4,12.7,7.2,26.7,17.8,34.1c2.1,1.5,4.7,2.4,7.4,2.4h6.8
		c2.7,0,5.3-0.9,7.4-2.4c10.6-7.4,17.5-21.5,17.8-34.1c0-0.8,0-1.1,0-1.9l0-6.7h0l0-10.9c0.8-2.1,2-3.9,3.4-5.7
		c1.4-1.7,3-3.2,4.5-4.5c0,0,1.1-3.3,1.3-5.8C95.9,31.5,92.6,21.1,88.8,16.6z M68.8,93.6c0,0.4-0.2,0.7-0.6,0.8l-3.9,1.4
		c-0.5,0.2-1.1,0-1.3-0.5l-1.7-2.7c-0.1-0.2-0.3-0.3-0.5-0.3l-6.5,0c-0.2,0-0.4,0.1-0.5,0.3L52,95.3c-0.3,0.4-0.8,0.6-1.3,0.5
		l-3.9-1.4c-0.4-0.1-0.6-0.5-0.6-0.8l0-8.7c0-0.3,0.2-0.5,0.5-0.5h21.6c0.3,0,0.5,0.2,0.5,0.5V93.6z M84,72.7c0,0,0,0.7-0.1,1.3
		c-0.1,0.4-0.7,2.3-1,3.1c-0.1,0.4-1.3,3.6-1.9,5.1c-0.5,1.2-1.4,2.6-2.2,3.5c-1.2,1.4-4.2,3-6.5,4.5v-6.4c0-0.4-0.2-0.8-0.5-1l0,0
		l-8.3-6.5l-11.9,0l-8.3,6.5l0,0c-0.3,0.2-0.5,0.6-0.5,1v6.4c-2.3-1.5-5.3-3.1-6.5-4.5c-0.8-0.8-1.7-2.2-2.2-3.5
		c-0.7-1.5-1.8-4.7-1.9-5.1c-0.3-0.8-0.9-2.7-1-3.1c-0.1-0.6-0.1-1.3-0.1-1.3l0-33.1c0-0.6,0.5-1.2,1.2-1.2h7.8
		C43.6,40,47.8,41,52.1,41c4.2,0,8.2-0.9,11.9-2.4c5.9-2.5,9.1-4.9,13.9-8v8c0,0.4,0.3,0.8,0.6,1l5.4,2.2l0,24.3h0V72.7z M53,48.4
		c-0.5-0.5-1-0.5-2.1-0.5c-1,0-5.2,0-6.5,0.1c-1.4,0.1-5.3,0.3-6,0.6c-0.6,0.3-2.2,1.3-3.3,2.2c-1.1,0.9-1.6,1.3-1.6,1.8
		c-0.1,0.5,0.3,0.5,0.8,0.6c0.5,0.1,1.4-0.3,2.9-0.9c1.5-0.5,3.3-1,4-0.9c0.7,0.1,13.6,1.1,13.7,1.1c0.1,0,0-2,0-2
		C54.7,50.2,53.6,49,53,48.4z M79.8,50.8c-1-0.9-2.6-1.9-3.3-2.2c-0.6-0.3-4.6-0.6-6-0.6c-1.4-0.1-5.5-0.1-6.5-0.1
		c-1,0-1.6,0-2.1,0.5c-0.6,0.6-1.8,1.8-1.9,2.2c0,0-0.1,2,0,2c0.1,0,13-1.1,13.7-1.1c0.7-0.1,2.4,0.4,4,0.9c1.5,0.5,2.4,0.9,2.9,0.9
		c0.5-0.1,0.8-0.1,0.8-0.6C81.4,52.1,80.9,51.7,79.8,50.8z"/>
	<g id="Nariz_6_">
		<path class="st3" d="M64.3,71.6c-1.1-0.4-1.3-0.7-2-1.6c-0.8-0.9-2.7-2.1-4.8-2.1c-2.2,0-4.1,1.2-4.8,2.1c-0.8,0.9-1,1.2-2,1.6
			c-1.1,0.4-1.8,1.1-1.8,2.5c0,1.4,0.9,2.1,2.2,2.5c1.1,0.3,1.6,0.2,2,0.2c0.4,0,0.9-0.2,1.7,0.1c0.8,0.3,1,1.4,2.9,1.4
			c2.1,0,2.2-1,3-1.3c0.8-0.3,1.1-0.2,1.5-0.1s0.9,0.1,2-0.2c1.3-0.4,2.2-1.1,2.2-2.5S65.4,72.1,64.3,71.6z"/>
		<path class="st5" d="M51.8,75.3c-0.7-0.2-1.3-0.1-1.4,0.3c-0.1,0.3,0.4,0.8,1.1,1c0.7,0.2,1.3,0.1,1.4-0.3
			C53,76,52.5,75.5,51.8,75.3z M64.5,75.6c-0.1-0.3-0.7-0.5-1.4-0.3c-0.7,0.2-1.2,0.6-1.1,1c0.1,0.3,0.7,0.5,1.4,0.3
			C64.1,76.4,64.6,76,64.5,75.6z"/>
		<rect x="54.9" y="52.6" class="st3" width="5.1" height="19.3"/>
		<ellipse class="st0" cx="57.5" cy="75.2" rx="2.2" ry="1.5"/>
	</g>
	<g id="Boca_3_">
		<path class="st6" d="M68.2,84.2c-0.5,0-3.5,0-4.4,0c-0.9,0-3.2-2-3.8-2.3c-0.6-0.2-0.7-0.2-1,0s-0.6,0.5-1.6,0.5
			c-1,0-1.2-0.3-1.6-0.5s-0.4-0.2-1,0c-0.6,0.2-2.8,2.2-3.8,2.3c-0.9,0-3.9,0-4.4,0c-0.5,0-0.6,0.6-0.5,1.2c0.1,0.7,1.1,1.9,4,4.2
			c2.4,1.8,4.8,2.2,7.3,2.2s4.9-0.3,7.3-2.2c2.9-2.3,3.9-3.5,4-4.2C68.8,84.7,68.7,84.2,68.2,84.2z"/>
		<path class="st7" d="M68.1,85.7l-21.3,0c0,0-0.3,0.2,0.4,0.4c0.7,0.2,1.4,0.6,2.9,1.2c1.5,0.7,2.3,1.6,7.3,1.6l0,0h0l0,0
			c5,0,5.8-1,7.3-1.6c1.5-0.7,2.2-1,2.9-1.2C68.4,85.9,68.1,85.7,68.1,85.7z"/>
		<path class="st8" d="M49.2,85.7c1.2,1.9,4.4,3.3,8.3,3.3s7.1-1.4,8.3-3.3L49.2,85.7z"/>
		<path class="st1" d="M66.9,73c3.9,8.4,7.4,7.4,7.4,7.4L66.9,73z M48.1,73l-7.4,7.4C40.7,80.4,44.2,81.4,48.1,73z"/>
	</g>
</g>
</svg>
