<?xml version="1.0" encoding="utf-8"?>
<!-- Generator: Adobe Illustrator 21.1.0, SVG Export Plug-In . SVG Version: 6.00 Build 0)  -->
<svg version="1.1" id="Capa_1" xmlns="http://www.w3.org/2000/svg" xmlns:xlink="http://www.w3.org/1999/xlink" x="0px" y="0px"
	 viewBox="0 0 113.4 113.4" style="enable-background:new 0 0 113.4 113.4;" xml:space="preserve">
<style type="text/css">
	.st0{fill:#FFC7AC;}
	.st1{fill:#FF7389;}
	.st2{fill:#7D3444;}
	.st3{fill:#FFFFFF;}
	.st4{fill:#FFA688;}
	.st5{fill:#FF9276;}
	.st6{fill:#261818;}
	.st7{fill:#201717;}
	.st8{fill:#AC8B79;}
	.st9{fill:#352727;}
</style>
<g id="Lucas">
	<polygon class="st0" points="83.5,25.8 26,25.8 21.3,70.9 49.1,111 60.5,111 89.5,72.2 	"/>
	<g id="boca_1_">
		<path class="st1" d="M68.2,88.3c-0.5,0-3.9,0-5,0c-1.1,0-3.6-1-4.3-1.2c-0.7-0.2-0.8-0.2-1.1,0c-0.4,0.2-0.7,0.5-1.8,0.5v0
			c0,0,0,0,0,0c0,0,0,0,0,0v0c-1.1,0-1.4-0.3-1.8-0.5c-0.4-0.2-0.5-0.2-1.1,0c-0.7,0.2-3.2,1.2-4.3,1.2c-1.1,0-4.5,0-5,0
			c-0.5,0-0.7,0.5-0.6,1.2c0.1,0.7,1.7,2.3,5,4.5c2.7,1.8,4.9,2.9,7.8,2.9c0,0,0,0,0,0c0,0,0,0,0,0c2.9,0,5.1-1.1,7.8-2.9
			c3.3-2.3,5-3.8,5-4.5C68.9,88.9,68.7,88.3,68.2,88.3z"/>
		<path class="st2" d="M68.1,89.8H43.8c0,0-0.3,0.2,0.5,0.4c0.8,0.2,1.6,0.6,3.3,1.2c1.7,0.7,2.6,1.6,8.3,1.6l0,0h0l0,0
			c5.7,0,6.6-0.9,8.3-1.6c1.8-0.7,2.5-1,3.3-1.2C68.4,90,68.1,89.8,68.1,89.8z"/>
		<path class="st3" d="M46.6,89.8c1.3,1.9,5,3.3,9.4,3.3s8.1-1.4,9.4-3.3H46.6z"/>
	</g>
	<g id="Oreja_izq_14_">
		<polygon class="st4" points="25.9,74.8 21.2,74.8 21.2,61.4 24.7,61.4 24.7,73.9 		"/>
		<path class="st0" d="M26.3,69.3c-0.2,0-0.4,0-0.6,0.1c0,0,0,0,0,0c-1.2,0.3-2.2,1.2-2.2,2.5c0,1.5,0.7,2.2,1.5,2.5
			c-0.3,0.1-1,0.3-2-0.2c-1.2-0.6-1.5-2-1.6-3.2c0-1.2,0-9.2,0-9.2l3.2,3.2v-5.6l-2.2-3c-0.1-0.1-0.1-0.2-0.2-0.3
			c-0.3-0.3-0.7-0.5-1.1-0.5c-0.9,0-1.6,0.7-1.6,1.6c0,0,0,14.1,0,14.2c0,0.3,0,2,0.8,3.4c0.7,1.1,3.3,4.7,4.9,5.7
			c0,0,0.3,0.3,0.8,0.3c0.5,0,0.9-0.2,1.1-0.6V69.5C26.9,69.4,26.6,69.3,26.3,69.3z"/>
		<path class="st5" d="M24.1,63.1c-0.4-0.5-2.1-2.6-2.2-2.7c-0.2-0.3-0.6-0.3-0.9-0.1c-0.3,0.2-0.3,0.6-0.1,0.9c0,0,1.8,2.2,2.1,2.6
			c0.2,0.3,0.4,0.7,0.4,2v5.5c0,0.1,0,0.1,0,0.2c0.1-0.7,0.6-1.3,1.2-1.7v-4C24.8,64.4,24.6,63.7,24.1,63.1z"/>
	</g>
	<g id="Oreja_der_19_">
		<polygon class="st4" points="86,74.8 90.7,74.8 90.7,61.4 87.2,61.4 87.2,73.9 		"/>
		<path class="st0" d="M85.6,69.3c0.2,0,0.4,0,0.6,0.1c0,0,0,0,0,0c1.2,0.3,2.2,1.2,2.2,2.5c0,1.5-0.7,2.2-1.5,2.5
			c0.3,0.1,1,0.3,2-0.2c1.2-0.6,1.5-2,1.6-3.2c0-1.2,0-9.2,0-9.2L87.1,65v-5.6l2.2-3c0.1-0.1,0.1-0.2,0.2-0.3
			c0.3-0.3,0.7-0.5,1.1-0.5c0.9,0,1.6,0.7,1.6,1.6c0,0,0,14.1,0,14.2c0,0.3,0,2-0.8,3.4c-0.7,1.1-3.3,4.7-4.9,5.7
			c0,0-0.3,0.3-0.8,0.3c-0.5,0-0.9-0.2-1.1-0.6V69.5C85,69.4,85.3,69.3,85.6,69.3z"/>
		<path class="st5" d="M87.8,63.1c0.4-0.5,2.1-2.6,2.2-2.7c0.2-0.3,0.6-0.3,0.9-0.1c0.3,0.2,0.3,0.6,0.1,0.9c0,0-1.8,2.2-2.1,2.6
			c-0.2,0.3-0.4,0.7-0.4,2v5.5c0,0.1,0,0.1,0,0.2c-0.1-0.7-0.6-1.3-1.2-1.7v-4C87.1,64.4,87.3,63.7,87.8,63.1z"/>
	</g>
	<g id="Ojos_16_">
		<path class="st5" d="M31.2,58.7c0,0-0.1,0.7,0.6,1.6c0.7,0.9,1.9,2.4,3.2,3.3c1.3,0.9,4.1,1.3,8.1,1.2c3-0.1,6.4-1.6,7.4-1.5
			c0,0,2.2,6.2,2,10.8H53V55.4C53,55.4,38.3,51.4,31.2,58.7z M80.8,58.7c-7.1-7.3-21.9-3.3-21.9-3.3v18.7h0.6
			c-0.2-4.6,2-10.8,2-10.8c1-0.1,4.3,1.4,7.4,1.5c3.9,0.1,6.8-0.3,8.1-1.2c1.3-0.9,2.5-2.4,3.2-3.3C80.9,59.4,80.8,58.7,80.8,58.7z"
			/>
		<path class="st6" d="M48.8,59.2c-0.4-0.2-1.1-0.5-1.6-0.6c-2.2-0.4-4.9-0.2-6.5,0c-2.5,0.4-3.3,1-4,2.1c-0.8,1.1-0.6,1.7-0.6,1.7
			l1.4-0.4c0.2-0.4,0.6-1.1,1.3-1.3c0.4-0.2,0.7-0.2,1.4-0.3c0,0.1,0,0.2,0,0.3c0,1.4,0.9,1.7,2.3,1.7l2-0.1c1.4,0,2.5-0.5,2.4-1.9
			c0-0.1,0-0.3-0.1-0.4c0.7,0,1.2,0.3,1.6,0.5c0.9,0.4,1.2,0.2,1.3-0.2C49.9,60,49.4,59.6,48.8,59.2z M75.3,60.8
			c-0.8-1.1-1.6-1.7-4-2.1c-1.6-0.2-4.3-0.4-6.5,0c-0.5,0.1-1.2,0.3-1.6,0.6c-0.6,0.3-1.1,0.7-1,1.1c0.1,0.4,0.5,0.7,1.3,0.2
			c0.4-0.2,0.9-0.4,1.6-0.5c0,0.1,0,0.2-0.1,0.4c0,1.4,1,1.8,2.4,1.9l2,0.1c1.4,0,2.3-0.3,2.3-1.7c0-0.1,0-0.2,0-0.3
			c0.7,0.1,1.1,0.1,1.4,0.3c0.7,0.3,1.1,1,1.3,1.3l1.4,0.4C76,62.4,76.1,61.9,75.3,60.8z"/>
	</g>
	<g id="Nariz_17_">
		<path class="st4" d="M62.7,76.1c-1.1-0.5-1.2-1.5-2-2.4c-0.8-0.9-2.6-2.2-4.7-2.2c-2.1,0-4,1.3-4.7,2.2c-0.8,0.9-0.9,2-2,2.4
			c-1.1,0.5-1.8,1.2-1.8,2.6s0.9,2.2,2.1,2.6c1,0.3,1.6,0.2,2,0.2s1.1-0.1,2,0.1c0.8,0.2,1.4,0.5,2.4,0.5s1.6-0.3,2.4-0.5
			c0.9-0.2,1.6-0.2,2-0.1s0.9,0.1,2-0.2c1.3-0.4,2.1-1.2,2.1-2.6S63.8,76.6,62.7,76.1z"/>
		<rect x="53" y="55.4" class="st4" width="5.9" height="19.8"/>
		<ellipse class="st0" cx="56" cy="78.3" rx="3.6" ry="1.9"/>
		
			<ellipse transform="matrix(0.2648 -0.9643 0.9643 0.2648 -40.4826 108.3879)" class="st7" cx="50.8" cy="80.7" rx="0.7" ry="1.4"/>
		<ellipse transform="matrix(0.9643 -0.2648 0.2648 0.9643 -19.2305 19.3762)" class="st7" cx="62.2" cy="81" rx="1.4" ry="0.7"/>
	</g>
	<path class="st8" d="M84.8,75.9c0,0-6.6,10.1-11.9,17c-5.3,7-6.4,8.2-7,8.7c-0.6,0.5-1.4,0.9-2,0.9c-1,0-2.3-1.1-2.3-2.1v-2.5H50.4
		v2.5c0,1-1.3,2.1-2.3,2.1c-0.5,0-1.4-0.5-2-0.9c-0.6-0.5-1.7-1.7-7-8.7c-5.3-7-11.9-17-11.9-17s0,4.7,0,7.3c0,2.6,5.4,13,12.1,20.6
		c5.8,6.6,7.4,7.6,9.9,7.6h13.6c2.6,0,4.1-1,9.9-7.6c6.7-7.6,12.1-18,12.1-20.6C84.8,80.6,84.8,75.9,84.8,75.9z M41.2,90.3
		c0.6,0,1.1-0.5,1.1-1.1c0-0.9,0.7-1.7,1.6-1.7h4.4c0.5,0,3.9-1.4,3.9-1.4l0,0c0.2-0.1,0.5-0.2,0.8-0.2c0.7,0,1.7,0.7,2.9,0.7
		c0,0,0,0,0,0s0,0,0,0c1.2,0,2.2-0.7,2.9-0.7c0.3,0,0.6,0.1,0.8,0.2l0,0c0,0,3.4,1.4,3.9,1.4H68c0.9,0,1.6,0.8,1.6,1.7
		c0,0.6,0.5,1.1,1.1,1.1c0.6,0,1.1-0.5,1.1-1.1c0-0.2,0-0.4,0-0.5c0-2.6-1.3-4.8-3.9-4.8c-5.6,0-7.4-0.9-8.4-1.3
		c-0.5-0.2-1-0.1-1.3,0c-0.3,0.1-1.3,0.6-2.3,0.6v0c0,0,0,0,0,0c0,0,0,0,0,0c0,0,0,0,0,0c0,0,0,0,0,0v0c-1.1,0-2.1-0.5-2.3-0.6
		c-0.3-0.1-0.7-0.1-1.3,0C51.4,83,49.6,84,44,84c-2.6,0-3.9,2.1-3.9,4.8c0,0,0,0.2,0,0.5C40.1,89.8,40.6,90.3,41.2,90.3z"/>
	<path class="st9" d="M39.8,51.9c-2.1,0.1-4.7,1-6.2,2.3c-0.8,0.7-1.7,2-2.1,2.7c-0.3,0.6-0.5,1.1-0.5,1.8c0,0.7,0.5,0.3,0.6,0.2
		c0.2-0.2,0.7-0.6,1-0.9c0.2-0.2,2-1.4,3.1-1.8c1.1-0.4,3.9-0.9,5.2-1c1.6-0.1,12.1,0.2,12.1,0.2s-1.1-3.5-1.7-4
		C50.4,50.7,42.9,51.7,39.8,51.9z M78.4,54.2c-1.5-1.3-4.1-2.2-6.2-2.3c-3.2-0.2-10.7-1.2-11.6-0.4c-0.6,0.5-1.7,4-1.7,4
		s10.6-0.3,12.1-0.2c1.3,0.1,4.1,0.6,5.2,1c1.1,0.4,2.9,1.6,3.1,1.8c0.3,0.3,0.8,0.8,1,0.9c0.1,0.1,0.6,0.5,0.6-0.2
		c0-0.7-0.2-1.2-0.5-1.8C80.1,56.2,79.2,54.9,78.4,54.2z M86.2,21.8C83.8,17.7,76.3,7.7,69,5.4C66.8,4.7,59.9,4.1,56,4v0
		c0,0,0,0,0,0c0,0,0,0,0,0v0c-3.9,0-10.8,0.6-13,1.3c-7.2,2.3-14.7,12.4-17.2,16.4c-3,5-6.3,10.5-6.3,17.2L19.6,55
		c0,0.7,0.4,1.4,1,1.8l3.5,2.4c0.7,0.5,1.1,1.2,1.1,2.1v7h2v-9.4c0.1-1.1,0.9-3.6,1.3-6.1c0.2-1.1,0.4-5.7,0.6-9.3
		c0-0.5,0.1-0.9,0.3-1.4c1.7-4.5,3.8-7.1,4.5-7.9c2.2,1.4,4,3.4,5.1,5.8c0.5-1.1,0.7-2.2,0.7-3.5c0-1.1-0.2-2.2-0.6-3.2
		c2.9,1.4,5.3,3.8,6.7,6.7c0.5-1.1,0.7-2.2,0.7-3.5c0-1.1-0.2-2.2-0.6-3.2c2.9,1.4,5.3,3.8,6.7,6.7c0.5-1.1,0.7-2.2,0.7-3.5
		c0-1.2-0.2-2.3-0.7-3.4c4.4,2.6,7.4,7.3,7.8,12.7c1.9-1.8,3.1-4.4,3.1-7.3c0-1.3-0.2-2.5-0.7-3.6c3.1,2.7,5.1,6.6,5.4,10.9
		c1.9-1.8,3.1-4.4,3.1-7.3c0-1.3-0.2-2.5-0.7-3.6c3.1,2.7,5.1,6.6,5.4,10.9c1.9-1.8,3.1-4.4,3.1-7.3c0-0.1,0-0.3,0-0.4
		c1.1,1.3,2.3,3,3.3,5.2c0.2,0.5,0.3,0.9,0.3,1.4c0.2,3.3,0.4,7,0.5,8c0.4,2.8,1.3,5.5,1.3,6.4c0,1.6,0,9.1,0,9.1h2v-7
		c0-0.8,0.4-1.6,1.1-2.1l3.6-2.5c0.5-0.4,0.9-1,0.9-1.6l0.2-16C92.5,32.3,89.2,26.8,86.2,21.8z"/>
</g>
</svg>
