<?xml version="1.0" encoding="utf-8"?>
<!-- Generator: Adobe Illustrator 21.1.0, SVG Export Plug-In . SVG Version: 6.00 Build 0)  -->
<svg version="1.1" id="Capa_1" xmlns="http://www.w3.org/2000/svg" xmlns:xlink="http://www.w3.org/1999/xlink" x="0px" y="0px"
	 viewBox="0 0 113.4 113.4" style="enable-background:new 0 0 113.4 113.4;" xml:space="preserve">
<style type="text/css">
	.st0{fill:#FFC7AC;}
	.st1{fill:#FF9276;}
	.st2{fill:#201717;}
	.st3{fill:#FFA688;}
	.st4{fill:#FF7389;}
	.st5{fill:#1D1D1B;}
</style>
<g id="Lucho">
	<path class="st0" d="M86.6,25.8l-60.5,0l0,61.8c0,0.5,0.2,0.9,0.5,1.2l0,0l0,0c0,0,0,0,0,0l17.8,18.4l0,0c1.2,1.2,2.9,2,4.7,2h14.5
		c1.9,0,3.5-0.8,4.7-2l0,0l17.8-18.4c0,0,0,0,0,0l0,0l0,0c0.3-0.3,0.5-0.7,0.5-1.2L86.6,25.8z"/>
	<path class="st1" d="M28.2,56.9c1.1,1.3,3.8,4.9,7.5,4.8c3.7-0.1,13,0,13.8,0c0.8,0,1.9,0.9,2.1,2.4c0.2,1.5,0.8,7.3,0.8,7.3h0.7
		l0-18.2l-21.2-1.5L28.2,56.9z M80.9,51.8l-21.2,1.5l0,18.2h0.7c0,0,0.6-5.7,0.8-7.3c0.2-1.5,1.3-2.4,2.1-2.4s10.1-0.1,13.8,0
		c3.7,0.1,6.4-3.5,7.5-4.8L80.9,51.8z"/>
	<path id="Ojos_9_" class="st2" d="M36.9,56.6c-0.5,0.1-2.7,0.7-3.3,4.4l1.3,0.2c0.4-2.4,1.7-3.1,2.2-3.2c0.1,0,0.6,0,1.3-0.1v1.9
		c0,0.3,0.2,0.5,0.5,0.5l7.5,0c0.3,0,0.5-0.2,0.5-0.5v-2c1.8,0,3,0,3,0l0-1.2C49.9,56.6,37.4,56.5,36.9,56.6z M75.9,56.6
		c-0.5-0.1-13,0-13,0l0,1.2c0,0,1.3,0,3,0v2c0,0.3,0.2,0.5,0.5,0.5h7.5c0.3,0,0.5-0.2,0.5-0.5v-1.9c0.7,0,1.2,0,1.3,0.1
		c0.5,0.1,1.8,0.9,2.2,3.2l1.3-0.2C78.5,57.4,76.4,56.7,75.9,56.6z"/>
	<g id="Oreja_der_3_">
		<polygon class="st3" points="87.9,72.7 92.7,72.7 92.7,59 89.2,59 89.2,71.8 		"/>
		<path class="st0" d="M87.5,67.1c0.2,0,0.4,0,0.6,0.1c0,0,0,0,0,0c1.2,0.3,2.2,1.3,2.2,2.6c0,1.5-0.7,2.2-1.6,2.5
			c0.3,0.1,1,0.3,2-0.2c1.2-0.7,1.6-2.1,1.6-3.3c0-1.2,0-9.4,0-9.4l-3.3,3.3V57l2.3-3c0.1-0.1,0.1-0.2,0.2-0.3
			c0.3-0.3,0.7-0.5,1.2-0.5c0.9,0,1.6,0.7,1.6,1.6c0,0,0,14.4,0,14.6c0,0.2,0,2.1-0.8,3.5c-0.7,1.2-3.3,4.8-5,5.9
			c0,0-0.3,0.3-0.8,0.3c-0.5,0-0.9-0.2-1.2-0.6v-11C86.9,67.2,87.2,67.1,87.5,67.1z"/>
		<path class="st1" d="M89.8,60.8c0.4-0.5,2.1-2.6,2.2-2.7c0.2-0.3,0.6-0.3,0.9-0.1c0.3,0.2,0.3,0.6,0.1,0.9c0,0-1.8,2.2-2.2,2.7
			c-0.3,0.3-0.4,0.7-0.4,2v5.7c0,0.1,0,0.1,0,0.2c-0.1-0.8-0.6-1.4-1.2-1.8v-4.1C89.1,62.1,89.3,61.4,89.8,60.8z"/>
	</g>
	<g id="Oreja_izq_3_">
		<polygon class="st3" points="24.8,72.7 20,72.7 20,59 23.6,59 23.6,71.8 		"/>
		<path class="st0" d="M25.2,67.1c-0.2,0-0.4,0-0.6,0.1c0,0,0,0,0,0c-1.2,0.3-2.2,1.3-2.2,2.6c0,1.5,0.7,2.2,1.6,2.5
			c-0.3,0.1-1,0.3-2-0.2c-1.2-0.7-1.6-2.1-1.6-3.3c0-1.2,0-9.4,0-9.4l3.3,3.3l0-5.7c0,0-2.4-3.2-2.5-3.3c-0.3-0.3-0.7-0.5-1.2-0.5
			c-0.9,0-1.6,0.7-1.6,1.6c0,0,0,14.5,0,14.6c0,0.3,0,2.1,0.8,3.5c0.7,1.2,3.3,4.8,5,5.9c0,0,0.3,0.3,0.8,0.3c0.5,0,0.9-0.2,1.2-0.6
			l0-11C25.8,67.2,25.5,67.1,25.2,67.1z"/>
		<path class="st1" d="M23,60.8c-0.4-0.5-2.1-2.6-2.2-2.7c-0.2-0.3-0.6-0.3-0.9-0.1c-0.3,0.2-0.3,0.6-0.1,0.9c0,0,1.8,2.2,2.2,2.7
			c0.3,0.3,0.4,0.7,0.4,2l0,5.7c0,0.1,0,0.1,0,0.2c0.1-0.8,0.6-1.4,1.2-1.8v-4.1C23.6,62.1,23.5,61.4,23,60.8z"/>
	</g>
	<g id="Nariz_3_">
		<path class="st3" d="M64,73.8c-1.2-0.5-1.4-0.8-2.3-1.8c-0.9-1-3-2.3-5.4-2.3C54,69.7,51.9,71,51,72c-0.9,1-1.1,1.3-2.3,1.8
			s-2,1.2-2,2.7s1,2.3,2.4,2.7c1.2,0.3,1.8,0.2,2.2,0.2c0.5,0,1.2-0.1,2.3,0.1c0.9,0.2,1.6,0.5,2.7,0.5s1.8-0.4,2.7-0.5
			c1.1-0.2,1.8-0.2,2.3-0.1c0.5,0,1,0.2,2.2-0.2c1.4-0.4,2.4-1.2,2.4-2.7S65.2,74.2,64,73.8z"/>
		<rect x="53.1" y="53.2" class="st3" width="6.5" height="19.4"/>
		<ellipse class="st0" cx="56.4" cy="75.7" rx="3.7" ry="1.9"/>
		
			<ellipse transform="matrix(0.2648 -0.9643 0.9643 0.2648 -38.9789 105.8625)" class="st2" cx="49.9" cy="78.5" rx="0.7" ry="1.4"/>
		<ellipse transform="matrix(0.9643 -0.2648 0.2648 0.9643 -18.5445 19.4369)" class="st2" cx="62.8" cy="78.5" rx="1.4" ry="0.7"/>
	</g>
	<g id="Boca_4_">
		<path class="st4" d="M63.5,86l-5.1-1.7c-0.6,1-1.7,1-2,1s-1.4,0-2-1L49.3,86h-6c0,0,0.1,1.4,0.3,3c0.6,0.4,2.9,1.6,3.9,2
			c1.2,0.5,1.6,0.7,3.5,0.7c1.9,0,5.4,0,5.4,0s3.5,0,5.4,0c1.9,0,2.4-0.2,3.5-0.7c1-0.4,3.2-1.7,3.9-2c0.2-1.7,0.3-3,0.3-3H63.5z"/>
		<path class="st5" d="M63.9,88.4h-15c-2.8,0-5.7-1.4-5.8-1.5l0.2-0.3c0,0,3,1.4,5.6,1.4h15c2.7,0,5.6-1.4,5.6-1.4l0.2,0.3
			C69.6,87,66.7,88.4,63.9,88.4z"/>
	</g>
	<path class="st2" d="M80.5,49.4C80,48.9,79.5,49,79.5,49l-18.2,0.7l-1.7,3.5l19.9-0.7c1.5,0,1.5,0.3,2.1,1c0.7,0.7,2.9,3.4,2.9,3.4
		C84.1,53.7,81.1,49.9,80.5,49.4z M33.3,49c0,0-0.5-0.1-1.1,0.4c-0.6,0.5-3.6,4.3-4,7.5c0,0,2.3-2.8,2.9-3.4c0.7-0.7,0.6-0.9,2.1-1
		l19.9,0.7l-1.7-3.5L33.3,49z M94.6,31.2C85.2,12.7,78.5,4.6,56.4,4.6s-28.8,8.1-38.2,26.6c-1.8,3.4-1.4,6.6-1.4,6.6
		c0.5,10.1,2.6,15.4,2.6,15.4s4.2,5.8,4.2,8.4l0,17.3c0.1,2.3,0.8,5.7,1.8,8.5s4.8,9.5,8.6,14.4s10.6,9.8,14.1,9.6h16.5
		c3.5,0.2,10.2-4.8,14.1-9.6c3.9-4.8,7.7-11.5,8.6-14.4c1-2.8,1.7-6.3,1.8-8.5l0-17.3c0-2.6,4.2-8.4,4.2-8.4s2.2-5.4,2.6-15.4
		C96,37.8,96.3,34.6,94.6,31.2z M56.4,26.8l0.3,0.2c-0.1,0-0.2,0-0.3,0c-0.1,0-0.2,0-0.3,0L56.4,26.8z M69.2,89
		C69.2,89,69.2,89,69.2,89c-0.1,0.2-0.2,0.9-0.6,1.6c-0.5,0.8-2.3,2.6-3.4,3.6c-1.1,1-2.2,1.6-3.5,1.6H51c-1.3,0-2.4-0.6-3.5-1.6
		c-1.1-1-2.9-2.7-3.4-3.6c-0.5-0.8-0.5-1.6-0.5-1.6c-0.2-1.7-0.3-3-0.3-3h6l5.1-1.7c0.6,1,1.7,1,2,1c0.3,0,1.4,0.1,2-1l5.1,1.7l6,0
		C69.6,86,69.4,87.4,69.2,89z M86,75.9c0,3-2.5,7.6-2.9,8.3c-0.8,1.8-6.5,6.4-7.7,6.4c-0.3,0-0.9-4.2-0.9-5.2c0-2-1.6-3.6-3.6-3.6
		h-6.5c-0.2,0-0.3,0-0.4-0.1l-4.9-1.7c-0.2-0.1-0.5-0.2-0.8-0.1c-0.3,0.1-1.2,0.4-1.9,0.4s-1.7-0.3-2-0.4c-0.2-0.1-0.5,0-0.8,0.1
		l-4.9,1.7c-0.1,0-0.3,0.1-0.4,0.1l-6.5,0c-2,0-3.6,1.6-3.6,3.6c0,1.1-0.6,5.2-0.9,5.2c-1.3,0-6.9-4.6-7.7-6.4
		c-0.3-0.7-2.9-5.3-2.9-8.3l0-23c0-2.2,0.6-3.9,2.4-4.8l0-5.4c2.4-4.1,6.9-6.8,11.9-6.9c0.2,1.8,0.9,3.5,2.1,4.8
		c0.9-2,2.3-3.7,4.1-4.9c0,0.1,0,0.2,0,0.4c0.2,2.1,1.2,3.9,2.7,5.2c1-3.1,3.3-5.7,6.4-7c3.1,1.3,5.4,3.9,6.4,7
		c1.4-1.3,2.4-3.1,2.7-5.2c0-0.1,0-0.2,0-0.4c1.8,1.2,3.3,2.9,4.1,4.9c1.1-1.3,1.9-2.9,2.1-4.8c5.1,0.1,9.5,2.8,11.9,6.9l0,5.4
		C85.4,49,86,50.7,86,53V75.9z"/>
</g>
</svg>
