<?xml version="1.0" encoding="utf-8"?>
<!-- Generator: Adobe Illustrator 21.1.0, SVG Export Plug-In . SVG Version: 6.00 Build 0)  -->
<svg version="1.1" id="Capa_1" xmlns="http://www.w3.org/2000/svg" xmlns:xlink="http://www.w3.org/1999/xlink" x="0px" y="0px"
	 viewBox="0 0 113.4 113.4" style="enable-background:new 0 0 113.4 113.4;" xml:space="preserve">
<style type="text/css">
	.st0{fill:#FFC7AC;}
	.st1{fill:#FFA688;}
	.st2{fill:#FF7389;}
	.st3{fill:#7D3444;}
	.st4{fill:#FFFFFF;}
	.st5{fill:#FF9276;}
	.st6{fill:#201717;}
	.st7{fill:#AC8B79;}
</style>
<g id="Mario_2_">
	<path class="st0" d="M85.9,24.5H25.3v61.8c0,0.5,0.2,0.9,0.5,1.2l0,0l0,0c0,0,0,0,0,0l17.8,18.4l0,0c1.2,1.3,2.9,2,4.7,2h14.5
		c1.9,0,3.5-0.8,4.7-2l0,0l17.8-18.4c0,0,0,0,0,0l0,0l0,0c0.3-0.3,0.5-0.7,0.5-1.2V24.5z"/>
	<path class="st1" d="M38.6,66.2c0,0-4.8,0.3-10.3-0.3c-1.6-0.2-2.4-0.6-2.9-1.3v21.8c0,0.5,0.2,0.9,0.5,1.2l0,0l0,0c0,0,0,0,0,0
		l7.2,7.4V69.8c2.4-0.1,4.5-1.1,6-2.7c0.2-0.3,0.4-0.5,0.3-0.7C39.1,66.1,38.6,66.2,38.6,66.2z M85.9,64.5c-0.5,0.7-1.3,1.2-2.9,1.3
		c-5.5,0.6-10.3,0.3-10.3,0.3s-0.6,0-0.7,0.2c-0.1,0.2,0.1,0.4,0.3,0.7c1.5,1.6,3.6,2.7,6,2.7v25.2l7.2-7.4c0,0,0,0,0,0l0,0l0,0
		c0.3-0.3,0.5-0.7,0.5-1.2V64.5z"/>
	<g id="boca_4_">
		<path class="st2" d="M68.9,84.6c-0.6,0-4.3,0-5.4,0c-1.2,0-3.9-1-4.7-1.3c-0.7-0.2-0.8-0.2-1.2,0c-0.4,0.2-0.7,0.5-2,0.5
			c-1.2,0-1.5-0.3-2-0.5s-0.5-0.2-1.2,0c-0.7,0.2-3.5,1.2-4.7,1.3c-1.2,0-4.9,0-5.4,0c-0.6,0-0.7,0.6-0.7,1.3
			c0.1,0.7,1.3,3.1,4.9,5.4c2.9,1.9,5.9,2.2,9,2.2c3.1,0,6.1-0.3,9-2.2c3.6-2.3,4.9-4.7,4.9-5.4C69.6,85.2,69.4,84.6,68.9,84.6z"/>
		<path class="st3" d="M68.8,86.1H42.4c0,0-0.3,0.2,0.5,0.5c0.8,0.2,1.7,0.6,3.6,1.3c1.9,0.7,2.8,1.6,9.1,1.7l0,0h0l0,0
			c6.2,0,7.2-1,9.1-1.7c1.9-0.7,2.8-1,3.6-1.3C69.1,86.3,68.8,86.1,68.8,86.1z"/>
		<path class="st4" d="M45.4,86.1c1.5,2,5.5,3.4,10.2,3.4s8.8-1.4,10.2-3.4H45.4z"/>
	</g>
	<path class="st5" d="M27.4,55.7c1.1,1.3,3.8,4.9,7.5,4.8c3.7-0.1,13,0,13.8,0s1.9,0.9,2.1,2.4c0.2,1.5,0.8,7.3,0.8,7.3h0.7V52
		l-21.3-1.5L27.4,55.7z M80.1,50.5L58.8,52v18.2h0.7c0,0,0.6-5.7,0.8-7.3c0.2-1.5,1.3-2.4,2.1-2.4s10.1-0.1,13.8,0
		c3.7,0.1,6.4-3.5,7.5-4.8L80.1,50.5z"/>
	<path class="st6" d="M36.1,55.4c-0.5,0.1-2.7,0.8-3.3,4.4l1.3,0.2c0.4-2.4,1.7-3.1,2.2-3.2c0.1,0,0.6,0,1.3-0.1v1.9
		c0,0.3,0.2,0.5,0.5,0.5h7.5c0.3,0,0.5-0.2,0.5-0.5v-2c1.8,0,3.1,0,3.1,0l0-1.2C49.1,55.3,36.6,55.2,36.1,55.4z M32.5,47.8
		c0,0-0.5-0.1-1.1,0.4c-0.6,0.5-3.6,4.3-4,7.5c0,0,2.3-2.8,2.9-3.4c0.7-0.7,0.6-0.9,2.1-1L52.3,52l-1.7-3.5L32.5,47.8z M79.8,48.1
		c-0.6-0.5-1.1-0.4-1.1-0.4l-18.2,0.7L58.8,52l19.9-0.7c1.5,0,1.5,0.3,2.1,1c0.7,0.7,2.9,3.4,2.9,3.4C83.3,52.4,80.4,48.6,79.8,48.1
		z M75.1,55.4c-0.5-0.1-13,0-13,0l0,1.2c0,0,1.3,0,3.1,0v2c0,0.3,0.2,0.5,0.5,0.5h7.5c0.3,0,0.5-0.2,0.5-0.5v-1.9
		c0.7,0,1.2,0,1.3,0.1c0.5,0.1,1.8,0.9,2.2,3.2l1.3-0.2C77.8,56.1,75.6,55.5,75.1,55.4z"/>
	<g id="Oreja_der_9_">
		<polygon class="st1" points="87.2,71.5 92,71.5 92,57.8 88.4,57.8 88.4,70.6 		"/>
		<path class="st0" d="M86.8,65.9c0.2,0,0.4,0,0.6,0.1c0,0,0,0,0,0c1.2,0.3,2.2,1.3,2.2,2.6c0,1.5-0.7,2.2-1.6,2.5
			c0.3,0.1,1,0.3,2-0.2c1.2-0.7,1.6-2.1,1.6-3.3c0-1.2,0-9.4,0-9.4l-3.3,3.3v-5.7l2.3-3c0.1-0.1,0.1-0.2,0.2-0.3
			c0.3-0.3,0.7-0.5,1.2-0.5c0.9,0,1.6,0.7,1.6,1.6c0,0,0,14.4,0,14.6c0,0.2,0,2.1-0.8,3.5c-0.7,1.2-3.3,4.8-5,5.9
			c0,0-0.3,0.3-0.8,0.3c-0.5,0-0.9-0.2-1.2-0.6v-11C86.1,66,86.5,65.9,86.8,65.9z"/>
		<path class="st5" d="M89,59.5c0.4-0.5,2.1-2.7,2.2-2.7c0.2-0.3,0.6-0.3,0.9-0.1c0.3,0.2,0.3,0.6,0.1,0.9c0,0-1.8,2.2-2.2,2.7
			c-0.3,0.3-0.4,0.7-0.4,2V68c0,0.1,0,0.1,0,0.2c-0.1-0.8-0.6-1.4-1.2-1.8v-4.1C88.4,60.8,88.5,60.1,89,59.5z"/>
	</g>
	<g id="Oreja_izq_7_">
		<polygon class="st1" points="24,71.5 19.2,71.5 19.2,57.8 22.8,57.8 22.8,70.6 		"/>
		<path class="st0" d="M24.4,65.9c-0.2,0-0.4,0-0.6,0.1c0,0,0,0,0,0c-1.2,0.3-2.2,1.3-2.2,2.6c0,1.5,0.7,2.2,1.6,2.5
			c-0.3,0.1-1,0.3-2-0.2c-1.2-0.7-1.6-2.1-1.6-3.3c0-1.2,0-9.4,0-9.4l3.3,3.3v-5.7l-2.3-3c-0.1-0.1-0.1-0.2-0.2-0.3
			c-0.3-0.3-0.7-0.5-1.2-0.5c-0.9,0-1.6,0.7-1.6,1.6c0,0,0,14.5,0,14.6c0,0.3,0,2.1,0.8,3.5c0.7,1.2,3.3,4.8,5,5.9
			c0,0,0.3,0.3,0.8,0.3c0.5,0,0.9-0.2,1.2-0.6v-11C25,66,24.7,65.9,24.4,65.9z"/>
		<path class="st5" d="M22.2,59.5C21.8,59,20,56.9,20,56.8c-0.2-0.3-0.6-0.3-0.9-0.1c-0.3,0.2-0.3,0.6-0.1,0.9c0,0,1.8,2.2,2.2,2.7
			c0.3,0.3,0.4,0.7,0.4,2V68c0,0.1,0,0.1,0,0.2c0.1-0.8,0.6-1.4,1.2-1.8v-4.1C22.8,60.8,22.7,60.1,22.2,59.5z"/>
	</g>
	<path class="st6" d="M90.8,34.7C90.2,17.8,74.6,4.3,55.6,4.3S21,17.8,20.3,34.7h0v17.7l2.5,3.4v10.7l2.5,1.4V52l0,0
		c0.1-2.2,1.3-4.1,3-5.2v-7.9c0-5.6,4.6-10.2,10.2-10.2h12.7l4.3-3.2v7.3l4.3-4.1h12.7c5.6,0,10.2,4.6,10.2,10.2v7.9
		c1.8,1.1,3,3,3,5.2l0,0v15.8l2.5-1.4V55.7l2.5-3.4L90.8,34.7L90.8,34.7z"/>
	<g id="Nariz_7_">
		<path class="st1" d="M63.2,72.5c-1.2-0.5-1.4-0.8-2.3-1.8c-0.9-1-3-2.3-5.4-2.3c-2.4,0-4.5,1.3-5.4,2.3c-0.9,1-1.1,1.3-2.3,1.8
			c-1.2,0.5-2,1.2-2,2.7c0,1.5,1,2.3,2.4,2.7c1.2,0.3,1.8,0.2,2.2,0.2c0.5,0,1.2-0.1,2.3,0.1c0.9,0.2,1.6,0.5,2.7,0.5
			c1.2,0,1.8-0.4,2.7-0.5c1.1-0.2,1.8-0.2,2.3-0.1c0.5,0,1,0.2,2.2-0.2c1.4-0.4,2.4-1.2,2.4-2.7C65.3,73.7,64.4,73,63.2,72.5z"/>
		<rect x="52.3" y="52" class="st1" width="6.5" height="19.4"/>
		<ellipse class="st0" cx="55.6" cy="74.5" rx="3.7" ry="1.9"/>
		
			<ellipse transform="matrix(0.2648 -0.9643 0.9643 0.2648 -38.3676 104.1933)" class="st6" cx="49.1" cy="77.3" rx="0.7" ry="1.4"/>
		<ellipse transform="matrix(0.9643 -0.2648 0.2648 0.9643 -18.2451 19.1864)" class="st6" cx="62" cy="77.3" rx="1.4" ry="0.7"/>
	</g>
	<path class="st7" d="M85.9,86.3l0-12.8L73.1,87.4c0-1.1,0-2.3,0-2.4c0-2.7-2.2-4.9-4.9-4.9c-5.9,0-7.8-1-8.8-1.4
		c-0.5-0.2-1-0.1-1.3,0c-0.3,0.1-1.4,0.6-2.5,0.6v0c0,0,0,0,0,0c-1.1,0-2.2-0.5-2.5-0.6c-0.3-0.1-0.8-0.1-1.3,0
		c-1,0.4-2.9,1.4-8.8,1.4c-2.7,0-4.9,2.2-4.9,4.9c0,0.1,0,1.5,0,2.4L25.3,73.5l0,12.8c0,0.5,0.2,0.9,0.5,1.2l0,0l0,0c0,0,0,0,0,0
		l17.8,18.4l0,0c1.2,1.3,2.9,2,4.7,2h14.5c1.9,0,3.5-0.8,4.7-2l0,0l17.8-18.4c0,0,0,0,0,0l0,0l0,0C85.7,87.2,85.9,86.8,85.9,86.3z
		 M41.2,85.5c0-1,0.8-1.7,1.7-1.7h4.6c0.6,0,4.1-1.5,4.1-1.5l0,0c0.3-0.2,0.6-0.2,0.9-0.2c0.7,0,1.8,0.7,3,0.7c1.2,0,2.3-0.7,3-0.7
		c0.3,0,0.6,0.1,0.9,0.2v0c0,0,3.6,1.5,4.1,1.5h4.6c1,0,1.7,0.8,1.7,1.7l-0.3,4.9l-6.8,6.7c-0.4,0.4-0.9,0.6-1.4,0.6
		c-1.1,0-1.9-0.9-1.9-1.9v-1.2h-7.9v1.2c0,1.1-0.9,1.9-1.9,1.9c-0.6,0-1.1-0.3-1.4-0.6l-6.8-6.7L41.2,85.5z"/>
</g>
</svg>
