<?xml version="1.0" encoding="utf-8"?>
<!-- Generator: Adobe Illustrator 21.1.0, SVG Export Plug-In . SVG Version: 6.00 Build 0)  -->
<svg version="1.1" id="Capa_1" xmlns="http://www.w3.org/2000/svg" xmlns:xlink="http://www.w3.org/1999/xlink" x="0px" y="0px"
	 viewBox="0 0 113.4 113.4" style="enable-background:new 0 0 113.4 113.4;" xml:space="preserve">
<style type="text/css">
	.st0{fill:#FFC7AC;}
	.st1{fill:#FF7389;}
	.st2{fill:#7D3444;}
	.st3{fill:#FFFFFF;}
	.st4{fill:#FFA688;}
	.st5{fill:#FF9276;}
	.st6{fill:#261818;}
	.st7{fill:#201717;}
	.st8{fill:#352727;}
	.st9{fill:#AC8B79;}
</style>
<g id="Mati">
	<polygon class="st0" points="86.2,21.5 27.1,21.5 22.1,69.3 50.9,109.1 62.6,109.1 91.3,69.2 	"/>
	<g id="boca_2_">
		<path class="st1" d="M69.3,85.3c-0.5,0-4,0-5.1,0c-1.1,0-3.7-1-4.4-1.3c-0.7-0.2-0.8-0.2-1.2,0c-0.4,0.2-0.7,0.5-1.8,0.5
			c-1.1,0-1.5-0.3-1.8-0.5s-0.5-0.2-1.2,0c-0.7,0.2-3.3,1.2-4.4,1.3c-1.1,0-4.6,0-5.1,0c-0.5,0-0.7,0.6-0.6,1.3
			c0.1,0.7,1.3,3.1,4.7,5.4c2.8,1.9,5.6,2.2,8.5,2.2s5.7-0.3,8.5-2.2c3.4-2.3,4.6-4.7,4.7-5.4C70,85.9,69.8,85.3,69.3,85.3z"/>
		<path class="st2" d="M69.2,86.8H44.2c0,0-0.3,0.2,0.5,0.5c0.8,0.2,1.6,0.6,3.4,1.3c1.8,0.7,2.7,1.6,8.6,1.7l0,0h0l0,0
			c5.9,0,6.8-1,8.6-1.7c1.8-0.7,2.6-1,3.4-1.3C69.5,87,69.2,86.8,69.2,86.8z"/>
		<path class="st3" d="M47,86.8c1.4,2,5.2,3.4,9.7,3.4s8.3-1.4,9.7-3.4H47z"/>
	</g>
	<g id="Oreja_izq_4_">
		<polygon class="st4" points="25.8,71.4 21,71.4 21,57.6 24.6,57.6 24.6,70.4 		"/>
		<path class="st0" d="M26.2,65.8c-0.2,0-0.4,0-0.6,0.1c0,0,0,0,0,0c-1.2,0.3-2.2,1.3-2.2,2.6c0,1.5,0.7,2.2,1.6,2.5
			c-0.3,0.1-1,0.3-2-0.2c-1.2-0.7-1.6-2.1-1.6-3.3c0-1.2,0-9.4,0-9.4l3.3,3.3v-5.7l-2.3-3c-0.1-0.1-0.1-0.2-0.2-0.3
			c-0.3-0.3-0.7-0.5-1.2-0.5c-0.9,0-1.6,0.7-1.6,1.6c0,0,0,14.5,0,14.6c0,0.3,0,2.1,0.8,3.5c0.7,1.2,3.3,4.8,5,5.9
			c0,0,0.3,0.3,0.8,0.3c0.5,0,0.9-0.2,1.2-0.6v-11C26.9,65.8,26.5,65.8,26.2,65.8z"/>
		<path class="st5" d="M24,59.4c-0.4-0.5-2.2-2.7-2.2-2.7c-0.2-0.3-0.6-0.3-0.9-0.1c-0.3,0.2-0.3,0.6-0.1,0.9c0,0,1.8,2.2,2.2,2.7
			c0.3,0.3,0.4,0.7,0.4,2v5.7c0,0.1,0,0.1,0,0.2c0.1-0.8,0.6-1.4,1.2-1.8v-4.1C24.6,60.7,24.5,60,24,59.4z"/>
	</g>
	<g id="Oreja_der_4_">
		<polygon class="st4" points="87.5,71.4 92.3,71.4 92.3,57.6 88.8,57.6 88.8,70.4 		"/>
		<path class="st0" d="M87.1,65.8c0.2,0,0.4,0,0.6,0.1c0,0,0,0,0,0c1.2,0.3,2.2,1.3,2.2,2.6c0,1.5-0.7,2.2-1.6,2.5
			c0.3,0.1,1,0.3,2-0.2c1.2-0.7,1.6-2.1,1.6-3.3c0-1.2,0-9.4,0-9.4l-3.3,3.3v-5.7l2.3-3c0.1-0.1,0.1-0.2,0.2-0.3
			c0.3-0.3,0.7-0.5,1.2-0.5c0.9,0,1.6,0.7,1.6,1.6c0,0,0,14.5,0,14.6c0,0.3,0,2.1-0.8,3.5c-0.7,1.2-3.3,4.8-5,5.9
			c0,0-0.3,0.3-0.8,0.3c-0.5,0-0.9-0.2-1.2-0.6v-11C86.5,65.8,86.8,65.8,87.1,65.8z"/>
		<path class="st5" d="M89.4,59.4c0.4-0.5,2.2-2.7,2.2-2.7c0.2-0.3,0.6-0.3,0.9-0.1c0.3,0.2,0.3,0.6,0.1,0.9c0,0-1.8,2.2-2.2,2.7
			c-0.3,0.3-0.4,0.7-0.4,2v5.7c0,0.1,0,0.1,0,0.2c-0.1-0.8-0.6-1.4-1.2-1.8v-4.1C88.7,60.7,88.9,60,89.4,59.4z"/>
	</g>
	<g id="Ojos_2_">
		<path class="st5" d="M31.2,54.9c0,0-0.1,0.7,0.6,1.6c0.7,0.9,2.7,3,3.3,3.4c0.5,0.4,1.5,0.5,2.8,0.3c1.2-0.2,11.3-0.8,13.1-0.7
			c0,0,2,6.4,1.8,11.1h0.7V51.5C53.4,51.5,38.5,47.4,31.2,54.9z M82.2,54.9c-7.3-7.5-22.3-3.4-22.3-3.4v19.2h0.7
			c-0.2-4.8,1.8-11.1,1.8-11.1c1.8-0.1,11.9,0.5,13.1,0.7c1.2,0.2,2.2,0.1,2.8-0.3c0.5-0.4,2.6-2.5,3.3-3.4
			C82.3,55.6,82.2,54.9,82.2,54.9z"/>
		<path class="st6" d="M48.8,54.5c-2.5-0.8-6.2-0.5-8.2-0.2c-2.5,0.4-3.3,1-4.1,2.2c-0.8,1.2-0.6,1.7-0.6,1.7l1.4-0.4
			c0.2-0.4,0.7-1.1,1.3-1.4c0.4-0.2,0.7-0.2,1.5-0.3c0,0.1,0,0.2,0,0.3c0.1,1.4,1,1.8,2.4,1.7l2.1-0.1c1.5-0.1,2.5-0.5,2.5-1.9
			c0-0.1,0-0.3-0.1-0.4c0.7,0,1.2,0.1,1.6,0.2c1,0.3,1.3,0.2,1.4-0.2C50.1,55.2,49.4,54.7,48.8,54.5z M39.7,47.2
			c-1.2,0.2-5.7,2.4-6.1,2.8c-0.7,0.8-1.7,2.3-2.1,2.9c-0.3,0.7-0.6,1.2-0.5,1.9c0,0.7,0.5,0.4,0.6,0.3c0.2-0.2,0.6-0.7,0.9-1.1
			c0.2-0.2,2.2-1.4,3.3-1.8c1.1-0.4,3.4-1.1,4.7-1.1c1.3,0,12.9,0.3,12.9,0.3s-1.6-3.6-1.8-3.7C51.5,47.7,40.9,47,39.7,47.2z
			 M72.8,54.3c-2-0.3-5.7-0.6-8.2,0.2c-0.6,0.2-1.3,0.7-1.2,1.1c0.1,0.4,0.4,0.5,1.4,0.2c0.4-0.1,1-0.2,1.6-0.2
			c0,0.1-0.1,0.2-0.1,0.4c-0.1,1.4,1,1.9,2.5,1.9l2.1,0.1c1.5,0.1,2.4-0.3,2.4-1.7c0-0.1,0-0.2,0-0.3c0.7,0.1,1.1,0.1,1.5,0.3
			c0.7,0.3,1.1,1,1.3,1.4l1.4,0.4c0,0,0.1-0.6-0.6-1.7C76.1,55.3,75.3,54.7,72.8,54.3z M81.9,53c-0.3-0.7-1.4-2.1-2.1-2.9
			c-0.4-0.4-4.9-2.6-6.1-2.8c-1.2-0.2-11.8,0.5-12,0.5c-0.2,0.1-1.8,3.7-1.8,3.7s11.6-0.3,12.9-0.3c1.3,0,3.6,0.7,4.7,1.1
			c1.1,0.4,3.1,1.6,3.3,1.8c0.4,0.3,0.7,0.9,0.9,1.1c0.1,0.1,0.6,0.4,0.6-0.3C82.4,54.2,82.2,53.7,81.9,53z"/>
	</g>
	<g id="Nariz_5_">
		<path class="st4" d="M64.6,72.7c-1.3-0.5-1.4-0.9-2.4-1.9c-0.9-1-3.1-2.4-5.6-2.4c-2.5,0-4.7,1.4-5.6,2.4c-0.9,1-1.1,1.4-2.4,1.9
			c-1.3,0.5-2.1,1.3-2.1,2.8c0,1.5,1,2.4,2.5,2.8c1.2,0.4,1.8,0.2,2.3,0.2c0.5,0,1.3-0.1,2.4,0.2c1,0.2,1.7,0.6,2.9,0.6
			s1.9-0.4,2.9-0.6c1.1-0.2,1.9-0.2,2.4-0.2c0.5,0,1.1,0.2,2.3-0.2c1.5-0.4,2.5-1.3,2.5-2.8C66.8,74,65.9,73.2,64.6,72.7z"/>
		<rect x="53.4" y="51.5" class="st4" width="6.5" height="20.4"/>
		<ellipse class="st0" cx="56.7" cy="75" rx="3.7" ry="1.9"/>
		
			<ellipse transform="matrix(0.2648 -0.9643 0.9643 0.2648 -38.0718 105.6478)" class="st7" cx="50.3" cy="77.8" rx="0.7" ry="1.4"/>
		<ellipse transform="matrix(0.9643 -0.2648 0.2648 0.9643 -18.3465 19.5004)" class="st7" cx="63.1" cy="77.8" rx="1.4" ry="0.7"/>
	</g>
	<path class="st8" d="M85.7,17c-2.4-3.3-12.6-9.8-17-11.5C66.4,4.5,61,4.1,57,4.1s-10,0.4-12.3,1.3c-4.4,1.8-14.6,8.2-17,11.5
		c-3.5,4.8-5.6,10.8-5.6,17.7v17.5l3,3.9v8.5h2.1c0,0,0-11.1,0-12.7c0-1.5,0.9-2.7,2.1-3.2c0.2-0.1,0.3-0.2,0.5-0.3
		c0.1-0.2,0.1-0.6,0.1-0.6V31.4c0,0-0.1-1.1,3.5-4.8c3.6-3.7,4.5-3.2,4.5-3.2h16.8v0.1c6.1,0,11.6,2.7,15.4,6.9H70v-4.9
		c2.4,0.3,4.5,1.6,5.8,3.5v-5.5h0.1c0,0,1.2-0.4,4.7,3.3c3.6,3.6,2.9,4.7,2.9,4.7v16.3c0,0,0,0.5,0.1,0.6c0.1,0.2,0.3,0.3,0.5,0.3
		c1.3,0.5,2.1,1.8,2.1,3.2c0,1.7,0,12.7,0,12.7h2.1v-8.6l3-3.9V34.7C91.3,27.8,89.2,21.8,85.7,17z"/>
	<path class="st9" d="M86.2,72.5c0,0-8.2,13.3-12.5,17.5c0,0,0-4.1,0-4.3c0-2.7-2.1-4.9-4.8-4.9c-5.8,0-7.6-1-8.6-1.4
		c-0.5-0.2-1-0.1-1.3,0c-0.3,0.1-1.3,0.6-2.4,0.6v0c0,0,0,0,0,0c0,0,0,0,0,0c0,0,0,0,0,0c0,0,0,0,0,0v0c-1.1,0-2.1-0.5-2.4-0.6
		c-0.3-0.1-0.8-0.1-1.3,0c-1,0.4-2.8,1.4-8.6,1.4c-2.6,0-4.8,2.2-4.8,4.9c0,0.2,0,4.3,0,4.3c-4.3-4.2-12.5-17.5-12.5-17.5
		s0,4.8,0,7.5c0,2.7,5.5,13.4,12.4,21.2c6,6.8,7.6,7.8,10.2,7.8h13.9c2.6,0,4.2-1,10.2-7.8c6.9-7.8,12.4-18.5,12.4-21.2
		C86.2,77.4,86.2,72.5,86.2,72.5z M70.5,93.3c-2.4,3.4-5.8,6.3-6.5,6.8c-0.6,0.5-1,0.7-1.6,0.7c-1,0-1.9-0.8-1.9-1.9v-3.8h-7.8v3.8
		c0,1-0.8,1.9-1.9,1.9c-0.6,0-0.9-0.2-1.6-0.7c-0.6-0.5-4-3.4-6.5-6.8l-0.3-7.1c0-0.9,0.8-1.7,1.7-1.7h4.5c0.5,0,4-1.5,4-1.5l0,0
		c0.3-0.2,0.5-0.2,0.9-0.2c0.7,0,1.8,0.7,3,0.7c0,0,0,0,0,0s0,0,0,0c1.2,0,2.2-0.7,3-0.7c0.3,0,0.6,0.1,0.9,0.2l0,0
		c0,0,3.5,1.5,4,1.5h4.5c0.9,0,1.7,0.8,1.7,1.7L70.5,93.3z"/>
</g>
</svg>
