<?xml version="1.0" encoding="utf-8"?>
<!-- Generator: Adobe Illustrator 21.1.0, SVG Export Plug-In . SVG Version: 6.00 Build 0)  -->
<svg version="1.1" id="Capa_1" xmlns="http://www.w3.org/2000/svg" xmlns:xlink="http://www.w3.org/1999/xlink" x="0px" y="0px"
	 viewBox="0 0 113.4 113.4" style="enable-background:new 0 0 113.4 113.4;" xml:space="preserve">
<style type="text/css">
	.st0{fill:#FFC7AC;}
	.st1{fill:#FF7389;}
	.st2{fill:#7D3444;}
	.st3{fill:#FFFFFF;}
	.st4{fill:#FF9276;}
	.st5{fill:#FFA688;}
	.st6{fill:#261818;}
	.st7{fill:#201717;}
	.st8{fill:#794638;}
</style>
<g id="Maxi">
	<path class="st0" d="M27,30.9l-2.1,20.9l0.3,5.4l0,12.6l2.6,5.5l3.5,16.6l0,0c0.3,1,0.8,1.9,1.5,2.7l0,0
		c4.9,5.7,15.1,12.5,15.1,12.5l0,0c1.1,1,2.6,1.5,4.2,1.5H61c1.6,0,3.1-0.6,4.2-1.5l0,0c0,0,10.2-6.8,15.1-12.5l0,0
		c0.7-0.8,1.2-1.7,1.5-2.7l0,0l3.5-16.6l2.4-5.8v-12l0.6-6.4l-2.3-20.2H27z"/>
	<g id="Boca_2_">
		<path class="st1" d="M69.2,86.7c-0.5,0-4.1,0-5.2,0c-1.1,0-3.7-0.6-4.4-0.9c-0.7-0.3-0.8-0.2-1.2,0s-0.7,0.5-1.9,0.5
			c-1.1,0-1.5-0.3-1.9-0.5s-0.5-0.3-1.2,0c-0.7,0.3-3.3,0.8-4.4,0.9c-1.1,0-4.6,0-5.2,0c-0.5,0-0.7,0.3-0.6,1
			c0.1,0.7,1.3,2.5,4.7,4.8c2.8,1.9,5.6,2.2,8.6,2.2s5.8-0.3,8.6-2.2c3.4-2.3,4.6-4.1,4.7-4.8C69.9,87,69.7,86.7,69.2,86.7z"/>
		<path class="st2" d="M69.1,87.7H44c0,0-0.3,0.2,0.5,0.5c0.8,0.2,1.6,0.6,3.4,1.3c1.8,0.7,2.7,1.7,8.6,1.7l0,0h0l0,0
			c5.9,0,6.8-1,8.6-1.7c1.8-0.7,2.6-1,3.4-1.3S69.1,87.7,69.1,87.7z"/>
		<path class="st3" d="M46.8,87.7c1.4,2,5.2,3.4,9.7,3.4s8.3-1.4,9.7-3.4H46.8z"/>
		<g>
			<path class="st4" d="M56.6,96.5c-2.6,0-5,1.3-6.4,3.2h12.7C61.5,97.7,59.2,96.5,56.6,96.5z"/>
		</g>
	</g>
	<g id="Oreja_der_5_">
		<polygon class="st5" points="86.2,70.7 90.6,70.7 90.6,59.2 87.3,59.2 87.3,69.9 		"/>
		<path class="st0" d="M85.8,66c0.2,0,0.4,0,0.5,0.1c0,0,0,0,0,0c1.1,0.2,2,1.1,2,2.2c0,1.3-0.7,1.9-1.5,2.1
			c0.3,0.1,0.9,0.3,1.9-0.2c1.1-0.5,1.4-1.7,1.5-2.8c0-1,0-7.9,0-7.9l-3,2.8v-4.8l2.1-2.5c0.1-0.1,0.1-0.2,0.2-0.2
			c0.3-0.3,0.7-0.4,1.1-0.4c0.8,0,1.5,0.6,1.5,1.4c0,0,0,12.1,0,12.2c0,0.2,0,1.7-0.7,2.9c-0.6,1-3.1,4-4.6,4.9c0,0-0.3,0.2-0.8,0.2
			c-0.4,0-0.8-0.2-1.1-0.5v-9.2C85.2,66.1,85.5,66,85.8,66z"/>
		<path class="st4" d="M87.9,60.7c0.3-0.4,2-2.2,2-2.3c0.2-0.2,0.6-0.3,0.8-0.1c0.2,0.2,0.3,0.5,0.1,0.7c0,0-1.7,1.9-2,2.3
			c-0.2,0.3-0.4,0.6-0.4,1.7v4.8c0,0.1,0,0.1,0,0.2c-0.1-0.6-0.5-1.1-1.1-1.5V63C87.3,61.8,87.4,61.2,87.9,60.7z"/>
	</g>
	<g id="Oreja_der_6_">
		<polygon class="st5" points="26.9,70.7 22.5,70.7 22.5,59.2 25.7,59.2 25.7,69.9 		"/>
		<path class="st0" d="M27.2,66c-0.2,0-0.4,0-0.5,0.1c0,0,0,0,0,0c-1.1,0.2-2,1.1-2,2.2c0,1.3,0.7,1.9,1.5,2.1
			c-0.3,0.1-0.9,0.3-1.9-0.2c-1.1-0.5-1.4-1.7-1.5-2.8s0-7.9,0-7.9l3,2.8v-5.2c0,0-2.2-2.3-2.3-2.4c-0.3-0.3-0.7-0.4-1.1-0.4
			c-0.8,0-1.5,0.6-1.5,1.4c0,0,0,12.1,0,12.2c0,0.2,0,1.7,0.7,2.9c0.6,1,3.1,4,4.6,4.9c0,0,0.3,0.2,0.8,0.2c0.4,0,0.8-0.2,1.1-0.5
			v-9.2C27.8,66.1,27.5,66,27.2,66z"/>
		<path class="st4" d="M25.2,60.7c-0.3-0.4-2-2.2-2-2.3c-0.2-0.2-0.6-0.3-0.8-0.1c-0.2,0.2-0.3,0.5-0.1,0.7c0,0,1.7,1.9,2,2.3
			c0.2,0.3,0.4,0.6,0.4,1.7v4.8c0,0.1,0,0.1,0,0.2c0.1-0.6,0.5-1.1,1.1-1.5V63C25.8,61.8,25.6,61.2,25.2,60.7z"/>
	</g>
	<g id="Ojos_3_">
		<path class="st4" d="M33.9,55c0,0-1.9,4.1-1.6,4.5c0.7,0.9,2.9,3.3,3.5,3.7c0.6,0.4,1.5,0.5,2.8,0.3c1.3-0.2,10.1-0.9,11.8,0.1
			c1.4,0.8,2.8,4.1,3.1,8l0.4-0.2V55C50.6,52.9,33.9,55,33.9,55z M79.2,55c0,0-16.7-2.1-19.9,0v16.5l0.4,0.2c0.3-3.9,1.6-7.2,3.1-8
			c1.7-1,10.6-0.3,11.8-0.1c1.3,0.2,2.2,0.1,2.8-0.3c0.6-0.4,2.8-2.9,3.5-3.7C81.1,59.1,79.2,55,79.2,55z"/>
		<path class="st6" d="M76.8,59c-0.9-0.9-1.8-1.6-4.5-1.8c-2.2-0.2-5.4-0.2-8.6,0.7c-0.7,0.2-1.4,0.7-1.2,1c0.1,0.4,0.5,0.4,1.5,0.1
			c0.4-0.1,1.2-0.2,1.9-0.3c0,0.1,0,0.5,0,0.6c0,1.2,1,2,2.6,2l2.2,0c1.6,0,2.4-0.7,2.4-2c0-0.1,0-0.6,0-0.7c0.8,0,1.3,0.1,1.7,0.3
			c1.3,0.5,1.6,1.3,1.6,1.5l1.4,0.3C77.7,60.8,77.4,59.5,76.8,59z M49.4,57.9c-3.2-0.9-6.4-0.9-8.6-0.7C38,57.4,37.2,58,36.2,59
			c-0.5,0.5-0.9,1.8-0.9,1.8l1.4-0.3c0.1-0.2,0.3-1,1.6-1.5c0.4-0.1,0.9-0.2,1.7-0.3c0,0.1,0,0.6,0,0.7c0,1.2,0.8,2,2.4,2l2.2,0
			c1.6,0,2.5-0.7,2.6-2c0-0.1,0-0.5,0-0.6c0.7,0,1.5,0.1,1.9,0.3c1,0.3,1.4,0.2,1.5-0.1C50.7,58.6,50,58.1,49.4,57.9z"/>
	</g>
	<g id="Nariz">
		<path class="st5" d="M63.5,74.8c-1.1-0.5-1.3-0.8-2.1-1.7c-0.8-0.9-2.7-2.5-4.9-2.5c-2.2,0-4.1,1.6-4.9,2.5
			c-0.8,0.9-1,1.3-2.1,1.7c-1.1,0.5-1.9,1.2-1.9,2.6s0.9,2.2,2.2,2.6c1.1,0.3,1.6,0.2,2,0.2c0.4,0,1.1-0.1,2.1,0.1
			c0.9,0.2,1.5,0.5,2.5,0.5s1.7-0.3,2.5-0.5c1-0.2,1.6-0.2,2.1-0.1c0.4,0,1,0.1,2-0.2c1.3-0.4,2.2-1.2,2.2-2.6S64.6,75.3,63.5,74.8z
			"/>
		<path class="st4" d="M42.7,82.2c-0.3,1.3-0.6,3.7,0.1,4.4C42.8,86,43,85,43.1,84.4c0.7-3.2,2.3-5.9,4.1-8.2
			C45.1,77.3,43.3,79.8,42.7,82.2z M70.4,82.2c-0.6-2.4-2.4-4.8-4.6-5.9c1.9,2.3,3.4,5,4.1,8.2c0.1,0.6,0.4,1.6,0.3,2.1
			C71.1,85.9,70.8,83.5,70.4,82.2z"/>
		<rect x="53.8" y="55" class="st5" width="5.6" height="16.3"/>
		<ellipse class="st0" cx="56.6" cy="77.3" rx="3.3" ry="1.7"/>
		<path class="st7" d="M51.5,79.1c-0.6-0.2-1.2-0.1-1.3,0.3c-0.1,0.3,0.4,0.7,1,0.9c0.6,0.2,1.2,0.1,1.3-0.3
			C52.5,79.6,52.1,79.2,51.5,79.1z M63,79.3c-0.1-0.3-0.7-0.4-1.3-0.3c-0.6,0.2-1.1,0.6-1,0.9c0.1,0.3,0.7,0.4,1.3,0.3
			S63,79.6,63,79.3z"/>
	</g>
	<path class="st8" d="M51,51.6c-0.1-0.2-0.4-0.3-0.6-0.3c-1.1-0.1-4.6-0.3-5.5-0.2c-3.6,0.5-10,2-10.3,2.2c-0.3,0.2-0.8,1.7-0.8,1.7
		s1.7-0.2,4-0.3c1.9-0.1,4-0.1,6.3,0c5.1,0.1,8.6,0.6,9.3,0.6c0.6,0,0.3-0.5,0.2-0.6C53.5,54.5,51.7,52.4,51,51.6z M68.1,51.2
		c-0.8-0.1-4.3,0.1-5.5,0.2c-0.2,0-0.4,0.1-0.6,0.3c-0.6,0.8-2.4,2.9-2.5,3c-0.1,0.1-0.5,0.7,0.2,0.6c0.6,0,4.2-0.5,9.3-0.6
		c2.3,0,4.5-0.1,6.3,0c2.2,0.1,4,0.3,4,0.3s-0.5-1.5-0.8-1.7C78.2,53.2,71.7,51.7,68.1,51.2z M96.9,36.1c-0.7-3-2.6-10.4-6.8-15.8
		c-0.5-0.7-1.3-1.1-2.2-1.1h-4v-4.4c0-0.8-0.3-1.5-0.9-2C75.6,7,66.3,3.5,56,3.5c-4.2,0-8.3,0.6-12.1,1.7
		C40.7,6.1,26.3,16.3,24,18.6c-2.1,2.1-3.4,5-3.4,8.1c0,1.2,0.2,2.4,0.6,3.5c-2.4,3.3-3.8,7.4-3.8,11.7c0,2.9,0.6,5.7,1.8,8.3
		l4.8-4.7l0,9.7l5.6,6.3l0.1-19.8c0-1,0.4-1.9,1.1-2.6l1.6-1.5c2.6-2.4,6.1-3.8,9.7-3.8l29.8,0.5c0.4,0,0.8,0,1.1-0.2l6.9-2.2
		l1.5,4.4c0.2,0.5,0.5,0.9,0.8,1.3l1.1,1c1.2,1.1,1.4,2.6,1.4,4.2v18.8l4.6-6.7c0.1-0.1,0.1-0.2,0.2-0.2c0.3-0.3,0.7-0.4,1.1-0.4
		c0,0,0,0,0,0v-6.1c0-0.8,0.3-1.6,0.7-2.3l4.9-7.2C96.9,37.9,97.1,37,96.9,36.1z"/>
</g>
</svg>
