<?xml version="1.0" encoding="utf-8"?>
<!-- Generator: Adobe Illustrator 21.1.0, SVG Export Plug-In . SVG Version: 6.00 Build 0)  -->
<svg version="1.1" id="Capa_1" xmlns="http://www.w3.org/2000/svg" xmlns:xlink="http://www.w3.org/1999/xlink" x="0px" y="0px"
	 viewBox="0 0 113.4 113.4" style="enable-background:new 0 0 113.4 113.4;" xml:space="preserve">
<style type="text/css">
	.st0{fill:#FFC7AC;}
	.st1{fill:#FFA688;}
	.st2{fill:#FF9276;}
	.st3{fill:#FF7389;}
	.st4{fill:#7D3444;}
	.st5{fill:#FFFFFF;}
	.st6{fill:#201717;}
	.st7{fill:#352727;}
	.st8{fill:#261818;}
</style>
<g id="Nico_A">
	<path class="st0" d="M83.5,57V33.7c0-2.3-1.8-4.1-4.1-4.1h-45c-2.3,0-4.1,1.8-4.1,4.1V57c0,0-2.9,10.7,2.3,21.8
		c0,0,2.4,10.8,9.1,19.3s15.2,8.7,15.2,8.7s8.6-0.2,15.2-8.7c6.7-8.5,9.1-19.3,9.1-19.3C86.4,67.7,83.5,57,83.5,57z"/>
	<g id="Boca_9_">
		<path class="st1" d="M39,85.6c0,1.5,0.8,2.8,2,3.4l2-7.3c0,0-0.1,0-0.1,0C40.8,81.7,39,83.4,39,85.6z M70.9,81.7c0,0-0.1,0-0.1,0
			l2,7.3c1.2-0.7,2-1.9,2-3.4C74.8,83.4,73,81.7,70.9,81.7z"/>
		<path class="st2" d="M47.8,74.8l-6,5.9C41.9,80.7,44.7,81.5,47.8,74.8z M65.9,74.8c3.1,6.7,6,5.9,6,5.9L65.9,74.8z"/>
		<path class="st3" d="M68.1,86.8c-0.5,0-3.6,0-4.6,0c-1,0-2.9-0.9-3.6-1.1c-0.6-0.2-1.1,0.1-1.4,0.2c-0.3,0.1-0.6,0.3-1.6,0.3
			c-1,0-1.3-0.2-1.6-0.3c-0.3-0.1-0.6-0.5-1.2-0.3c-0.6,0.2-2.8,1.2-3.7,1.2c-1,0-4.1,0-4.6,0c-0.5,0-0.6,0.4-0.6,0.9
			c0.1,0.5,1.1,2.2,4.2,3.9c2.5,1.3,4.9,1.6,7.6,1.6s5.1-0.2,7.6-1.6c3-1.7,4.1-3.4,4.2-3.9C68.7,87.2,68.5,86.8,68.1,86.8z"/>
		<path class="st4" d="M68,87.3H45.8c0,0-0.3,0.2,0.4,0.5c0.7,0.3,1.4,0.6,3,1.3c1.6,0.7,2.4,1.7,7.6,1.7l0,0h0l0,0
			c5.2,0,6-1,7.6-1.7c1.6-0.7,2.3-1.1,3-1.3C68.2,87.5,68,87.3,68,87.3z"/>
		<path class="st5" d="M48.3,87.3c1.2,2.1,4.6,3.6,8.6,3.6s7.4-1.5,8.6-3.6H48.3z"/>
	</g>
	<g id="Oreja_izq_10_">
		<polygon class="st1" points="31.6,74.4 27.1,74.6 26.5,62.4 29.8,62.2 30.4,73.6 		"/>
		<path class="st0" d="M31.7,69.4c-0.2,0-0.4,0-0.6,0.1c0,0,0,0,0,0c-1.1,0.3-2,1.3-2,2.4c0.1,1.4,0.8,1.9,1.6,2.2
			c-0.3,0.1-0.9,0.3-1.9-0.1c-1.2-0.5-1.6-1.8-1.7-2.9c-0.1-1.1-0.5-8.4-0.5-8.4l3.3,2.8l-0.3-5.1c0,0-2.4-2.8-2.5-2.8
			c-0.3-0.3-0.7-0.4-1.1-0.4c-0.8,0-1.5,0.7-1.5,1.5c0,0,0.7,12.9,0.7,13c0,0.2,0.1,1.9,0.9,3.1c0.7,1,3.4,4.1,5,5
			c0,0,0.3,0.2,0.8,0.2c0.4,0,0.8-0.3,1.1-0.6l-0.5-9.8C32.3,69.4,32,69.3,31.7,69.4z"/>
		<path class="st2" d="M29.3,63.8c-0.4-0.4-2.1-2.3-2.2-2.3c-0.2-0.2-0.6-0.2-0.8,0c-0.2,0.2-0.3,0.6,0,0.8c0,0,1.8,1.9,2.2,2.3
			c0.3,0.3,0.4,0.6,0.5,1.8l0.3,5.1c0,0.1,0,0.1,0,0.2c0.1-0.7,0.5-1.3,1.1-1.6l-0.2-3.7C30,64.9,29.8,64.3,29.3,63.8z"/>
	</g>
	<g id="Oreja_der_12_">
		<polygon class="st1" points="82.1,74.4 86.6,74.6 87.3,62.4 84,62.2 83.3,73.6 		"/>
		<path class="st0" d="M82,69.4c0.2,0,0.4,0,0.6,0.1c0,0,0,0,0,0c1.1,0.3,2,1.3,2,2.4c-0.1,1.4-0.8,1.9-1.6,2.2
			c0.3,0.1,0.9,0.3,1.9-0.1c1.2-0.5,1.6-1.8,1.7-2.9c0.1-1.1,0.5-8.4,0.5-8.4l-3.3,2.8l0.3-5.1c0,0,2.4-2.8,2.5-2.8
			c0.3-0.3,0.7-0.4,1.1-0.4c0.8,0,1.5,0.7,1.5,1.5c0,0-0.7,12.9-0.7,13c0,0.2-0.1,1.9-0.9,3.1c-0.7,1-3.4,4.1-5,5
			c0,0-0.3,0.2-0.8,0.2c-0.4,0-0.8-0.3-1.1-0.6l0.5-9.8C81.4,69.4,81.7,69.3,82,69.4z"/>
		<path class="st2" d="M84.4,63.8c0.4-0.4,2.1-2.3,2.2-2.3c0.2-0.2,0.6-0.2,0.8,0c0.2,0.2,0.3,0.6,0,0.8c0,0-1.8,1.9-2.2,2.3
			c-0.3,0.3-0.4,0.6-0.5,1.8l-0.3,5.1c0,0.1,0,0.1,0,0.2c-0.1-0.7-0.5-1.3-1.1-1.6l0.2-3.7C83.8,64.9,83.9,64.3,84.4,63.8z"/>
	</g>
	<g id="Ojos_8_">
		<path class="st2" d="M39.7,56.6c-2.7,1.2-4.2,2.2-4,4.1c0.1,1.1,0.8,2,1.6,2.8c0.8,0.7,2.5,1.6,4.7,1.8c2.2,0.3,4.5,0.4,7-0.6
			c2.5-1,2.9-3.4,3.4-2.1c0.4,1.1,1.3,5.8,1.1,10.2h0.6V57.4C54.1,57.4,42.4,55.4,39.7,56.6z M74.1,56.6c-2.7-1.2-14.4,0.8-14.4,0.8
			v15.4h0.6c-0.2-4.3,0.7-9.1,1.1-10.2c0.5-1.3,0.9,1.1,3.4,2.1c2.5,1,4.8,0.9,7,0.6c2.2-0.3,4-1.1,4.7-1.8c0.8-0.7,1.4-1.7,1.6-2.8
			C78.3,59,76.8,57.8,74.1,56.6z"/>
	</g>
	<g id="Nariz_15_">
		<path class="st1" d="M64,75.5c-1.1-0.5-1.3-0.8-2.1-1.7c-0.8-0.9-2.8-2.2-5-2.2c-2.2,0-4.2,1.3-5,2.2c-0.8,0.9-1,1.2-2.1,1.7
			c-1.1,0.5-1.9,1.1-1.9,2.5c0,1.4,0.9,2.2,2.3,2.5c1.1,0.3,1.7,0.2,2.1,0.2c0.4,0,1.1-0.1,2.1,0.1c0.9,0.2,1.5,0.3,2.6,0.3
			c1.1,0,1.7-0.2,2.6-0.3c1-0.2,1.7-0.2,2.1-0.1c0.4,0,1,0.1,2.1-0.2c1.3-0.4,2.3-1.1,2.3-2.5C65.9,76.6,65.2,75.9,64,75.5z"/>
		<rect x="54.1" y="57.4" class="st1" width="5.5" height="16.8"/>
		<ellipse class="st0" cx="56.9" cy="77.4" rx="3.2" ry="1.8"/>
		<path class="st6" d="M51.5,79.4c-0.7-0.2-1.3-0.1-1.3,0.3c-0.1,0.4,0.4,0.8,1,1c0.7,0.2,1.3,0.1,1.3-0.3
			C52.6,80,52.2,79.6,51.5,79.4z M63.6,79.7c-0.1-0.4-0.7-0.5-1.3-0.3c-0.7,0.2-1.1,0.6-1,1c0.1,0.4,0.7,0.5,1.3,0.3
			C63.2,80.5,63.7,80,63.6,79.7z"/>
	</g>
	<g>
		<path class="st7" d="M69.2,86.6c1,0,1.8-0.8,1.8-1.8c0-1-0.8-1.8-1.8-1.8H64l-3.9-1.4c-0.2-0.1-0.6-0.1-0.6-0.1
			c-1.2,0.1-1.4,0.5-2.6,0.5c-1.2,0-1.6-0.4-2.7-0.5c0,0-0.4,0-0.6,0.1l-3.9,1.4h-5.2c-1,0-1.8,0.8-1.8,1.8c0,1,0.8,1.8,1.8,1.8h5.5
			c0.2,0,0.4,0,0.6-0.1l3.4-1.2c0.3-0.1,0.7-0.1,1,0.1c0.5,0.3,1.1,0.5,1.9,0.5c0.7,0,1.4-0.2,1.9-0.5c0.3-0.2,0.7-0.3,1-0.1
			l3.4,1.2c0.2,0.1,0.4,0.1,0.6,0.1H69.2z"/>
		<path class="st7" d="M56.9,98.6c2.8,0,5.3-1.6,6.6-3.9H50.3C51.6,97,54.1,98.6,56.9,98.6z"/>
		<g>
			<path class="st8" d="M50.7,59.6c-2.4-0.8-6.1-0.6-8.1-0.3c-2.5,0.3-3.3,0.9-4.1,2c-0.8,1.1-0.6,1.6-0.6,1.6l1.4-0.4
				c0.2-0.3,0.7-1,1.3-1.3c0.4-0.1,0.4-0.1,1.1-0.2c0,0,0,0.2,0,0.3c0,1.3,1.2,1.6,2.7,1.6l2.1-0.1c1.4,0,2.7-0.4,2.7-1.8
				c0-0.1-0.1-0.4-0.1-0.4c0.4,0,1,0.1,1.4,0.2c1,0.3,1.3,0.2,1.4-0.2C52,60.3,51.3,59.8,50.7,59.6z M75.2,61.3
				c-0.8-1.1-1.6-1.6-4.1-2c-2-0.3-5.6-0.4-8.1,0.3c-0.6,0.2-1.3,0.7-1.2,1.1c0.1,0.4,0.4,0.5,1.4,0.2c0.4-0.1,1-0.2,1.4-0.2
				c0,0,0,0.2-0.1,0.4c0,1.3,1.2,1.7,2.7,1.8l2.1,0.1c1.4,0,2.6-0.3,2.7-1.6c0-0.1,0-0.3,0-0.3c0.7,0.1,0.8,0.1,1.1,0.2
				c0.7,0.3,1.1,0.9,1.3,1.3l1.4,0.4C75.9,62.9,76,62.4,75.2,61.3z"/>
			<path class="st7" d="M89.1,55.4c-0.6-2-1-4.3-1-6.6c0-1.9,0.2-3.7,0.6-5.3c0.1-0.3,0.2-0.6,0.2-0.9c0.2-0.8,0.4-1.6,0.4-2.4
				c0-0.8-0.1-1.9-0.1-1.9c-0.8-8.5-3.8-18.8-3.8-18.8l0,0c-0.4-1.5-1.3-2.6-2.3-3.3C72.5,8.8,59.7,5.1,56.7,4.8
				c-1-0.1-1.6-0.1-2.4,0C51.7,5,44,7,37.8,11c-0.5,0.3-0.8,0.8-0.9,1.3l-1.5,5.8c-0.1,0.5-0.6,0.9-1.2,1l-2.5,0.2
				c-0.7,0.1-1.3,0.5-1.5,1.1c-0.6,1.4-1.6,3.8-3,5.4c-2,2.4-3.1,3.6-3.7,5.8c-0.6,2.1-0.4,4.3,0,6.5c0.4,2.2,1.2,4.9,1.3,5.2
				c0.4,1.7,0.6,3.5,0.6,5.3c0,2.3-0.3,4.6-1,6.6c0,0.1,0,0.1,0,0.2c-0.2,0.7-0.1,1.4,0.2,2l0.2,0.3c0.2-0.5,0.7-0.8,1.3-0.8
				c0.4,0,0.8,0.1,1.1,0.4c0,0,0.1,0.1,0.3,0.3l3.2,3.6v7.4h2c0,0,0-19.1,0-19.9c0-6.9,2.9-13,7.5-17.4c0.4-0.4,1-0.6,1.5-0.7l7.3-1
				c0.5-0.1,1.1,0,1.6,0.2c2,0.7,4,1.1,6.3,1.1c2.2,0,4.3-0.4,6.3-1.1c0.5-0.2,1-0.2,1.6-0.2l7.3,1c0.6,0.1,1.1,0.3,1.5,0.7
				C78.2,35.8,81,42,81,48.9c0,0.8,0,19.9,0,19.9h2v-7.4l3.2-3.6c0.2-0.2,0.3-0.3,0.3-0.3c0.3-0.3,0.7-0.4,1.1-0.4
				c0.6,0,1,0.4,1.3,0.8h0l0.2-0.5c0.1-0.4,0.2-0.8,0.1-1.3C89.2,55.9,89.2,55.6,89.1,55.4z M53.1,54.3c-0.2,0-2.6-0.1-6.1-0.4
				c-3.3-0.2-4.4-0.3-6,0.2c-1.6,0.4-2.6,0.7-3.3,1.1c-0.7,0.5-2.1,0.9-2,4.8c0,0,0.3-1.8,2.7-2.6c2.6-0.9,5.9-1.1,15.7,0
				c0,0,0.4-0.2,0.2-1.8C54.1,54.6,53.7,54.4,53.1,54.3z M76.1,55.2c-0.7-0.5-1.7-0.7-3.3-1.1c-1.6-0.4-2.7-0.4-6-0.2
				c-3.6,0.2-5.9,0.3-6.1,0.4c-0.6,0.1-1.1,0.3-1.2,1.4c-0.2,1.5,0.2,1.8,0.2,1.8c9.9-1.1,13.1-0.9,15.7,0c2.4,0.8,2.7,2.6,2.7,2.6
				C78.2,56.1,76.8,55.7,76.1,55.2z"/>
		</g>
		<path class="st7" d="M66.4,102.9c-1,0.8-2.3,1.3-3.7,1.3c-0.4,0-0.8,0-1.2-0.1c-1.5-0.3-3-0.5-4.6-0.5s-3.1,0.2-4.6,0.5
			c-0.4,0.1-0.8,0.1-1.2,0.1c-1.4,0-2.7-0.5-3.7-1.3c-2.4-1.8-7.6-7.3-7.4-7.1c0,0,2.6,7.2,4.9,10.2c0.9,1.3,2.3,2.2,4,2.5l0,0
			c0,0,3.8,0.8,8.1,0.8s8.1-0.8,8.1-0.8l0,0c1.6-0.3,3-1.2,4-2.5c2.2-2.9,4.9-10.2,4.9-10.2C74,95.7,68.8,101.1,66.4,102.9z"/>
	</g>
</g>
</svg>
