<?xml version="1.0" encoding="utf-8"?>
<!-- Generator: Adobe Illustrator 21.1.0, SVG Export Plug-In . SVG Version: 6.00 Build 0)  -->
<svg version="1.1" id="Capa_1" xmlns="http://www.w3.org/2000/svg" xmlns:xlink="http://www.w3.org/1999/xlink" x="0px" y="0px"
	 viewBox="0 0 113.4 113.4" style="enable-background:new 0 0 113.4 113.4;" xml:space="preserve">
<style type="text/css">
	.st0{fill:#F8C6AC;}
	.st1{fill:#FF7389;}
	.st2{fill:#7D3444;}
	.st3{fill:#FFFFFF;}
	.st4{fill:#FFA688;}
	.st5{fill:#FF9276;}
	.st6{fill:#201717;}
	.st7{fill:#FFC7AC;}
	.st8{fill:#B89453;}
	.st9{fill:#794638;}
	.st10{fill:#A8A7A7;}
</style>
<g id="Ro">
	<path class="st0" d="M86.1,59.4l-0.8-20c0-9.1-7.4-16.5-16.5-16.5c-1.7,0-2.5,0.7-4.1,1.2c-2.7-1.2-7.6-2.3-12-2.3
		c-4.2,0-7.4,0.3-12.5,2.3c-3.1,1.3-10.2,5.8-10.2,15.3l-3.9,21.3v16.4l3.9,6.4c0,0,2.2,8.3,6.3,14.2c3.7,5.3,10.3,12.6,10.3,12.6
		c0.9,1,2.2,1.6,3.6,1.6h14.9c1.4,0,2.7-0.6,3.6-1.6c0,0,6.6-7.3,10.3-12.6c3.7-5.4,6.3-12,6.7-13.2c0.2-0.5,0.4-0.9,0.6-2.1
		C87.9,74.6,86.1,59.4,86.1,59.4z"/>
	<g id="Boca_10_">
		<path class="st1" d="M70.8,88.2c-0.6,0-4.2,0-5.3,0c-1.1,0-3.9-1.2-4.6-1.5c-0.7-0.3-0.8-0.2-1.2,0c-0.4,0.2-0.7,0.6-1.9,0.6
			c-1.2,0-1.5-0.3-1.9-0.6c-0.4-0.2-0.5-0.3-1.2,0c-0.7,0.3-3.5,1.4-4.6,1.5c-1.1,0-4.8,0-5.3,0c-0.6,0-0.7,0.7-0.6,1.5
			c0.1,0.8,1.3,3.6,4.9,6.3c2.9,2.2,5.8,2.5,8.9,2.5c3.1,0,6-0.4,8.9-2.5c3.5-2.7,4.8-5.5,4.9-6.3C71.5,88.9,71.3,88.2,70.8,88.2z"
			/>
		<path class="st2" d="M70.7,90H44.7c0,0-0.3,0.2,0.5,0.5c0.8,0.3,1.7,0.7,3.5,1.5c1.9,0.8,2.8,1.9,8.9,1.9l0,0h0l0,0
			c6.1,0,7.1-1.1,8.9-1.9c1.9-0.8,2.7-1.2,3.5-1.5C71,90.2,70.7,90,70.7,90z"/>
		<path class="st3" d="M47.7,90c1.4,2.3,5.4,3.9,10,3.9s8.6-1.6,10-3.9H47.7z"/>
		<path class="st4" d="M75.1,88.5c-0.8-1.6-2.6-2.5-4.4-2.2l3.6,7.1C75.5,92,76,90.1,75.1,88.5z M40.5,88.5
			c-0.8,1.6-0.4,3.6,0.9,4.9l3.6-7.1C43.1,86,41.3,86.8,40.5,88.5z M57.7,99.9c-2.3,0-4.2,1.4-4.9,3.5h9.8
			C61.9,101.3,60,99.9,57.7,99.9z"/>
	</g>
	<g id="Ojos_14_">
		<path class="st5" d="M35.2,55.7c-4.5,2.4-5.4,5.6-5.4,5.6c0.2,1.5,3.2,6.7,7.6,6.8c2.9,0.1,7.3,0.2,10.7,0.3
			c1.3,0,3.4-1.6,3.4-1.6c1.4,2.1,2.3,8,2.3,8h0.8l0.7-15.7l-1.6-0.9C53.8,58.2,39.7,53.2,35.2,55.7z M80.2,55.7
			c-4.5-2.4-18.6,2.5-18.6,2.5L60,59.1l0.7,15.7h0.8c0,0,0.9-5.9,2.3-8c0,0,2.1,1.6,3.4,1.6c3.5,0,7.8-0.2,10.7-0.3
			c4.4-0.1,7.4-5.3,7.6-6.8C85.6,61.3,84.7,58.1,80.2,55.7z"/>
		<path class="st6" d="M38.2,60.9c-0.5,0.1-2.4,0.7-3.2,3.7l1.4,0.2c0.5-1.9,1.6-2.5,2.1-2.6c0.1,0,0.6,0,1.3-0.1l0,2
			c0,0.3,0.2,0.5,0.5,0.5H48c0.3,0,0.5-0.2,0.5-0.5v-2.1c1.8,0,3.1,0,3.1,0l0-1.2C51.6,60.8,38.8,60.7,38.2,60.9z M77.2,60.9
			c-0.5-0.1-13.4,0-13.4,0l0,1.2c0,0,1.3,0,3.1,0v2.1c0,0.3,0.2,0.5,0.5,0.5h7.7c0.3,0,0.5-0.2,0.5-0.5v-2c0.7,0,1.2,0,1.3,0.1
			c0.5,0.1,1.6,0.7,2.1,2.6l1.4-0.2C79.6,61.5,77.7,61,77.2,60.9z"/>
	</g>
	<g id="Nariz_11_">
		<path class="st4" d="M65,76.6c-1.2-0.5-1.3-0.9-2.2-1.9c-0.8-1-2.8-2.4-5.1-2.4c-2.3,0-4.3,1.4-5.1,2.4c-0.8,1-1,1.4-2.2,1.9
			s-2,1.3-2,2.8c0,1.6,0.9,2.4,2.3,2.8c1.1,0.4,1.7,0.2,2.1,0.2c0.4,0,1.2-0.1,2.2,0.2c0.9,0.2,1.5,0.6,2.6,0.6
			c1.1,0,1.7-0.4,2.6-0.6c1-0.2,1.7-0.2,2.2-0.2c0.4,0,1,0.2,2.1-0.2c1.4-0.4,2.3-1.3,2.3-2.8C66.9,77.9,66.1,77.1,65,76.6z"/>
		<polygon class="st4" points="55.4,59.1 54.6,75.9 60.8,75.9 60,59.1 		"/>
		<ellipse class="st7" cx="57.7" cy="79.1" rx="3.1" ry="1.8"/>
		<path class="st6" d="M52.1,81.1c-0.8-0.2-1.5-0.1-1.6,0.3c-0.1,0.4,0.4,0.8,1.2,1c0.8,0.2,1.5,0.1,1.6-0.3
			C53.4,81.8,52.9,81.3,52.1,81.1z M64.9,81.4c-0.1-0.4-0.8-0.5-1.6-0.3c-0.8,0.2-1.3,0.7-1.2,1c0.1,0.4,0.8,0.5,1.6,0.3
			C64.5,82.3,65,81.8,64.9,81.4z"/>
	</g>
	<path class="st8" d="M97.9,33.2C97.9,33.2,97.9,33.2,97.9,33.2c-3.8-4.1-8.3-5.8-11.6-8.7s-6.8-6.4-8.6-8.9c-3-4.2-5.3-6.6-7.3-7.6
		l0,0C66.4,5.6,59.7,4.1,52,4.1c-8.9,0-16.5,2.1-20,5.1c-1.5,1.2-2.4,3-2.4,5c0,0.5,0.1,1.1,0.3,1.9c-0.5-0.1-0.9-0.1-1.4-0.1
		c-3.4,0-6.3,1.4-8.2,3.9c0,0-1,1.4-1.7,2.8c-1.4,3.1-2.2,6.1-5.9,14.3c-3.2,7.2-5.2,9-6.3,11.8c-0.9,2.2-1.1,3.3-1.1,5.8
		c0,4.4,2,8.4,5.2,11.1c2.5,2,10.2,8.1,13.6,8.1c0.7,0,1.3-0.1,1.8-0.2V60.7l3.9-21.3c0-6.9,4.3-12.3,8.9-14.7
		c-0.6-3.7-3.2-6.8-6.6-8.1c0.3-0.9,0.9-1.8,1.7-2.5c0.3-0.3,1-0.9,2.4-1.5c1.9-0.9,4.6-1.3,7.9-1.3c9.6,0,17.7,6,20.9,14.4
		c0,0,1.2,3,1.5,3.9c4.3,12.4,13.6,22.4,25.4,27.6c1.2,0.5,4.5,2.4,6.8,4.5c2.6,2.1,4.4,5.2,4.7,8.8c2.2-4.3,3.4-9.2,3.4-14.4
		C107.3,47.1,103.7,39,97.9,33.2z"/>
	<g id="Oreja_izq_13_">
		<polygon class="st4" points="28.3,77.1 23,77.4 22.3,63 26.2,62.8 26.9,76.2 		"/>
		<path class="st7" d="M28.4,71.2c-0.2,0-0.4,0.1-0.7,0.1c0,0,0,0,0,0c-1.3,0.4-2.4,1.5-2.3,2.8c0.1,1.6,0.9,2.3,1.9,2.6
			c-0.3,0.2-1.1,0.4-2.2-0.1c-1.4-0.6-1.8-2.1-2-3.4c-0.1-1.3-0.5-9.9-0.5-9.9l3.8,3.2l-0.3-6c0,0-2.8-3.2-2.9-3.3
			c-0.3-0.3-0.8-0.5-1.3-0.5c-1,0.1-1.7,0.9-1.7,1.8c0,0,0.8,15.1,0.8,15.2c0,0.3,0.1,2.2,1.1,3.6c0.8,1.2,3.9,4.8,5.8,5.8
			c0,0,0.3,0.3,0.9,0.2c0.5,0,1-0.3,1.2-0.7l-0.6-11.5C29.1,71.2,28.8,71.2,28.4,71.2z"/>
		<path class="st5" d="M25.6,64.7c-0.4-0.5-2.5-2.6-2.6-2.7c-0.3-0.3-0.7-0.3-1,0c-0.3,0.2-0.3,0.7,0,0.9c0,0,2.1,2.2,2.6,2.7
			c0.3,0.3,0.5,0.8,0.5,2.1l0.3,5.9c0,0.1,0,0.1,0.1,0.2c0.1-0.8,0.6-1.5,1.2-1.9l-0.2-4.3C26.4,66,26.2,65.3,25.6,64.7z"/>
	</g>
	<path class="st9" d="M52.8,21.7c4.3,0,9.1,1.1,11.9,2.2c-3.6-7.6-11.3-12.8-20.2-12.8c-3.3,0-6,0.5-7.9,1.3
		c-1.5,0.6-2.1,1.2-2.4,1.5c-1.7,1.5-2.4,3.7-1.9,5.7c0,0,0.5,1.7,1,2.9c0.5,1.2,1.5,3.2,2.4,4.5c1.5-1.3,3.1-2.4,4.8-3
		C45.4,22.1,48.6,21.7,52.8,21.7z M28.3,46c-2.2,8.6-5,11.5-5,11.5l3.9,4.4c0,0,2.5-7.8,3-11.5c0.6-4.1-0.1-11.3,0.4-15.3
		C30.8,33.9,29.8,40.1,28.3,46z M99.2,61.6c-2.4-2.1-5.7-3.9-6.8-4.5c-2.2-1-4.4-2.1-6.4-3.4l0.2,5.7c0,0,1.7,15.2,0.2,22.9
		c-0.2,1.2-0.4,1.6-0.6,2.1c-0.1,0.3-0.4,1.1-0.8,2.2c8.3-2.7,15.1-8.6,19-16.3C103.5,66.8,101.8,63.7,99.2,61.6z M45.4,53.2
		c-5.3-1-10.9,0.3-10.9,0.3s-0.5-0.1-1.2,0.4s-3,3.8-3.5,7.4c0,0,1.7-2,2.4-2.7c0.7-0.7,1.9-2,3.6-2.1c3-0.2,5.2-0.8,18,1.6
		C53.8,58.2,50.7,54.2,45.4,53.2z M82.1,54c-0.6-0.5-1.2-0.4-1.2-0.4s-5.6-1.3-10.9-0.3c-5.3,1-8.4,5-8.4,5c12.8-2.5,15-1.8,18-1.6
		c1.6,0.1,2.8,1.3,3.6,2.1c0.7,0.7,2.4,2.7,2.4,2.7C85.2,57.8,82.8,54.4,82.1,54z"/>
	<path id="Anteojos_1_" class="st6" d="M89.1,60.8c-0.4-5.2-6.2-8.7-14.4-8.7c-7.9,0-13.4,2.6-14.7,6.8c-0.7-0.4-1.5-0.6-2.4-0.6
		c-0.8,0-1.6,0.2-2.3,0.6c-1.3-4.2-6.8-6.8-14.6-6.8c-8.2,0-14,3.5-14.4,8.7c-0.1,1.7,0,4.2,0.2,5.4c1,5.7,7.2,9.8,14.8,9.8
		c8.2,0,12.7-3.2,13.9-9.7c0.3-1.8,0.4-4,0.4-5.4c0-0.1,0-0.2,0-0.2c0.6-0.5,1.3-0.8,2.1-0.8c0.8,0,1.5,0.3,2.1,0.8
		c0,0.1,0,0.1,0,0.2c0,1.3,0.1,3.6,0.4,5.4c1.2,6.5,5.7,9.7,13.9,9.7c7.6,0,13.8-4.1,14.8-9.8C89.1,65,89.3,62.5,89.1,60.8z
		 M53.7,66c-1,5.7-4.9,8.4-12.3,8.4c-6.8,0-12.4-3.6-13.3-8.5c-0.2-1.1-0.3-3.5-0.2-5c0.3-4.2,5.6-7.2,12.8-7.2
		c8.1,0,13.4,2.8,13.4,7.2C54.1,62.2,54,64.3,53.7,66z M87.4,65.9c-0.9,4.9-6.5,8.5-13.3,8.5c-7.4,0-11.3-2.7-12.3-8.4
		c-0.3-1.7-0.4-3.8-0.4-5.1c0-4.4,5.2-7.2,13.4-7.2c7.2,0,12.5,3,12.8,7.2C87.7,62.5,87.6,64.9,87.4,65.9z"/>
	<path id="Aro" class="st10" d="M57.7,85.3c-2.1,0-3.8-1.3-3.8-2.9l0.8,0.1c0,1.1,1.4,2,3,2s3-0.9,3-2l0.8-0.1
		C61.5,84,59.8,85.3,57.7,85.3z"/>
</g>
</svg>
