<?xml version="1.0" encoding="utf-8"?>
<!-- Generator: Adobe Illustrator 21.1.0, SVG Export Plug-In . SVG Version: 6.00 Build 0)  -->
<svg version="1.1" id="Capa_1" xmlns="http://www.w3.org/2000/svg" xmlns:xlink="http://www.w3.org/1999/xlink" x="0px" y="0px"
	 viewBox="0 0 113.4 113.4" style="enable-background:new 0 0 113.4 113.4;" xml:space="preserve">
<style type="text/css">
	.st0{fill:#FFC7AC;}
	.st1{fill:#FF9276;}
	.st2{fill:#261818;}
	.st3{fill:#FFA688;}
	.st4{fill:#A8A7A7;}
	.st5{fill:#201717;}
	.st6{fill:#FF7389;}
	.st7{fill:#1D1D1B;}
</style>
<g id="Sergio">
	<path class="st0" d="M57.9,4.2c-21,0-38,14.6-38,32.6v33l3.8,6.8h0.1v2.1c0,0-0.2,7.1,5.3,14c7.7,9.6,13.7,14.8,18.7,16.1
		c2.7,0.7,6.6,0.9,10.1,0.9c3.6,0,7.5-0.3,10.1-0.9c5-1.3,11-6.5,18.7-16.1c5.5-6.9,5.3-14,5.3-14v-2.1h0.1l3.8-6.8v-33
		C95.9,18.7,78.9,4.2,57.9,4.2z"/>
	<g id="Ojos_7_">
		<path class="st1" d="M73.9,46.9c-10.7,0.5-12.6,3.5-12.6,3.5s-1,3.7-1,11s1,8.2,1,8.2h0.8c0,0,0.7-6.1,0.9-7.7
			c0.2-1.6,1.3-2.7,1.9-2.2c1.1,0.8,5.9,2.9,11.7,1.4c4-1.1,8-5.5,9.3-6.9C85.9,54.2,84.6,46.4,73.9,46.9z M41.8,46.9
			c-10.7-0.5-12,7.4-12,7.4c1.2,1.4,5.3,5.8,9.3,6.9c5.8,1.5,10.7-0.5,11.7-1.4c0.7-0.5,1.7,0.6,1.9,2.2c0.2,1.6,0.9,7.7,0.9,7.7
			h0.8c0,0,1-0.9,1-8.2s-1-11-1-11S52.5,47.4,41.8,46.9z"/>
		<path class="st2" d="M48.8,53.6c-2.7-1-6.8-0.9-9-0.7c-2.8,0.3-3.7,1-4.6,2.3c-0.9,1.3-0.8,1.9-0.8,1.9l1.6-0.4
			c0.2-0.4,0.8-1.2,1.5-1.5c0.4-0.2,1.7-0.7,4.1-0.5l0,0.9c0,1,0.7,1.6,1.8,1.7l0.6,0c2.1,0,2.8-0.4,2.8-2c0-0.2,0-0.3,0-0.4
			c0.7,0,1.3,0.1,1.8,0.3c1.1,0.4,1.4,0.3,1.5-0.2C50.2,54.4,49.5,53.8,48.8,53.6z M80.1,55.2c-0.9-1.3-1.8-1.9-4.6-2.3
			c-2.2-0.3-6.3-0.3-9,0.7c-0.7,0.3-1.4,0.9-1.3,1.3c0.1,0.5,0.4,0.5,1.5,0.2c1.6-0.4,3.2-0.5,4.9-0.5v0.1l0,0.9
			c0,1,0.7,1.6,1.8,1.7l0.6,0c2.1,0,2.8-0.4,2.8-2c0-0.1,0-0.2,0-0.3c0.5,0.1,0.9,0.2,1,0.2c0.8,0.3,1.3,1.1,1.5,1.5l1.6,0.4
			C80.9,57.1,81,56.4,80.1,55.2z"/>
	</g>
	<g id="Oreja_der_11_">
		<polygon class="st3" points="23.7,71 18.5,71 18.5,56.5 22.3,56.5 22.3,70 		"/>
		<path class="st0" d="M24.1,65.1c-0.2,0-0.4,0-0.6,0.1c0,0,0,0,0,0c-1.3,0.3-2.4,1.4-2.4,2.7c0,1.6,0.8,2.3,1.7,2.7
			c-0.3,0.1-1.1,0.3-2.2-0.2c-1.4-0.7-1.7-2.2-1.7-3.5c0-1.3,0-10,0-10l3.6,3.5v-6.1c0,0-2.6-3.4-2.7-3.5c-0.3-0.3-0.8-0.5-1.3-0.5
			c-1,0-1.8,0.8-1.8,1.7c0,0,0,15.3,0,15.4c0,0.3,0,2.2,0.9,3.7c0.7,1.2,3.6,5.1,5.4,6.2c0,0,0.3,0.3,0.9,0.3c0.5,0,1-0.2,1.3-0.6
			V65.3C24.8,65.2,24.5,65.1,24.1,65.1z"/>
		<path class="st1" d="M21.7,58.3c-0.4-0.5-2.3-2.8-2.4-2.9c-0.2-0.3-0.7-0.3-1-0.1C18,55.6,18,56,18.2,56.3c0,0,2,2.4,2.4,2.9
			c0.3,0.4,0.4,0.8,0.4,2.1v6c0,0.1,0,0.1,0,0.2c0.1-0.8,0.6-1.5,1.3-1.9v-4.4C22.4,59.7,22.2,59,21.7,58.3z"/>
	</g>
	<g id="Oreja_izq_8_">
		<polygon class="st3" points="92,71 97.2,71 97.2,56.5 93.4,56.5 93.4,70 		"/>
		<path class="st0" d="M91.6,65.1c0.2,0,0.4,0,0.6,0.1c0,0,0,0,0,0c1.3,0.3,2.4,1.4,2.4,2.7c0,1.6-0.8,2.3-1.7,2.7
			c0.3,0.1,1.1,0.3,2.2-0.2c1.4-0.7,1.7-2.2,1.7-3.5c0-1.3,0-10,0-10l-3.6,3.5v-6.1c0,0,2.6-3.4,2.7-3.5c0.3-0.3,0.8-0.5,1.3-0.5
			c1,0,1.8,0.8,1.8,1.7c0,0,0,15.3,0,15.4c0,0.3,0,2.2-0.9,3.7c-0.7,1.2-3.6,5.1-5.4,6.2c0,0-0.3,0.3-0.9,0.3c-0.5,0-1-0.2-1.3-0.6
			V65.3C90.9,65.2,91.2,65.1,91.6,65.1z"/>
		<path class="st1" d="M94,58.3c0.4-0.5,2.3-2.8,2.4-2.9c0.2-0.3,0.7-0.3,1-0.1c0.3,0.2,0.3,0.7,0.1,0.9c0,0-2,2.4-2.4,2.9
			c-0.3,0.4-0.4,0.8-0.4,2.1v6c0,0.1,0,0.1,0,0.2c-0.1-0.8-0.6-1.5-1.3-1.9v-4.4C93.3,59.7,93.5,59,94,58.3z"/>
	</g>
	<path class="st4" d="M74.9,7.6c4.3,2.8,7.9,6.7,10.3,11.3c4.5,4.9,7.2,11.1,7.2,17.8v15.5l-2.2,3v10.4h1.7v-9.5l3.9-5.2V36.7
		C95.9,24,87.4,13,74.9,7.6z M19.8,36.7v14.2l3.9,5.2v9.5h1.7v-10l-2.2-3.4V36.7c0-6.7,2.7-12.9,7.2-17.8c2.4-4.6,6-8.5,10.3-11.3
		C28.4,13,19.8,24,19.8,36.7z M63.9,96.7C63.9,96.6,63.9,96.6,63.9,96.7l0,8c0,1-0.2,1.9-0.7,2.8c-0.1,0.2,0.1,0.5,0.3,0.4
		c4.9-1.2,8.4-3.8,8.4-6.9v-5.8c-2.4,1.5-5.7,2.6-6.3,2.6C65.2,97.8,64.4,97.1,63.9,96.7z M51.8,104.7v-8.1c0,0,0,0,0,0
		c-0.5,0.4-1.3,1.2-1.8,1.2c-0.6,0-3.9-1.1-6.3-2.6v5.8c0,3.1,3.5,5.7,8.4,6.9c0.3,0.1,0.5-0.2,0.3-0.4
		C52.1,106.6,51.8,105.7,51.8,104.7z"/>
	<g id="Nariz_10_">
		<path class="st3" d="M66.1,72.1c-1.3-0.5-1.5-0.9-2.4-1.9c-0.9-1-3.2-2.4-5.8-2.4c-2.6,0-4.9,1.4-5.8,2.4c-0.9,1-1.1,1.4-2.4,1.9
			c-1.3,0.5-2.2,1.3-2.2,2.8c0,1.6,1.1,2.4,2.6,2.8c1.3,0.4,1.9,0.2,2.4,0.2c0.5,0,1.3-0.1,2.4,0.2c1,0.2,1.7,0.6,3,0.6
			c1.3,0,2-0.4,3-0.6c1.1-0.2,1.9-0.2,2.4-0.2c0.5,0,1.1,0.2,2.4-0.2c1.5-0.4,2.6-1.3,2.6-2.8C68.3,73.4,67.4,72.6,66.1,72.1z"/>
		<path class="st3" d="M61.3,50.3h-7c0,0,0.4,8.3,0.3,12.6c-0.1,4.3-0.3,5.7-0.3,5.7h7c0,0-0.2-1.2-0.3-5.5
			C60.9,58.9,61.3,50.3,61.3,50.3z"/>
		<path class="st1" d="M68.4,72c4.3,9.4,8.3,8.3,8.3,8.3L68.4,72z M47.4,72l-8.3,8.3C39.1,80.3,43,81.4,47.4,72z"/>
		<ellipse class="st0" cx="57.9" cy="74.2" rx="4" ry="2"/>
		<path class="st5" d="M59.6,62c-0.5,0-0.9,0.4-0.9,0.9c0,0.5,0.4,0.9,0.9,0.9c0.5,0,0.9-0.4,0.9-0.9C60.6,62.4,60.2,62,59.6,62z
			 M51.1,76.4c-0.8-0.2-1.6-0.1-1.7,0.3c-0.1,0.4,0.5,0.9,1.3,1.1c0.8,0.2,1.6,0.1,1.7-0.3C52.5,77.1,51.9,76.6,51.1,76.4z
			 M66.3,76.7c-0.1-0.4-0.9-0.5-1.7-0.3c-0.8,0.2-1.4,0.7-1.3,1.1c0.1,0.4,0.9,0.5,1.7,0.3C65.8,77.6,66.4,77.1,66.3,76.7z"/>
	</g>
	<g id="Boca_6_">
		<path class="st6" d="M49,91.1c0.8,0.8,2.2,1.7,3.5,1.7h10.7c1.3,0,2.7-0.9,3.5-1.7c0.6-0.6,1.8-2.1,2.4-2.8H46.6
			C47.2,89,48.4,90.5,49,91.1z"/>
		<path class="st6" d="M71,86.6c-0.4,0-4.9-0.4-6.3-0.9c-1.4-0.4-4.2-1.7-4.3-1.7c-0.1,0-0.2-0.1-0.4,0c-0.2,0.1-0.4,0.2-0.5,0.3
			c-0.6,0.5-1.4,0.5-1.7,0.5c-0.2,0-1,0-1.7-0.5c-0.1-0.1-0.3-0.3-0.5-0.3c-0.2-0.1-0.3,0-0.4,0c-0.1,0-2.9,1.3-4.3,1.7
			c-1.4,0.4-5.9,0.8-6.3,0.9c-0.6,0-0.8,1.4,0,1.6c0.1,0,26.2,0,26.4,0C71.8,88,71.6,86.6,71,86.6z"/>
		<path class="st7" d="M57.8,89.3c-2.3,0-3.3-1-3.6-1.4c-0.9,0.3-3.2,0.8-4.8,0.8c-2.6,0-4.8-0.4-4.9-0.4c-0.2,0-0.3-0.2-0.3-0.4
			c0-0.2,0.2-0.3,0.4-0.3c0,0,2.2,0.4,4.7,0.4c1.8,0,4.1-0.6,4.7-0.8c0.3-0.1,0.5,0.1,0.6,0.2c0.3,0.4,1.1,1.2,3.1,1.2
			c2,0,2.8-0.8,3.1-1.2c0.1-0.1,0.3-0.3,0.6-0.2c0.6,0.2,3,0.8,4.7,0.8c2.5,0,4.7-0.4,4.8-0.4c0.2,0,0.4,0.1,0.4,0.3
			c0,0.2-0.1,0.4-0.3,0.4c-0.1,0-2.3,0.4-4.9,0.4c-1.6,0-3.9-0.5-4.8-0.8C61.1,88.3,60.2,89.3,57.8,89.3z"/>
	</g>
	<path class="st5" d="M85.9,54.2c-0.5-4.5-2.4-7.4-2.4-7.4s-2.6-2.3-9-2.5c-6.4-0.2-11.1,2-11.1,2l-2,4c0,0,5.4-2.7,9.9-2.7
		c4.5,0,8.9,0,11.1,1.9C84.5,51.4,85.9,54.2,85.9,54.2z M57.9,4.2c-21,0-38,14.6-38,32.6v14.2l1.5,2V36.7c0-17.1,16.4-31,36.5-31
		s36.5,13.9,36.5,31v16.2l1.5-2V36.7C95.9,18.7,78.9,4.2,57.9,4.2z M33.4,49.5c2.2-1.9,6.6-1.9,11.1-1.9s9.9,2.7,9.9,2.7l-2-4
		c0,0-4.7-2.2-11.1-2c-6.4,0.2-9,2.5-9,2.5s-1.9,2.9-2.4,7.4C29.8,54.2,31.2,51.4,33.4,49.5z M91.9,65.6h-1.7v13l0,0l0,0
		c0,0.1,0.1,6.6-4.9,12.9c-3.2,4-6.1,7.2-8.7,9.7c-0.2-1.4-0.9-2.5-1.6-3.6c-1.4-2.1-1.5-4.6-1.5-7c0-2,0.6-5.2,0.7-6.4
		c0.2-1.5-0.8-2.5-2.5-2.9c-1.6-0.4-11.7-3.4-11.7-3.4h-4.6c0,0-10.1,3.1-11.7,3.4c-1.7,0.4-2.7,1.4-2.5,2.9
		c0.1,1.2,0.7,4.4,0.7,6.4c0,2.4-0.1,4.8-1.5,7c-0.7,1.1-1.4,2.2-1.6,3.6c-2.6-2.5-5.5-5.7-8.7-9.7c-5-6.3-4.9-12.8-4.9-12.9l0,0
		V65.6h-1.7v13c0,0-0.2,7.1,5.3,14c3.8,4.7,7.2,8.4,10.2,11.1c0.5,1.6,1.7,2.7,2.9,3.5c1.3,0.9,4.2,2.2,6.8,2.7
		c2.7,0.5,6.3,0.8,8.9,0.8c2.5,0,6.2-0.2,8.9-0.8s5.5-1.8,6.8-2.7c1.2-0.8,2.4-1.8,2.9-3.5c3.1-2.7,6.4-6.3,10.2-11.1
		c5.5-6.9,5.3-14,5.3-14V65.6z M72,101c0,3.1-3.5,5.7-8.4,6.9c-0.3,0.1-0.5-0.2-0.3-0.4c0.4-0.8,0.7-1.8,0.7-2.8v-8.1
		c-0.2-0.3-1-2.3-1.6-2.3h-8.9c-0.5,0-1.3,2.1-1.6,2.3v8.1c0,1,0.2,1.9,0.7,2.8c0.1,0.2-0.1,0.5-0.3,0.4c-4.9-1.2-8.4-3.8-8.4-6.9
		V85.7c2.4-0.3,8.2-1.8,11.3-3.6c0.1-0.1,0.3,0,0.3,0.1c0.5,0.8,1.4,1.4,2.5,1.4s2-0.6,2.5-1.4c0.1-0.1,0.2-0.2,0.3-0.1
		c3.1,1.8,8.9,3.3,11.3,3.6V101z"/>
</g>
</svg>
