<?xml version="1.0" encoding="utf-8"?>
<!-- Generator: Adobe Illustrator 21.1.0, SVG Export Plug-In . SVG Version: 6.00 Build 0)  -->
<svg version="1.1" id="Capa_1" xmlns="http://www.w3.org/2000/svg" xmlns:xlink="http://www.w3.org/1999/xlink" x="0px" y="0px"
	 viewBox="0 0 113.4 113.4" style="enable-background:new 0 0 113.4 113.4;" xml:space="preserve">
<style type="text/css">
	.st0{fill:#FFC7AC;}
	.st1{fill:#FFA688;}
	.st2{fill:#FF7389;}
	.st3{fill:#7D3444;}
	.st4{fill:#FFFFFF;}
	.st5{fill:#261818;}
	.st6{fill:#FF9276;}
	.st7{fill:#211717;}
	.st8{fill:#201717;}
</style>
<g id="Sherman">
	<path class="st0" d="M90.5,63.6c0-3.8-2.3-7-5.6-8.4V30.9c0-3.5-2.3-5.7-5-5.7H34.2c-2.8,0-5,2.3-5,5v25.1
		c-3.2,1.4-5.4,4.6-5.4,8.4c0,3.9,2.4,7.1,5.7,8.5c1.7,16.6,9.5,29.1,18.8,29.1c1.6,0,5.2,3.9,8.8,3.9c3.6,0,7.2-3.9,8.8-3.9
		c9.4,0,17.2-12.7,18.8-29.1C88.1,70.9,90.5,67.5,90.5,63.6z"/>
	<g id="boca_5_">
		<path class="st1" d="M71.7,81.6c-0.1,0-0.2,0-0.4,0l1.4,7c1.5-0.4,2.6-1.8,2.6-3.4C75.3,83.2,73.7,81.6,71.7,81.6z M39,85.2
			c0,1.6,1.1,3,2.6,3.4l1.4-7c-0.1,0-0.2,0-0.4,0C40.6,81.6,39,83.2,39,85.2z"/>
		<path class="st2" d="M69.7,85.8l-0.3,1.2c0.2,0.1,0.4,0.1,0.6,0l2.6-1.8c0.3-0.2,0.3-0.5,0.1-0.8c-0.2-0.3-0.5-0.3-0.8-0.1
			L69.7,85.8z"/>
		<path class="st2" d="M42.5,84.2c-0.3-0.2-0.6-0.1-0.8,0.1c-0.2,0.3-0.1,0.6,0.1,0.8l2.6,1.8c0.2,0.1,0.4,0.1,0.6,0l-0.3-1.2
			L42.5,84.2z"/>
		<path class="st2" d="M69.5,85.4c-0.5,0-3.9,0-5,0c-1.1,0-3.6-0.9-4.3-1.1c-0.7-0.2-0.8-0.2-1.2,0c-0.4,0.2-0.7,0.4-1.8,0.4
			c-1.1,0-1.4-0.3-1.8-0.4c-0.4-0.2-0.5-0.2-1.2,0c-0.7,0.2-3.2,1.1-4.3,1.1c-1.1,0-4.5,0-5,0c-0.5,0-0.7,0.5-0.6,1.1
			c0.1,0.6,1.2,2.8,4.6,4.9c2.7,1.7,5.4,2,8.3,2s5.6-0.3,8.3-2c3.3-2.1,4.5-4.3,4.6-4.9C70.2,85.9,70,85.4,69.5,85.4z"/>
		<path class="st3" d="M69.4,86.8H45.1c0,0-0.3,0.2,0.5,0.4s1.6,0.5,3.3,1.1c1.7,0.6,2.6,1.5,8.4,1.5l0,0h0l0,0
			c5.8,0,6.6-0.9,8.4-1.5c1.8-0.6,2.5-0.9,3.3-1.1C69.7,86.9,69.4,86.8,69.4,86.8z"/>
		<path class="st4" d="M47.8,86.8c1.4,1.8,5.1,3.1,9.4,3.1s8.1-1.3,9.4-3.1H47.8z"/>
		<path class="st5" d="M51.8,94.8c0.8,2.1,2.8,3.7,5.2,3.7c2.4,0,4.4-1.5,5.2-3.7H51.8z"/>
	</g>
	<g id="Ojos_13_">
		<path class="st6" d="M77,51.8l-17,1.4v19.7h0.6l1.3-12c0,0,1.4,1.2,2.5,1.2c3,0,7.6,0.1,10.2,0c3.7-0.1,6.1-4.2,7.1-5.4
			C81.8,56.6,81.3,53.1,77,51.8z M32.3,56.6c1.1,1.2,3.4,5.3,7.1,5.4c2.5,0.1,7.2,0,10.2,0c1.1,0,2.5-1.2,2.5-1.2l1.3,12H54V53.1
			l-17-1.4C32.8,53.1,32.3,56.6,32.3,56.6z"/>
		<path class="st7" d="M50.9,56.4c-2.6-0.8-6.5-0.7-8.6-0.5c-2.7,0.3-3.5,0.9-4.4,2.1c-0.8,1.1-0.7,1.7-0.7,1.7l1.5-0.4
			c0.2-0.4,0.7-1.1,1.4-1.4c0.4-0.1,0.8-0.2,1.5-0.3c0,0.1,0,0.2,0,0.3c0,1.4,1,1.8,2.5,1.8l2.2,0c1.5,0,2.7-0.5,2.6-1.9
			c0-0.1,0-0.3-0.1-0.4c0.7,0,1.3,0.1,1.7,0.2c1,0.3,1.3,0.2,1.5-0.2C52.3,57.1,51.6,56.6,50.9,56.4z M76.3,58
			c-0.8-1.1-1.7-1.7-4.4-2.1c-2.1-0.3-6-0.4-8.6,0.5c-0.6,0.2-1.4,0.7-1.2,1.2c0.1,0.4,0.4,0.5,1.5,0.2c0.4-0.1,1-0.2,1.7-0.2
			c0,0.1,0,0.2-0.1,0.4c0,1.4,1.1,1.9,2.6,1.9l2.2,0c1.5,0,2.5-0.4,2.5-1.8c0-0.1,0-0.2,0-0.3c0.8,0,1.2,0.1,1.5,0.3
			c0.7,0.3,1.2,1,1.4,1.4l1.5,0.4C77,59.7,77.1,59.1,76.3,58z"/>
	</g>
	<g id="Oreja_der_13_">
		<polygon class="st1" points="85.2,73.6 89.9,74.1 91.2,61.4 87.7,61.1 86.5,72.9 		"/>
		<path class="st0" d="M85.4,68.4c0.2,0,0.4,0.1,0.6,0.1c0,0,0,0,0,0c1.2,0.4,2,1.4,1.9,2.6c-0.1,1.4-0.9,2-1.8,2.2
			c0.3,0.2,1,0.4,2,0c1.3-0.5,1.7-1.8,1.9-2.9c0.1-1.1,0.9-8.7,0.9-8.7l-3.5,2.7l0.5-5.3l2.5-2.6c0.1-0.1,0.1-0.2,0.2-0.2
			c0.3-0.3,0.7-0.4,1.2-0.3c0.9,0.1,1.5,0.8,1.4,1.7c0,0-1.4,13.3-1.4,13.5c0,0.2-0.2,1.9-1.1,3.1c-0.8,1-3.7,4.1-5.4,4.9
			c0,0-0.3,0.2-0.8,0.2c-0.5,0-0.9-0.3-1.1-0.7l1.1-10.2C84.8,68.4,85.1,68.4,85.4,68.4z"/>
		<path class="st6" d="M88.1,62.7c0.4-0.4,2.3-2.2,2.4-2.3c0.2-0.2,0.6-0.2,0.9,0c0.2,0.2,0.2,0.6,0,0.8c0,0-2,1.9-2.4,2.3
			c-0.3,0.3-0.4,0.6-0.6,1.8l-0.5,5.3c0,0.1,0,0.1-0.1,0.2c-0.1-0.7-0.4-1.3-1-1.8l0.4-3.8C87.4,63.9,87.6,63.3,88.1,62.7z"/>
	</g>
	<g id="Oreja_izq_11_">
		<polygon class="st1" points="28.9,73.6 24.2,74.1 22.9,61.4 26.4,61.1 27.6,72.9 		"/>
		<path class="st0" d="M28.7,68.4c-0.2,0-0.4,0.1-0.6,0.1c0,0,0,0,0,0c-1.2,0.4-2,1.4-1.9,2.6c0.1,1.4,0.9,2,1.8,2.2
			c-0.3,0.2-1,0.4-2,0c-1.3-0.5-1.7-1.8-1.9-2.9c-0.1-1.1-0.9-8.7-0.9-8.7l3.5,2.7l-0.5-5.3c0,0-2.7-2.8-2.7-2.8
			c-0.3-0.3-0.7-0.4-1.2-0.4c-0.9,0.1-1.5,0.8-1.4,1.7c0,0,1.3,13.4,1.3,13.5c0,0.2,0.2,1.9,1.1,3.1c0.8,1,3.7,4.1,5.4,4.9
			c0,0,0.3,0.2,0.8,0.2c0.5,0,0.9-0.3,1.1-0.7l-1-10.2C29.3,68.4,29,68.4,28.7,68.4z"/>
		<path class="st6" d="M26,62.7c-0.4-0.4-2.3-2.2-2.4-2.3c-0.2-0.2-0.6-0.2-0.9,0c-0.2,0.2-0.2,0.6,0,0.8c0,0,2,1.9,2.4,2.3
			c0.3,0.3,0.4,0.7,0.6,1.8l0.5,5.3c0,0.1,0,0.1,0.1,0.2c0.1-0.7,0.5-1.3,1-1.8l-0.4-3.8C26.7,63.9,26.5,63.3,26,62.7z"/>
	</g>
	<g id="Nariz_12_">
		<path class="st1" d="M64.1,74.9c-1.1-0.4-1.3-0.7-2.1-1.6c-0.8-0.9-2.8-2.1-5-2.1c-2.2,0-4.2,1.2-5,2.1c-0.8,0.9-1,1.2-2.1,1.6
			c-1.1,0.4-1.9,1.1-1.9,2.5c0,1.4,0.9,2.1,2.2,2.5c1.1,0.3,1.6,0.2,2.1,0.2c0.4,0,1.1-0.1,2.1,0.1c0.9,0.2,1.5,0.5,2.6,0.5
			c1.1,0,1.7-0.3,2.6-0.5c1-0.2,1.7-0.2,2.1-0.1c0.4,0,1,0.1,2.1-0.2c1.3-0.4,2.2-1.1,2.2-2.5C66,76,65.3,75.3,64.1,74.9z"/>
		<rect x="54" y="53.1" class="st1" width="6" height="19.7"/>
		<ellipse class="st0" cx="57.1" cy="76.7" rx="3.4" ry="1.8"/>
		
			<ellipse transform="matrix(0.2648 -0.9643 0.9643 0.2648 -38.9175 107.5346)" class="st8" cx="51.1" cy="79.3" rx="0.7" ry="1.3"/>
		<ellipse transform="matrix(0.9643 -0.2648 0.2648 0.9643 -18.7473 19.5241)" class="st8" cx="63" cy="79.3" rx="1.3" ry="0.7"/>
	</g>
	<path class="st7" d="M52.8,50.5c0,0-14.8-0.7-15.5-0.7c-1.1,0-1.9,0.7-2.2,1c-0.5,0.5-2,2.7-2.7,5.8c0,0,1.5-2.4,2.7-3.4
		c0.7-0.5,0.8-0.7,2.2-0.7L54,53.1L52.8,50.5z M71.1,97.4c-0.2,0.2-0.4,0.4-0.6,0.6c-0.3,0.2-3.1,1.9-8.4,3.5
		c-0.2,0.1-0.3,0.2-0.3,0.4c0,0.6-0.5,1.1-1.1,1.1c0,0-2,0.3-3.8,0.3c-1.7,0-3.8-0.3-3.8-0.3c-0.6,0-1.1-0.5-1.1-1.1
		c0-0.2-0.1-0.3-0.3-0.4c-5.3-1.6-8.1-3.3-8.4-3.5c-0.2-0.2-0.4-0.3-0.6-0.6c-0.2-0.3-1.2-1.9-1.2-1.9h-1.3c0.1,1.9,0.5,5.3,1.9,7.6
		c2.1,3.4,4.2,6.1,6,7.1c0,0,0,0,0,0c0.6,0.4,1.3,0.6,2.1,0.6h13.2c0.8,0,1.5-0.2,2.1-0.6c0,0,0,0,0,0c1.8-1,3.9-3.6,6-7.1
		c1.4-2.3,1.8-5.7,1.9-7.6h-1.3C72.3,95.5,71.3,97.1,71.1,97.4z M76.9,49.8c-0.8,0-15.5,0.7-15.5,0.7l-1.3,2.6l16.9-0.7
		c1.4,0,1.5,0.2,2.2,0.7c1.2,0.9,2.7,3.4,2.7,3.4c-0.7-3.1-2.1-5.3-2.7-5.8C78.8,50.5,77.9,49.8,76.9,49.8z M95.6,32.5
		c-0.6-7.8-3.2-13.8-16.4-22.4c-5.8-3.8-10.4-5.3-13.7-5.5c-2.5-0.2-5.6-0.2-8.5-0.2H57c-2.9,0-6,0-8.5,0.2
		c-3.3,0.2-7.9,1.8-13.7,5.5c-13.2,8.5-15.8,14.5-16.4,22.4c-0.3,4.6,0.3,7.8,0.7,12c0.5,5.3,1.8,11.5,2,12c0.2,1.2,1.2,2.1,2.5,2.1
		c0.2,0,0.4,0,0.5,0c0.2,0,0.3,0,0.5,0.1c2.1,0.5,2.1,2.8,2.1,2.8l0.4,5.7h2.1l-0.1-14.7c0-1.7,1-3.2,2.5-3.8
		c0.6-0.3,0.9-0.8,0.9-1.4v-6.8c0,0,0-3.4,0-4.9c0-1.7,4-6,6-6h8.8c3.6,1.2,6.7,3.8,8.4,7.2v-4.8c4.1,1,7.6,3.2,10.2,6.3h0v-6.9
		c3.5,1.2,6.5,3.7,8.4,6.9v-5.6c4.4,2.9,7.2,7.8,7.2,13.5c0,0,0,0.6,0,1.3c0,0.6,0.3,1.2,0.9,1.4c1.4,0.7,2.5,2.1,2.5,3.8l-0.1,14.7
		H87l0.4-5.7c0,0,0.1-2.2,2.1-2.8c0.1,0,0.3-0.1,0.5-0.1c0.2,0,0.3,0,0.5,0c1.3,0,2.3-0.9,2.5-2.1c0.1-0.5,1.4-6.8,2-12
		C95.3,40.3,96,37.1,95.6,32.5z"/>
</g>
</svg>
