<?xml version="1.0" encoding="utf-8"?>
<!-- Generator: Adobe Illustrator 21.1.0, SVG Export Plug-In . SVG Version: 6.00 Build 0)  -->
<svg version="1.1" id="Capa_1" xmlns="http://www.w3.org/2000/svg" xmlns:xlink="http://www.w3.org/1999/xlink" x="0px" y="0px"
	 viewBox="0 0 113.4 113.4" style="enable-background:new 0 0 113.4 113.4;" xml:space="preserve">
<style type="text/css">
	.st0{fill:#FFC7AC;}
	.st1{fill:#FFA688;}
	.st2{fill:#FF9276;}
	.st3{fill:#201717;}
	.st4{fill:#FF7389;}
	.st5{fill:#1D1D1B;}
</style>
<g id="Tito">
	<path class="st0" d="M25.7,27.6v34.3h0v9.4c0,0,0,3.6,0,6.8v2.6c0,3.5,1.9,5.3,2.6,6.4c0.7,1.1,6.4,9.1,11.5,15.3s9.4,5.8,11,5.8
		c1.6,0,6,0,6,0s4.4,0,6,0c1.6,0,6,0.4,11-5.8c5.1-6.2,10.8-14.2,11.5-15.3C86,86,88,84.2,88,80.8v-2.6c0-3.2,0-6.8,0-6.8V27.6H25.7
		z"/>
	<g id="Oreja_izq_1_">
		<polygon class="st1" points="27,70.1 21.9,70.1 21.9,56.8 25.6,56.8 25.6,69.1 		"/>
		<path class="st0" d="M27.4,64.6c-0.2,0-0.4,0-0.6,0.1c0,0,0,0,0,0c-1.3,0.3-2.4,1.2-2.4,2.5c0,1.5,0.8,2.1,1.7,2.5
			c-0.3,0.1-1.1,0.3-2.2-0.2c-1.3-0.6-1.7-2-1.7-3.2c0-1.2,0-9.1,0-9.1l3.5,3.5v-5.9l-2.4-2.9c-0.1-0.1-0.1-0.2-0.2-0.3
			c-0.3-0.3-0.8-0.5-1.3-0.5c-1,0-1.7,0.7-1.7,1.6c0,0,0,13.9,0,14.1c0,0.1,0,2,0.9,3.4c0.7,1.1,3.6,4.7,5.3,5.7
			c0,0,0.3,0.3,0.9,0.3c0.5,0,1-0.2,1.2-0.6V64.8C28,64.7,27.7,64.6,27.4,64.6z"/>
		<path class="st2" d="M25,58.5c-0.4-0.5-2.3-2.6-2.4-2.7c-0.2-0.3-0.7-0.3-0.9-0.1c-0.3,0.2-0.3,0.6-0.1,0.9c0,0,2,2.2,2.3,2.6
			c0.3,0.3,0.4,0.7,0.4,1.9v5.5c0,0.1,0,0.1,0,0.2c0.1-0.7,0.6-1.3,1.3-1.7v-4C25.7,59.7,25.5,59.1,25,58.5z"/>
	</g>
	<g id="Oreja_der_2_">
		<polygon class="st1" points="86.7,70.1 91.8,70.1 91.8,56.8 88,56.8 88,69.1 		"/>
		<path class="st0" d="M86.3,64.6c0.2,0,0.4,0,0.6,0.1c0,0,0,0,0,0c1.3,0.3,2.4,1.2,2.4,2.5c0,1.5-0.8,2.1-1.7,2.5
			c0.3,0.1,1.1,0.3,2.2-0.2c1.3-0.6,1.7-2,1.7-3.2s0-9.1,0-9.1L88,60.7v-5.9l2.4-2.9c0.1-0.1,0.1-0.2,0.2-0.3
			c0.3-0.3,0.8-0.5,1.3-0.5c1,0,1.7,0.7,1.7,1.6c0,0,0,13.8,0,14.1c0,0.1,0,2-0.9,3.4c-0.7,1.1-3.6,4.7-5.3,5.7c0,0-0.3,0.3-0.9,0.3
			c-0.5,0-1-0.2-1.2-0.6V64.8C85.6,64.7,85.9,64.6,86.3,64.6z"/>
		<path class="st2" d="M88.6,58.5c0.4-0.5,2.3-2.6,2.4-2.7c0.2-0.3,0.7-0.3,0.9-0.1c0.3,0.2,0.3,0.6,0.1,0.9c0,0-2,2.2-2.3,2.6
			c-0.3,0.3-0.4,0.7-0.4,1.9v5.5c0,0.1,0,0.1,0,0.2c-0.1-0.7-0.6-1.3-1.3-1.7v-4C88,59.7,88.1,59.1,88.6,58.5z"/>
	</g>
	<g id="ojos">
		<path class="st2" d="M77.6,50.4l-17.6,0.7l-1.2,17.6h1.6c0,0,0.8-5.6,1-7c0.2-1.5,1.3-2.3,2-2.3s7.6-0.1,11.1,0
			c3.6,0.1,6-3.4,7.1-4.7L77.6,50.4z M36,50.4l-4.1,4.3c1.1,1.3,3.5,4.8,7.1,4.7c3.6-0.1,10.4,0,11.1,0c0.8,0,1.8,0.9,2,2.3
			c0.2,1.5,1,7,1,7h1.6l-1.2-17.6L36,50.4z"/>
		<path class="st3" d="M75.2,54.1c-0.5-0.1-12.2,0-12.2,0l0,1.2c0,0,1.2,0,3,0v2c0,0.3,0.2,0.5,0.5,0.5h6.8c0.3,0,0.5-0.2,0.5-0.5
			v-1.9c0.7,0,1,0,1.1,0.1c0.5,0.1,1.4,0.8,1.8,3.1l1.2-0.9C77.2,54.1,75.7,54.2,75.2,54.1z M78.3,47.2c0,0-0.2-0.2-0.4-0.3
			c-0.3-0.1-0.6-0.1-0.6-0.1l-15.9,0.7l-1.5,3.5l17.6-0.7l1.9,2c0.2-0.1,2.4-1.9,2.4-1.9L78.3,47.2z M38.3,54.1
			c-0.5,0.1-2,0-2.5,3.5l1.2,0.9c0.4-2.3,1.3-3,1.8-3.1c0.1,0,0.4,0,1.1-0.1v1.9c0,0.3,0.2,0.5,0.5,0.5h6.8c0.3,0,0.5-0.2,0.5-0.5
			v-2c1.7,0,3,0,3,0l0-1.2C50.5,54.1,38.8,54,38.3,54.1z M36.2,46.9c0,0-0.3,0-0.6,0.1c-0.2,0.1-0.4,0.3-0.4,0.3l-3.6,3.3
			c0,0,2.2,1.8,2.4,1.9l1.9-2l17.6,0.7l-1.5-3.5L36.2,46.9z"/>
	</g>
	<g id="Nariz_1_">
		<path class="st1" d="M64.1,71.3c-1.2-0.5-1.3-0.8-2.2-1.7c-0.8-0.9-2.9-2.2-5.2-2.2c-2.3,0-4.3,1.3-5.2,2.2
			c-0.8,0.9-1,1.2-2.2,1.7s-2,1.2-2,2.6s1,2.2,2.3,2.6c1.2,0.3,1.7,0.2,2.2,0.2c0.5,0,1.2-0.1,2.2,0.1c0.9,0.2,1.5,0.5,2.7,0.5
			c1.1,0,1.8-0.3,2.7-0.5c1-0.2,1.7-0.2,2.2-0.1c0.5,0,1,0.1,2.2-0.2c1.4-0.4,2.3-1.2,2.3-2.6S65.3,71.8,64.1,71.3z"/>
		<polygon class="st1" points="53.6,51.1 54.9,69.8 58.6,69.8 59.9,51.1 		"/>
		<ellipse class="st0" cx="56.8" cy="73.2" rx="3.6" ry="1.9"/>
		<path class="st3" d="M64.3,75.5c-0.1-0.4-0.8-0.5-1.5-0.3c-0.7,0.2-1.2,0.7-1.1,1c0.1,0.4,0.8,0.5,1.5,0.3
			C63.9,76.3,64.4,75.9,64.3,75.5z M50.7,75.2c-0.7-0.2-1.4-0.1-1.5,0.3c-0.1,0.4,0.4,0.8,1.1,1c0.7,0.2,1.4,0.1,1.5-0.3
			C52,75.9,51.4,75.4,50.7,75.2z"/>
	</g>
	<g id="Boca">
		<path class="st4" d="M63.7,83.1l-4.9-1.6c-0.6,1-1.6,0.9-1.9,0.9s-1.4,0-1.9-0.9l-4.9,1.6h-5.9c0,0,0.1,1.3,0.3,2.9
			c0.6,0.3,2.8,1.5,3.7,2c1.1,0.5,1.6,0.7,3.4,0.7s5.3,0,5.3,0s3.4,0,5.3,0c1.8,0,2.3-0.2,3.4-0.7c1-0.4,3.1-1.6,3.7-2
			c0.2-1.6,0.3-2.9,0.3-2.9H63.7z"/>
		<path class="st5" d="M64.1,85.4H49.6c-2.7,0-5.5-1.4-5.6-1.4l0.2-0.3c0,0,2.9,1.4,5.5,1.4h14.5c2.6,0,5.4-1.4,5.5-1.4l0.2,0.3
			C69.6,84,66.8,85.4,64.1,85.4z"/>
		<path class="st2" d="M66.5,72.5c4.5,7,7.4,5.6,7.4,5.6L66.5,72.5z M47,72.5L39.6,78C39.6,78,42.6,79.4,47,72.5z"/>
	</g>
	<path class="st5" d="M86.4,72.8c-1.6,1.5-3.9,3.8-4.7,4.5c-1.2,1.1-2.8,2.5-3.4,3.2c-0.5,0.7-2,4.7-5.3,7l0.8-6.6
		c0-0.1,0-0.2,0-0.4c0-0.8-0.7-1.5-1.5-1.5c0,0-7.6,0-8.3,0c-0.7,0-4-1.2-4.7-1.4c-0.7-0.2-1.6,0.3-2.5,0.3s-1.8-0.5-2.5-0.3
		c-0.7,0.2-4,1.4-4.7,1.4c-0.7,0-8.3,0-8.3,0c-0.8,0-1.5,0.7-1.5,1.5c0,0.1,0,0.2,0,0.4l0.8,6.6c-3.3-2.3-4.8-6.3-5.3-7
		c-0.5-0.7-2.1-2-3.4-3.2c-0.8-0.7-3.1-3-4.7-4.5V62.5l-1.6-2.6v11.4c0,0,0,3.6,0,6.8v2.6c0,3.5,1.9,5.3,2.6,6.4
		c0.7,1.1,6.4,9.1,11.5,15.3s9.4,5.8,11,5.8c1.6,0,6,0,6,0s4.4,0,6,0c1.6,0,6,0.4,11-5.8c5.1-6.2,10.8-14.2,11.5-15.3
		C86,86,88,84.2,88,80.8v-2.6c0-3.2,0-6.8,0-6.8V59.9l-1.6,2.6V72.8z M68.5,91.1c-0.8,1.8-4,6.9-4.3,7.2c-0.3,0.2-5.4,0-5.4,0
		s0-5.2,0-6c0-0.8,1.3-1.5,2.2-1.5l1.1-2H51.6l1.1,2c0.9,0,2.2,0.7,2.2,1.5c0,0.8,0,6,0,6s-5.1,0.2-5.4,0c-0.3-0.2-3.5-5.4-4.3-7.2
		c-0.2-0.5-1.1-8-1.1-8h5.9l4.9-1.6l0,0l0,0c0.1,0.1,0.2,0.2,0.2,0.3c0.6,0.6,1.4,0.6,1.7,0.6l0,0l0,0c0.3,0,1.1,0.1,1.7-0.6
		c0.1-0.1,0.2-0.2,0.2-0.3l0,0l0,0l4.9,1.6h5.9C69.6,83.1,68.7,90.5,68.5,91.1z M88.7,25.1c-1.5-2.5-2.1-5.8-2.8-7
		c-0.7-1.1-2.6-2.3-5.1-3.4c-2.2-1-21.6-7.7-27-9.2c-0.7-0.2-2-0.3-2.1-0.3h-7.1c-1.8,0-5.1,2.1-7.1,4c-2,1.8-8.6,7.5-11.1,9.6
		S22,23.9,22,28.9v22.2c0.4,0.1,0.7,0.2,1,0.5c0.1,0.1,0.2,0.2,0.2,0.3l2.4,2.9h0l0,0v5.1l1.6-2.6v-7.6l3-5.4v-8.8l4.4-4.4
		c0,0,1.1-1,2.5-1.7C38.6,28.8,40,29,40,29h22.9c-3.3,2.8-6.7,5.2-8.7,6.6c-0.4,0.3-0.9,0.5-0.8,0.8c0.1,0.3,0.7,0.4,1.3,0.4h9.4
		c1.7,0,7.3-3.7,10.1-5.6h4.6l4.5,4.3v8.9l3,5.4v1.3h0v6.3l1.6,2.6v-5.1l0,0l2.4-2.9c0.1-0.1,0.1-0.2,0.2-0.3
		c0.2-0.2,0.5-0.4,0.9-0.5V30C91.5,28.6,90.1,27.6,88.7,25.1z"/>
</g>
</svg>
