<?xml version="1.0" encoding="utf-8"?>
<!-- Generator: Adobe Illustrator 21.1.0, SVG Export Plug-In . SVG Version: 6.00 Build 0)  -->
<svg version="1.1" id="Capa_1" xmlns="http://www.w3.org/2000/svg" xmlns:xlink="http://www.w3.org/1999/xlink" x="0px" y="0px"
	 viewBox="0 0 113.4 113.4" style="enable-background:new 0 0 113.4 113.4;" xml:space="preserve">
<style type="text/css">
	.st0{fill:#FFC7AC;}
	.st1{fill:#FFA688;}
	.st2{fill:#FF9276;}
	.st3{fill:#FF7389;}
	.st4{fill:#7D3444;}
	.st5{fill:#FFFFFF;}
	.st6{fill:#261818;}
	.st7{fill:#201717;}
	.st8{fill:#352727;}
</style>
<g id="Tobi">
	<path class="st0" d="M86.1,30.6c-0.2-2.2-6.9-12.3-9.1-12.3H38.7c-2.2,0-10.8,10.1-11,12.3l-4.2,25L28,78c0,0,2.8,9.8,4.5,14.2
		c1.7,4.4,15.3,16.1,15.4,16.2c0.8,0.8,2,1.4,3.3,1.4h11.4c1.3,0,2.4-0.5,3.3-1.4c0.1-0.1,13.8-11.8,15.4-16.2
		C83,87.8,85.8,78,85.8,78l4.6-23.1L86.1,30.6z"/>
	<g id="Oreja_der_17_">
		<polygon class="st1" points="27.5,70.7 21.9,71 21.3,56.3 25.4,56.1 26,69.7 		"/>
		<path class="st0" d="M27.7,64.7c-0.2,0-0.5,0.1-0.7,0.1c0,0,0,0,0,0c-1.4,0.4-2.5,1.5-2.5,2.9c0.1,1.6,1,2.3,2,2.6
			c-0.4,0.2-1.2,0.4-2.4-0.1c-1.5-0.6-1.9-2.1-2-3.4c-0.1-1.3-0.4-10.1-0.4-10.1l4,3.3l-0.3-6.1l-2.8-3.1c-0.1-0.1-0.2-0.2-0.3-0.3
			c-0.4-0.3-0.9-0.5-1.4-0.5c-1.1,0.1-1.9,0.9-1.8,1.9c0,0,0.7,15.5,0.7,15.6c0,0.3,0.1,2.2,1.1,3.7c0.9,1.2,4.1,5,6.1,5.9
			c0,0,0.4,0.3,1,0.2c0.6,0,1-0.3,1.3-0.7l-0.5-11.8C28.5,64.7,28.1,64.6,27.7,64.7z"/>
		<path class="st2" d="M24.8,58c-0.5-0.5-2.6-2.7-2.7-2.8c-0.3-0.3-0.7-0.3-1,0c-0.3,0.3-0.3,0.7-0.1,1c0,0,2.2,2.3,2.7,2.7
			c0.3,0.3,0.5,0.8,0.5,2.1l0.3,6.1c0,0.1,0,0.1,0.1,0.2c0.1-0.8,0.6-1.5,1.3-2l-0.2-4.4C25.6,59.4,25.4,58.6,24.8,58z"/>
	</g>
	<g id="Oreja_der_15_">
		<polygon class="st1" points="86.2,70.7 91.8,71 92.4,56.3 88.3,56.1 87.7,69.7 		"/>
		<path class="st0" d="M86,64.7c0.2,0,0.5,0.1,0.7,0.1c0,0,0,0,0,0c1.4,0.4,2.5,1.5,2.5,2.9c-0.1,1.6-1,2.3-2,2.6
			c0.4,0.2,1.2,0.4,2.4-0.1c1.5-0.6,1.9-2.1,2-3.4c0.1-1.3,0.4-10.1,0.4-10.1l-4,3.3l0.3-6.1l2.8-3.1c0.1-0.1,0.2-0.2,0.3-0.3
			c0.4-0.3,0.9-0.5,1.4-0.5c1.1,0.1,1.9,0.9,1.8,1.9c0,0-0.7,15.5-0.7,15.6c0,0.3-0.1,2.2-1.1,3.7c-0.9,1.2-4.1,5-6.1,5.9
			c0,0-0.4,0.3-1,0.2c-0.6,0-1-0.3-1.3-0.7l0.5-11.8C85.3,64.7,85.6,64.6,86,64.7z"/>
		<path class="st2" d="M88.9,58c0.5-0.5,2.6-2.7,2.7-2.8c0.3-0.3,0.7-0.3,1,0c0.3,0.3,0.3,0.7,0.1,1c0,0-2.2,2.3-2.7,2.7
			c-0.3,0.3-0.5,0.8-0.5,2.1l-0.3,6.1c0,0.1,0,0.1-0.1,0.2c-0.1-0.8-0.6-1.5-1.3-2l0.2-4.4C88.1,59.4,88.3,58.6,88.9,58z"/>
	</g>
	<g id="Boca_8_">
		<path class="st3" d="M71.1,84.7c-0.6,0-4.6,0-5.8,0c-1.2,0-4.2-1.1-5-1.4c-0.8-0.3-0.9-0.2-1.3,0s-0.8,0.5-2.1,0.5
			c-1.3,0-1.7-0.3-2.1-0.5s-0.5-0.3-1.3,0c-0.8,0.3-3.8,1.4-5,1.4c-1.2,0-5.2,0-5.8,0c-0.6,0-0.8,0.6-0.7,1.4c0.1,0.8,1.4,3.4,5.3,6
			c3.1,2,6.3,3.1,9.7,3.1c3.4,0,6.5-1,9.7-3.1c3.9-2.5,5.2-5.2,5.3-6C71.9,85.3,71.7,84.7,71.1,84.7z"/>
		<path class="st4" d="M69.8,86.9c-2.1-0.3-4.2-1.2-13-1.2c-8.8,0-10.8,1-13,1.2c-0.2,0-0.2,0.3,0,0.3l3.1,1c2.1,0.8,3.1,2,9.9,2
			c0,0,0,0,0,0c0,0,0,0,0,0c6.8,0,7.8-1.3,9.9-2l3.1-1C70,87.1,70,86.9,69.8,86.9z"/>
		<path class="st5" d="M66.8,87.1c-0.5-0.3-3.5-0.6-3.9-0.6c0,0-2.3-0.2-6.2-0.2s-6.2,0.2-6.2,0.2c-0.4,0-3.4,0.3-3.9,0.6
			c-0.5,0.3-0.3,1-0.3,1c4.4,2.2,7,2.2,10.3,2.2c0,0,0,0,0,0s0,0,0,0c3.3,0,5.9,0,10.3-2.2C67.2,88.1,67.3,87.4,66.8,87.1z"/>
		<path class="st1" d="M76,84.8c-0.9-1.5-2.9-2.2-4.9-2l4,6.6C76.4,88.2,76.9,86.3,76,84.8z M37.6,84.9c-0.9,1.5-0.5,3.4,1,4.6
			l4-6.7C40.6,82.6,38.6,83.4,37.6,84.9z M56.8,95.7c-2.5,0-4.6,1.4-5.4,3.3h10.9C61.5,97,59.3,95.7,56.8,95.7z"/>
	</g>
	<g id="Ojos_11_">
		<path class="st2" d="M59.7,50v21.8h0.6c-0.2-4.5,1.7-9.9,2.2-11c0.5-1.3,1.5,0.2,4.6,0.3c2.2,0.1,5.2,0.2,7.7,0.1
			c1.2-0.1,3.6-0.2,4.5-0.6c1-0.4,3.6-4.1,4.4-5.4c0.4-0.7-1.3-3.9-1.3-3.9C75.3,44.3,59.7,50,59.7,50z"/>
		<path class="st2" d="M31.4,51.4c0,0-1.7,3.2-1.3,3.9c0.8,1.3,3.4,5,4.4,5.4c0.9,0.4,3.2,0.6,4.5,0.6c2.5,0.1,5.4-0.1,7.7-0.1
			c3.1-0.1,4.1-1.6,4.6-0.3c0.4,1.1,2.4,6.5,2.2,11h0.6V50C53.9,50,38.3,44.3,31.4,51.4z"/>
		<path class="st6" d="M78,57.3c-0.8-1.1-1.7-1.8-4.3-2.1c-2.1-0.3-6-0.5-8.6,0.3c-0.7,0.2-1.4,0.7-1.3,1.1c0.1,0.4,0.4,0.5,1.5,0.2
			c0.4-0.1,1.2-0.2,1.7-0.2c0,0-0.1,0.2-0.1,0.4c-0.1,1.4,1.1,1.9,2.6,1.9l2.2,0.1c1.5,0.1,2.5-0.3,2.5-1.7c0-0.1,0-0.3,0-0.3
			c0.8,0.1,1.1,0.1,1.5,0.3c0.7,0.3,1.2,1,1.4,1.4l1.5,0.4C78.7,59,78.8,58.4,78,57.3z M48.6,55.4c-2.6-0.8-6.5-0.6-8.6-0.3
			c-2.7,0.4-3.5,1-4.3,2.1C34.8,58.4,35,59,35,59l1.5-0.4c0.2-0.4,0.7-1.1,1.4-1.4c0.4-0.2,0.8-0.2,1.5-0.3c0,0,0,0.2,0,0.3
			c0.1,1.4,1,1.8,2.5,1.7l2.2-0.1c1.5-0.1,2.7-0.5,2.6-1.9c0-0.1-0.1-0.4-0.1-0.4c0.5,0,1.3,0.1,1.7,0.2c1,0.3,1.3,0.2,1.5-0.2
			C50,56.2,49.2,55.6,48.6,55.4z"/>
	</g>
	<g id="Nariz_14_">
		<path class="st1" d="M63.9,74.4c-1.1-0.5-1.3-0.8-2.1-1.8c-0.8-1-2.7-2.3-5-2.3c-2.2,0-4.2,1.4-5,2.3c-0.8,1-1,1.3-2.1,1.8
			c-1.1,0.5-1.9,1.2-1.9,2.7c0,1.5,0.9,2.3,2.2,2.8c1.1,0.3,1.6,0.2,2.1,0.2s1.1-0.1,2.1,0.2c0.9,0.2,1.5,0.6,2.6,0.6
			s1.7-0.4,2.6-0.6c1-0.2,1.7-0.2,2.1-0.2s1,0.2,2.1-0.2c1.3-0.4,2.2-1.2,2.2-2.8C65.8,75.7,65,74.9,63.9,74.4z"/>
		<rect x="53.9" y="50" class="st1" width="5.8" height="23.8"/>
		<ellipse class="st0" cx="56.8" cy="76.9" rx="3.7" ry="1.8"/>
		<path class="st7" d="M50.6,78.8c-0.7-0.2-1.4-0.1-1.5,0.3c-0.1,0.4,0.4,0.8,1.2,1c0.7,0.2,1.4,0.1,1.5-0.3
			C51.9,79.5,51.4,79,50.6,78.8z M64.6,79.1c-0.1-0.4-0.8-0.5-1.5-0.3c-0.8,0.2-1.3,0.6-1.2,1c0.1,0.4,0.8,0.5,1.5,0.3
			C64.1,79.9,64.7,79.5,64.6,79.1z"/>
	</g>
	<path class="st8" d="M78.3,46.5c-1.6-0.8-4.6-0.5-6.6-0.4c-2.1,0.1-8.6,0.6-10.2,0.8c-0.1,0-0.3,0.1-0.3,0.2l-1.4,3
		c3.3-0.5,15.7-1.6,19.2-0.1c2.2,0.9,4.4,4,4.4,4s0-3-1.2-4.7C81.4,48,79.6,47.2,78.3,46.5z M52.2,46.8c-1.6-0.1-8.1-0.7-10.2-0.8
		c-2.1-0.1-5.1-0.4-6.6,0.4c-1.3,0.7-3.1,1.5-3.9,2.7c-1.2,1.8-1.2,4.7-1.2,4.7s2.2-3.1,4.4-4c3.5-1.4,15.9-0.3,19.2,0.1l-1.4-3
		C52.5,46.9,52.4,46.9,52.2,46.8z M88.5,31c-0.3-7.6-6.7-10.7-8-11.6c-0.2-0.1-0.3-0.3-0.3-0.5C79.7,16.3,82,9.6,81.4,9
		c-4-4.4-15.9-6.4-18.9-7c-6.1-1.2-15.2,0.6-21.2,8.8c0,0-6,1.6-9.8,4.5c-0.9,0.7-3.5,2.1-5.9,5.8c-1.2,1.9-2.7,4.6-2.8,9.4
		c-0.1,3.1-1.3,6.1-2.1,9.5c-0.9,3.6-0.3,8.4-0.1,10.1c0,0,0.9-0.2,1.6,0.5s4.1,4.5,4.1,4.5v8h1.6V50.9c0-3,1.6-5.8,3.3-8l3.1-17.3
		c0.8-3.6,10.1-5.9,22.5-6.1c12.4,0.3,21.7,2.6,22.5,6.1l3.2,17.3c1.6,2.2,3.3,5,3.3,8V63h1.6v-8.1c0,0,2.8-2.9,3.6-3.9
		c0.8-1,1.5-1,1.5-1C93.1,41.7,88.9,39.1,88.5,31z"/>
	<path id="Anteojos" class="st7" d="M86.1,51.9c-0.6-0.6-1.9-1.2-4.4-2.2l0,0c-0.8-0.4-1.9-0.7-3.4-0.9c-4.7-0.8-10.8,0.2-14,0.8
		c-3.4,0.7-4.9,3.1-5.6,4.6c-0.6-0.3-1.2-0.3-1.7-0.3l-0.2,0l-0.2,0c-0.5,0-1.1,0-1.7,0.3c-0.6-1.5-2.1-3.9-5.6-4.6
		c-3.2-0.7-9.3-1.6-14-0.8c-1.5,0.3-2.6,0.6-3.4,0.9l0,0c-2.5,0.9-3.8,1.6-4.4,2.2c-0.2,0.2-0.3,0.5-0.3,0.9
		c0.1,0.8,1.1,1.6,1.9,2.1c0.2,2.7,1,6.5,2.8,8.3c1.4,1.4,3.4,3.5,9.2,3.5c0.6,0,1.2,0,1.8-0.1c6.3-0.4,7.7-1.3,9.3-4.3
		c0.6-1.1,1.2-2.5,1.8-3.6c0.6-1.3,1.3-2.8,1.5-3c0.3-0.2,0.6-0.2,1.1-0.2l0.2,0l0.2,0c0.5,0,0.8,0,1,0.2c0.3,0.3,1,1.8,1.6,3.1
		c0.5,1.2,1.2,2.5,1.8,3.6c1.6,3,3,3.9,9.3,4.3c7.2,0.5,9.5-1.9,11-3.4c1.8-1.8,2.6-5.6,2.8-8.3c0.8-0.5,1.8-1.3,1.9-2.1
		C86.4,52.4,86.3,52.1,86.1,51.9z M52.7,58c-0.5,1.1-1.1,2.4-1.7,3.6c-1.3,2.4-2,3.2-8.1,3.6c-6.5,0.4-8.6-1.6-9.9-3
		c-2.3-2.3-2.6-8.8-2.3-9.5c0.4-0.6,1.1-1.7,5-2.4c1.2-0.2,2.5-0.3,3.8-0.3c3.6,0,7.4,0.6,9.7,1.1c3.6,0.7,4.6,3.7,4.8,4.5
		C53.6,56.1,53.2,56.9,52.7,58z M80.7,62.1c-1.3,1.4-3.4,3.4-9.9,3c-6.1-0.4-6.8-1.2-8.1-3.6c-0.6-1.1-1.2-2.4-1.7-3.6
		c-0.5-1.1-0.9-1.9-1.2-2.4c0.2-0.9,1.2-3.8,4.8-4.5c3.1-0.6,9-1.6,13.5-0.8c3.9,0.7,4.6,1.8,5,2.3C83.3,53.3,83,59.8,80.7,62.1z"/>
</g>
</svg>
